999
DXF created from QGIS
  0
SECTION
  2
HEADER
  9
$ACADVER
  1
AC1015
  9
$EXTMIN
 10
772023.59015599719714373
 20
1416667.8414998387452215
 30
0.0
  9
$EXTMAX
 10
772622.74239605339244008
 20
1417613.25952882575802505
 30
0.0
  9
$LTSCALE
 40
1.0
  9
$PDMODE
 70
    33
  9
$PDSIZE
 40
     1
  9
$PSLTSCALE
 70
     0
  9
$HANDSEED
  5
9999999
  9
$DWGCODEPAGE
  3

  0
ENDSEC
  0
SECTION
  2
TABLES
  0
TABLE
  2
LTYPE
  5
64
100
AcDbSymbolTable
 70
     5
  0
LTYPE
  5
65
100
AcDbSymbolTableRecord
100
AcDbLinetypeTableRecord
  2
ByLayer
 70
    64
  3
Defaultstyle
 72
    65
 73
     0
 40
0.0
  0
LTYPE
  5
66
100
AcDbSymbolTableRecord
100
AcDbLinetypeTableRecord
  2
ByBlock
 70
    64
  3
Defaultstyle
 72
    65
 73
     0
 40
0.0
  0
LTYPE
  5
67
100
AcDbSymbolTableRecord
100
AcDbLinetypeTableRecord
  2
CONTINUOUS
 70
    64
  3
Defaultstyle
 72
    65
 73
     0
 40
0.0
  0
LTYPE
  5
68
100
AcDbSymbolTableRecord
100
AcDbLinetypeTableRecord
  2
DASH
 70
    64
  3

 72
    65
 73
     2
 40
26.0
 49
20.0
 74
     0
 49
-5.99999999999999911
 74
     0
  0
LTYPE
  5
69
100
AcDbSymbolTableRecord
100
AcDbLinetypeTableRecord
  2
DOT
 70
    64
  3

 72
    65
 73
     2
 40
11.99999999999999822
 49
5.99999999999999911
 74
     0
 49
-5.99999999999999911
 74
     0
  0
LTYPE
  5
6a
100
AcDbSymbolTableRecord
100
AcDbLinetypeTableRecord
  2
DASHDOT
 70
    64
  3

 72
    65
 73
     4
 40
38.0
 49
20.0
 74
     0
 49
-5.99999999999999911
 74
     0
 49
5.99999999999999911
 74
     0
 49
-5.99999999999999911
 74
     0
  0
LTYPE
  5
6b
100
AcDbSymbolTableRecord
100
AcDbLinetypeTableRecord
  2
DASHDOTDOT
 70
    64
  3

 72
    65
 73
     6
 40
50.0
 49
20.0
 74
     0
 49
-5.99999999999999911
 74
     0
 49
5.99999999999999911
 74
     0
 49
-5.99999999999999911
 74
     0
 49
5.99999999999999911
 74
     0
 49
-5.99999999999999911
 74
     0
  0
ENDTAB
  0
TABLE
  2
BLOCK_RECORD
  5
6c
100
AcDbSymbolTable
 70
     0
  0
BLOCK_RECORD
  5
6d
100
AcDbSymbolTableRecord
100
AcDbBlockTableRecord
  2
*Model_Space
  0
BLOCK_RECORD
  5
6e
100
AcDbSymbolTableRecord
100
AcDbBlockTableRecord
  2
*Paper_Space
  0
BLOCK_RECORD
  5
6f
100
AcDbSymbolTableRecord
100
AcDbBlockTableRecord
  2
*Paper_Space0
  0
ENDTAB
  0
TABLE
  2
APPID
  5
70
100
AcDbSymbolTable
 70
     1
  0
APPID
  5
71
100
AcDbSymbolTableRecord
100
AcDbRegAppTableRecord
  2
ACAD
 70
     0
  0
ENDTAB
  0
TABLE
  2
VIEW
  5
72
100
AcDbSymbolTable
 70
     0
  0
ENDTAB
  0
TABLE
  2
UCS
  5
73
100
AcDbSymbolTable
 70
     0
  0
ENDTAB
  0
TABLE
  2
VPORT
  5
74
100
AcDbSymbolTable
  0
VPORT
  5
75
100
AcDbSymbolTableRecord
100
AcDbViewportTableRecord
  2
*ACTIVE
 70
     0
 10
0.0
 20
0.0
 11
1.0
 21
1.0
 12
0.0
 22
0.0
 13
0.0
 23
0.0
 14
1.0
 24
1.0
 15
1.0
 25
1.0
 16
0.0
 26
0.0
 36
1.0
 17
772323.16627602535299957
 27
1417140.55051433225162327
 40
945.41802898701280355
 41
0.63374319262577317
 42
50.0
 43
0.0
 44
0.0
 50
0.0
 51
0.0
 71
     0
 72
   100
 73
     1
 74
     1
 75
     0
 76
     0
 77
     0
 78
     0
281
     0
 65
     1
110
0.0
120
0.0
130
0.0
111
1.0
121
0.0
131
0.0
112
0.0
122
1.0
132
0.0
 79
     0
146
0.0
 70
     0
  0
ENDTAB
  0
TABLE
  2
DIMSTYLE
  5
76
100
AcDbSymbolTable
100
AcDbDimStyleTable
 70
     0
  0
ENDTAB
  0
TABLE
  2
LAYER
  5
77
100
AcDbSymbolTable
 70
    18
  0
LAYER
  5
78
100
AcDbSymbolTableRecord
100
AcDbLayerTableRecord
  2
0
 70
    64
 62
     1
  6
CONTINUOUS
390
f
  0
LAYER
  5
79
100
AcDbSymbolTableRecord
100
AcDbLayerTableRecord
  2
Tittahalli Kaggalipura Road
 70
    64
 62
     1
  6
CONTINUOUS
390
f
  0
LAYER
  5
7a
100
AcDbSymbolTableRecord
100
AcDbLayerTableRecord
  2
Building
 70
    64
 62
     1
  6
CONTINUOUS
390
f
  0
LAYER
  5
7b
100
AcDbSymbolTableRecord
100
AcDbLayerTableRecord
  2
93_7
 70
    64
 62
     1
  6
CONTINUOUS
390
f
  0
LAYER
  5
7c
100
AcDbSymbolTableRecord
100
AcDbLayerTableRecord
  2
Kanakpura Main Road
 70
    64
 62
     1
  6
CONTINUOUS
390
f
  0
LAYER
  5
7d
100
AcDbSymbolTableRecord
100
AcDbLayerTableRecord
  2
Internal Road
 70
    64
 62
     1
  6
CONTINUOUS
390
f
  0
LAYER
  5
7e
100
AcDbSymbolTableRecord
100
AcDbLayerTableRecord
  2
93_6
 70
    64
 62
     1
  6
CONTINUOUS
390
f
  0
LAYER
  5
7f
100
AcDbSymbolTableRecord
100
AcDbLayerTableRecord
  2
No Enjoyment
 70
    64
 62
     1
  6
CONTINUOUS
390
f
  0
LAYER
  5
80
100
AcDbSymbolTableRecord
100
AcDbLayerTableRecord
  2
HT Powerline1
 70
    64
 62
     1
  6
CONTINUOUS
390
f
  0
LAYER
  5
81
100
AcDbSymbolTableRecord
100
AcDbLayerTableRecord
  2
Excess Enjoyment
 70
    64
 62
     1
  6
CONTINUOUS
390
f
  0
LAYER
  5
82
100
AcDbSymbolTableRecord
100
AcDbLayerTableRecord
  2
46_P2
 70
    64
 62
     1
  6
CONTINUOUS
390
f
  0
LAYER
  5
83
100
AcDbSymbolTableRecord
100
AcDbLayerTableRecord
  2
HT Powerline2
 70
    64
 62
     1
  6
CONTINUOUS
390
f
  0
LAYER
  5
84
100
AcDbSymbolTableRecord
100
AcDbLayerTableRecord
  2
94_4
 70
    64
 62
     1
  6
CONTINUOUS
390
f
  0
LAYER
  5
85
100
AcDbSymbolTableRecord
100
AcDbLayerTableRecord
  2
95
 70
    64
 62
     1
  6
CONTINUOUS
390
f
  0
LAYER
  5
86
100
AcDbSymbolTableRecord
100
AcDbLayerTableRecord
  2
94_3
 70
    64
 62
     1
  6
CONTINUOUS
390
f
  0
LAYER
  5
87
100
AcDbSymbolTableRecord
100
AcDbLayerTableRecord
  2
94_1
 70
    64
 62
     1
  6
CONTINUOUS
390
f
  0
LAYER
  5
88
100
AcDbSymbolTableRecord
100
AcDbLayerTableRecord
  2
Enjoyment
 70
    64
 62
     1
  6
CONTINUOUS
390
f
  0
LAYER
  5
89
100
AcDbSymbolTableRecord
100
AcDbLayerTableRecord
  2
94_2
 70
    64
 62
     1
  6
CONTINUOUS
390
f
  0
ENDTAB
  0
TABLE
  2
STYLE
  5
8a
100
AcDbSymbolTable
 70
     1
  0
STYLE
  5
8b
100
AcDbSymbolTableRecord
100
AcDbTextStyleTableRecord
  2
STANDARD
 70
    64
 40
0.0
 41
1.0
 50
0.0
 71
     0
 42
5.0
  3
romans.shx
  4

  0
ENDTAB
  0
ENDSEC
  0
SECTION
  2
BLOCKS
  0
BLOCK
  5
8c
330
6d
100
AcDbEntity
  8
0
100
AcDbBlockBegin
  2
*Model_Space
 70
     0
 10
0.0
 20
0.0
 30
0.0
  3
*Model_Space
  1

  0
ENDBLK
  5
8d
100
AcDbEntity
  8
0
100
AcDbBlockEnd
  0
BLOCK
  5
8e
330
6e
100
AcDbEntity
  8
0
100
AcDbBlockBegin
  2
*Paper_Space
 70
     0
 10
0.0
 20
0.0
 30
0.0
  3
*Paper_Space
  1

  0
ENDBLK
  5
8f
100
AcDbEntity
  8
0
100
AcDbBlockEnd
  0
BLOCK
  5
90
330
6f
100
AcDbEntity
  8
0
100
AcDbBlockBegin
  2
*Paper_Space0
 70
     0
 10
0.0
 20
0.0
 30
0.0
  3
*Paper_Space0
  1

  0
ENDBLK
  5
91
100
AcDbEntity
  8
0
100
AcDbBlockEnd
  0
ENDSEC
  0
SECTION
  2
ENTITIES
  0
LWPOLYLINE
  5
92
  8
Internal Road
100
AcDbEntity
100
AcDbPolyline
  6
CONTINUOUS
420
     0
 90
   363
 70
   129
 43
-1.0
 10
772427.28503527818247676
 20
1416893.92951786005869508
 10
772436.13281764870043844
 20
1416934.2694069726858288
 10
772438.64468806760851294
 20
1416943.15467994660139084
 10
772443.21854166581761092
 20
1416959.95047020888887346
 10
772446.33026173675898463
 20
1416971.72251963405869901
 10
772449.44198180770035833
 20
1416982.59479458048008382
 10
772450.04183145996648818
 20
1416985.06917439610697329
 10
772453.19104213430546224
 20
1417007.4135739419143647
 10
772454.76564747130032629
 20
1417017.57352742669172585
 10
772456.79014004778582603
 20
1417033.88193984678946435
 10
772457.72740512946620584
 20
1417039.84294576593674719
 10
772459.52695408626459539
 20
1417048.24084089742973447
 10
772460.53920037439092994
 20
1417054.98914948524907231
 10
772460.91410640708636492
 20
1417059.52551248017698526
 10
772431.59645465412177145
 20
1417074.10935715003870428
 10
772383.94589790480677038
 20
1417097.69094660319387913
 10
772350.65424220578279346
 20
1417113.84939661039970815
 10
772321.93644010508432984
 20
1417122.43474475783295929
 10
772315.18813151749782264
 20
1417124.90912457345984876
 10
772310.31435309303924441
 20
1417127.45848559541627765
 10
772303.04117605974897742
 20
1417134.43173780268989503
 10
772297.71751039614900947
 20
1417147.02858049958012998
 10
772290.21938974317163229
 20
1417167.57343108858913183
 10
772280.02194565522950143
 20
1417203.93931625550612807
 10
772271.39910690428223461
 20
1417246.45366035727784038
 10
772268.4748398499796167
 20
1417260.10023994510993361
 10
772267.16266873560380191
 20
1417260.17522115097381175
 10
772267.12517813232261688
 20
1417268.76056929840706289
 10
772264.31338288751430809
 20
1417268.91053171153180301
 10
772265.43494303419720381
 20
1417289.40276625636033714
 10
772257.52758369722869247
 20
1417298.84677841980010271
 10
772254.71578845242038369
 20
1417302.44587633316405118
 10
772248.0049704679986462
 20
1417308.66931647527962923
 10
772244.93074100033845752
 20
1417311.4436211169231683
 10
772240.73179343459196389
 20
1417315.75504049239680171
 10
772234.50835329270921648
 20
1417323.21567054162733257
 10
772230.94674598262645304
 20
1417327.03971207467839122
 10
772229.74704667821060866
 20
1417328.20192077592946589
 10
772224.87326825363561511
 20
1417332.1009435155428946
 10
772219.73705560644157231
 20
1417337.16217495617456734
 10
772215.38814562768675387
 20
1417340.8737446793820709
 10
772209.53961151838302612
 20
1417345.82250431017018855
 10
772206.54036325728520751
 20
1417348.97171498439274728
 10
772201.14171638712286949
 20
1417355.72002357221208513
 10
772197.46763726731296629
 20
1417359.6940275183878839
 10
772193.83104875066783279
 20
1417363.85548448073677719
 10
772190.08198842394631356
 20
1417367.2671293776948005
 10
772179.28469468373805285
 20
1417375.06517485668882728
 10
772179.18722795089706779
 20
1417375.13811191846616566
 10
772179.09103553090244532
 20
1417375.21272155130282044
 10
772178.99614612245932221
 20
1417375.28898149589076638
 10
772178.90258803556207567
 20
1417375.36686900048516691
 10
772178.81038918276317418
 20
1417375.4463608271908015
 10
772178.71957707137335092
 20
1417375.52743326034396887
 10
772178.63017879484687001
 20
1417375.61006211210042238
 10
772178.54222102486528456
 20
1417375.69422273035161197
 10
772178.45573000318836421
 20
1417375.77989000640809536
 10
772178.37073153420351446
 20
1417375.86703838128596544
 10
772178.28725097689311951
 20
1417375.95564185478724539
 10
772178.20531323738396168
 20
1417376.04567399271763861
 10
772178.12494276149664074
 20
1417376.1371079336386174
 10
772178.04616352741140872
 20
1417376.22991639911197126
 10
772177.96899903856683522
 20
1417376.32407169998623431
 10
772177.8934723170241341
 20
1417376.41954574501141906
 10
772177.81960589555092156
 20
1417376.51631005038507283
 10
772177.74742181214969605
 20
1417376.6143357465043664
 10
772177.67694160260725766
 20
1417376.71359358774498105
 10
772177.60818629444111139
 20
1417376.81405396084301174
 10
772177.54117640049662441
 20
1417376.91568689397536218
 10
772177.47593191300984472
 20
1417377.0184620653744787
 10
772177.41247229743748903
 20
1417377.12234881217591465
 10
772177.35081648663617671
 20
1417377.22731614043004811
 10
772177.29098287550732493
 20
1417377.33333273325115442
 10
772177.23298931517638266
 20
1417377.4403669610619545
 10
772177.17685310775414109
 20
1417377.54838689090684056
 10
772177.12259100133087486
 20
1417377.65736029483377934
 10
772177.07021918473765254
 20
1417377.76725466153584421
 10
772177.0197532830061391
 20
1417377.87803720403462648
 10
772176.97120835247915238
 20
1417377.98967487108893692
 10
772176.92459887615405023
 20
1417378.10213435580953956
 10
772176.87993876007385552
 20
1417378.21538210636936128
 10
772176.83724132820498198
 20
1417378.32938433578237891
 10
772176.79651931917760521
 20
1417378.4441070316825062
 10
772176.75778488244395703
 20
1417378.55951596726663411
 10
772176.72104957420378923
 20
1417378.67557671037502587
 10
772176.6863243542611599
 20
1417378.79225463490001857
 10
772176.65361958264838904
 20
1417378.90951493056491017
 10
772176.62294501694850624
 20
1417379.02732261270284653
 10
772176.59430980868637562
 20
1417379.14564253436401486
 10
772176.56772250111680478
 20
1417379.2644393949303776
 10
772176.54319102643057704
 20
1417379.38367775152437389
 10
772176.52072270342614502
 20
1417379.50332203041762114
 10
772176.50032423564698547
 20
1417379.62333653587847948
 10
772176.48200170870404691
 20
1417379.74368546181358397
 10
772176.46576058922801167
 20
1417379.86433290271088481
 10
772176.45160572254098952
 20
1417379.98524286411702633
 10
772176.43954133172519505
 20
1417380.10637927264906466
 10
772176.42957101622596383
 20
1417380.22770598763599992
 10
772176.42169775068759918
 20
1417380.34918681182898581
 10
772176.41592388390563428
 20
1417380.47078550211153924
 10
772176.41225113859400153
 20
1417380.59246577951125801
 10
772176.41068061057012528
 20
1417380.71419134153984487
 10
772176.41121276817284524
 20
1417380.83592587150633335
 10
772176.41384745284449309
 20
1417380.95763305039145052
 10
772176.41858387854881585
 20
1417381.07927656755782664
 10
772176.42542063200380653
 20
1417381.20082013099454343
 10
772176.43435567372944206
 20
1417381.32222747849300504
 10
772176.44538633769843727
 20
1417381.44346238858997822
 10
772176.45850933319889009
 20
1417381.56448869127780199
 10
772176.47372074495069683
 20
1417381.68527027918025851
 10
772176.49101603461895138
 20
1417381.80577111709862947
 10
772176.51039004232734442
 20
1417381.92595525411888957
 10
772180.55937519494909793
 20
1417388.37433901568874717
 10
772180.57121483469381928
 20
1417388.39900608081370592
 10
772180.58262568502686918
 20
1417388.4238744075410068
 10
772180.5936043260153383
 20
1417388.44893654249608517
 10
772180.60414746752940118
 20
1417388.47418497502803802
 10
772180.61425194970797747
 20
1417388.49961213790811598
 10
772180.62391474435571581
 20
1417388.52521041082218289
 10
772180.63313295540865511
 20
1417388.55097212176769972
 10
772180.64190382021479309
 20
1417388.57688955054618418
 10
772180.65022471023257822
 20
1417388.60295492899604142
 10
772180.65809313172940165
 20
1417388.62916044611483812
 10
772180.66550672636367381
 20
1417388.65549824759364128
 10
772180.67246327246539295
 20
1417388.68196044024080038
 10
772180.67896068515256047
 20
1417388.70853909337893128
 10
772180.68499701714608818
 20
1417388.7352262414060533
 10
772180.69057045923545957
 20
1417388.76201388612389565
 10
772180.69567934132646769
 20
1417388.78889399953186512
 10
772180.70032213209196925
 20
1417388.81585852568969131
 10
772180.70449744013603777
 20
1417388.84289938327856362
 10
772180.70820401411037892
 20
1417388.8700084681622684
 10
772180.71144074329640716
 20
1417388.89717765571549535
 10
772180.71420665748883039
 20
1417388.92439880361780524
 10
772180.71650092781055719
 20
1417388.9516637537162751
 10
772180.71832286671269685
 20
1417388.97896433435380459
 10
772180.71967192809097469
 20
1417389.00629236409440637
 10
772180.720547707634978
 20
1417389.03363965265452862
 10
772180.72094994294457138
 20
1417389.0609980036970228
 10
772180.72087851341348141
 20
1417389.08835921855643392
 10
772180.72033344046212733
 20
1417389.11571509670466185
 10
772180.71931488753762096
 20
1417389.14305743970908225
 10
772180.71782315976452082
 20
1417389.17037805309519172
 10
772180.71585870417766273
 20
1417389.19766874914057553
 10
772180.7134221097221598
 20
1417389.22492134873755276
 10
772180.71051410643849522
 20
1417389.25212768418714404
 10
772180.7071355659281835
 20
1417389.27927960199303925
 10
772180.70328750077169389
 20
1417389.30636896449141204
 10
772180.6989710641792044
 20
1417389.33338765357621014
 10
772180.69418754987418652
 20
1417389.36032757116481662
 10
772180.68893839127849787
 20
1417389.38718064362183213
 10
772180.68322516174521297
 20
1417389.41393882338888943
 10
772180.67704957339446992
 20
1417389.4405940908472985
 10
772180.67041347711347044
 20
1417389.46713845757767558
 10
772180.66331886174157262
 20
1417389.49356396798975766
 10
772180.65576785348821431
 20
1417389.51986270281486213
 10
772180.64776271535083652
 20
1417389.54602678003720939
 10
772180.63930584641639143
 20
1417389.57204835838638246
 10
772180.6303997813956812
 20
1417389.5979196394328028
 10
772180.62104718922637403
 20
1417389.62363286921754479
 10
772180.61125087295658886
 20
1417389.64918034197762609
 10
772180.60101376846432686
 20
1417389.67455440084449947
 10
772180.59033894387539476
 20
1417389.69974744133651257
 10
772180.57922959828283638
 20
1417389.72475191345438361
 10
772180.56768906128127128
 20
1417389.74956032284535468
 10
772180.55572079145349562
 20
1417389.7741652347613126
 10
772180.54332837578840554
 20
1417389.79855927522294223
 10
772180.53051552816759795
 20
1417389.82273513311520219
 10
772180.51728608866687864
 20
1417389.84668556321412325
 10
772180.50364402204286307
 20
1417389.87040338758379221
 10
772180.4895934168016538
 20
1417389.89388149790465832
 10
772180.47513848391827196
 20
1417389.91711285803467035
 10
772180.46028355543967336
 20
1417389.94009050540626049
 10
772180.44503308355342597
 20
1417389.96280755358748138
 10
772180.42939163872506469
 20
1417389.98525719437748194
 10
772180.41336390853393823
 20
1417390.00743269990198314
 10
772180.39695469662547112
 20
1417390.02932742377743125
 10
772180.38016892061568797
 20
1417390.05093480437062681
 10
772180.36301161150913686
 20
1417390.07224836619570851
 10
772180.34548791102133691
 20
1417390.09326172131113708
 10
772180.32760307099670172
 20
1417390.1139685723464936
 10
772180.30936245166230947
 20
1417390.13436271320097148
 10
772180.29077151964884251
 20
1417390.15443803183734417
 10
772180.27183584659360349
 20
1417390.174188511678949
 10
772180.25256110751070082
 20
1417390.193608233705163
 10
772180.23295307892840356
 20
1417390.21269137784838676
 10
772180.21301763749215752
 20
1417390.23143222485668957
 10
772180.19276075763627887
 20
1417390.24982515815645456
 10
772180.17218851041980088
 20
1417390.26786466548219323
 10
772180.15130706131458282
 20
1417390.28554534004069865
 10
772180.13012266845908016
 20
1417390.30286188330501318
 10
772180.10864168079569936
 20
1417390.31980910571292043
 10
772180.08687053609173745
 20
1417390.33638192783109844
 10
772180.06481575919315219
 20
1417390.35257538291625679
 10
772180.04248395981267095
 20
1417390.36838461784645915
 10
772180.01988183078356087
 20
1417390.38380489451810718
 10
772179.99701614596415311
 20
1417390.39883159194141626
 10
772177.82256115658674389
 20
1417390.28635978209786117
 10
772153.26621601812075824
 20
1417400.85870990273542702
 10
772147.30521009920630604
 20
1417402.32084343023598194
 10
772151.1667422354221344
 20
1417419.11663369298912585
 10
772155.14074618136510253
 20
1417438.53676618402823806
 10
772160.2394682252779603
 20
1417462.19333684374578297
 10
772161.22973694186657667
 20
1417467.6575712829362601
 10
772166.65054053859785199
 20
1417467.2192935454659164
 10
772162.52639502461533993
 20
1417448.50926665239967406
 10
772158.47740987199358642
 20
1417431.56351397652179003
 10
772155.8905582467559725
 20
1417417.99191559455357492
 10
772154.31595290964469314
 20
1417408.05690572923049331
 10
772154.1284998933551833
 20
1417406.89469702797941864
 10
772154.46591532265301794
 20
1417406.03241315297782421
 10
772157.39018237730488181
 20
1417404.45780781586654484
 10
772185.54562542913481593
 20
1417391.82347451546229422
 10
772186.07049387483857572
 20
1417391.33609667303971946
 10
772185.84555025526788086
 20
1417390.39883159147575498
 10
772180.44690338510554284
 20
1417378.88921638927422464
 10
772180.6718470046762377
 20
1417378.40183854685164988
 10
772184.49588853772729635
 20
1417375.4400808890350163
 10
772191.28168772847857326
 20
1417369.704018589342013
 10
772193.86853935371618718
 20
1417367.07967636082321405
 10
772203.31617137650027871
 20
1417356.16991081088781357
 10
772212.65133158944081515
 20
1417345.67254189681261778
 10
772221.98649180238135159
 20
1417337.98696822766214609
 10
772229.97199029778130352
 20
1417331.0137160203885287
 10
772235.0707123416941613
 20
1417326.02746578631922603
 10
772245.08070341346319765
 20
1417314.33039756794460118
 10
772246.99272417987231165
 20
1417312.53084861114621162
 10
772249.2046697725309059
 20
1417310.69380905129946768
 10
772255.42810991429723799
 20
1417304.99523735512048006
 10
772257.56507430039346218
 20
1417302.97074477886781096
 10
772265.66426416859030724
 20
1417293.59273545769974589
 10
772266.52532848005648702
 20
1417309.32540203095413744
 10
772268.24989623017609119
 20
1417344.04170065419748425
 10
772269.44959553447552025
 20
1417363.27438012906350195
 10
772276.68528196460101753
 20
1417362.22464323765598238
 10
772274.92322361120022833
 20
1417332.94448208808898926
 10
772274.36086456221528351
 20
1417304.90151084610261023
 10
772274.09843033936340362
 20
1417284.99400051240809262
 10
772274.62329878506716341
 20
1417265.76132103754207492
 10
772275.56056386674754322
 20
1417256.91353866714052856
 10
772276.38535713846795261
 20
1417251.5898730035405606
 10
772280.62179530737921596
 20
1417229.80783250671811402
 10
772283.58355296531226486
 20
1417215.0365348206833005
 10
772284.93321468285284936
 20
1417207.42594235786236823
 10
772285.72051735140848905
 20
1417204.50167530309408903
 10
772291.56905146071221679
 20
1417185.7188830676022917
 10
772299.85447478224523365
 20
1417160.03781983139924705
 10
772301.46657072275411338
 20
1417155.46396623319014907
 10
772309.03967258217744529
 20
1417137.69342028582468629
 10
772311.06416515843011439
 20
1417134.76915323128923774
 10
772315.41307513718493283
 20
1417131.24503652425482869
 10
772322.91119579027872533
 20
1417128.32076946971938014
 10
772340.944175960496068
 20
1417123.59695345838554204
 10
772362.16385740833356977
 20
1417115.72392677259631455
 10
772381.65897110593505204
 20
1417106.08884173375554383
 10
772413.41351207112893462
 20
1417090.11784474295563996
 10
772431.24539272638503462
 20
1417081.23839530348777771
 10
772431.54021875036414713
 20
1417081.21382646821439266
 10
772432.36501202220097184
 20
1417081.21382646821439266
 10
772433.508475421811454
 20
1417081.62622310407459736
 10
772434.464485805016011
 20
1417082.43227107427082956
 10
772434.93311834579799324
 20
1417083.35079085431061685
 10
772435.30802437849342823
 20
1417084.85041498485952616
 10
772435.98285523720551282
 20
1417089.48050448787398636
 10
772437.63244178099557757
 20
1417095.89139764639548957
 10
772439.00084880017675459
 20
1417099.22806133702397346
 10
772440.16305750131141394
 20
1417101.79616766050457954
 10
772442.95610744447913021
 20
1417112.01235704985447228
 10
772445.69292148284148425
 20
1417123.87813298334367573
 10
772447.60494224925059825
 20
1417134.90037034312263131
 10
772448.7671509503852576
 20
1417142.51096280594356358
 10
772451.80388981476426125
 20
1417158.55694100330583751
 10
772454.3157602334395051
 20
1417164.55543752550147474
 10
772456.67766823910642415
 20
1417170.89134947722777724
 10
772461.02657821786124259
 20
1417190.98631282732822001
 10
772464.36324190825689584
 20
1417211.38120100344531238
 10
772466.53769689763430506
 20
1417221.91606052103452384
 10
772469.6869075718568638
 20
1417237.9245481148827821
 10
772471.67390954494476318
 20
1417243.54813860449939966
 10
772473.99832694733049721
 20
1417248.72184185497462749
 10
772477.14753762155305594
 20
1417254.12048872513696551
 10
772478.68465235538315028
 20
1417256.40741552459076047
 10
772480.5966731219086796
 20
1417259.89404162811115384
 10
772482.92109052429441363
 20
1417264.13047979702241719
 10
772484.83311129093635827
 20
1417268.14197434601373971
 10
772486.40771662793122232
 20
1417272.15346889523789287
 10
772488.01981256832368672
 20
1417276.76481309696100652
 10
772489.25700247602071613
 20
1417281.63859152118675411
 10
772489.85685212817043066
 20
1417285.31267064134590328
 10
772490.68164540000725538
 20
1417291.34865776705555618
 10
772491.20651384571101516
 20
1417294.57284964784048498
 10
772492.21876013383734971
 20
1417298.0594757511280477
 10
772492.89359099266584963
 20
1417299.82153410464525223
 10
772494.0557996939169243
 20
1417301.62108306144364178
 10
772495.59291442774701864
 20
1417303.08321658871136606
 10
772496.86759493872523308
 20
1417304.09546287683770061
 10
772499.71688078681472689
 20
1417305.8200306270737201
 10
772500.20464888552669436
 20
1417306.06603004969656467
 10
772502.3399990398902446
 20
1417301.24563482915982604
 10
772501.10403310763649642
 20
1417301.77104547433555126
 10
772500.46669285208918154
 20
1417301.80853607761673629
 10
772499.49193716724403203
 20
1417301.3961394417565316
 10
772498.14227544970344752
 20
1417300.38389315363019705
 10
772496.19276407989673316
 20
1417298.39689118065871298
 10
772495.25549899821635336
 20
1417296.74730463698506355
 10
772494.39321512321475893
 20
1417294.76030266401357949
 10
772493.68089366110507399
 20
1417287.7870504567399621
 10
772492.33123194368090481
 20
1417280.85128885274752975
 10
772491.91883530770428479
 20
1417278.63934326032176614
 10
772491.16902324242983013
 20
1417276.08998223836533725
 10
772489.21951187262311578
 20
1417270.50388235179707408
 10
772486.59516964410431683
 20
1417264.28044220991432667
 10
772483.70839319285005331
 20
1417258.50688930717296898
 10
772480.8591073447605595
 20
1417253.0332612304482609
 10
772478.00982149655465037
 20
1417247.70959556684829295
 10
772476.32274434971623123
 20
1417244.3729318764526397
 10
772474.14828936033882201
 20
1417240.69885275629349053
 10
772473.21102427877485752
 20
1417238.29945414746180177
 10
772471.1865317024057731
 20
1417229.60163418995216489
 10
772469.42447334888856858
 20
1417221.39119207509793341
 10
772467.92484921833965927
 20
1417215.35520494938828051
 10
772466.91260293021332473
 20
1417210.18150169891305268
 10
772466.2002814682200551
 20
1417199.30922675202600658
 10
772465.26301638677250594
 20
1417192.74837118084542453
 10
772463.38848622352816164
 20
1417184.01306062005460262
 10
772461.66391847329214215
 20
1417176.77737419004552066
 10
772460.68916278833057731
 20
1417172.80337024410255253
 10
772458.92710443481337279
 20
1417167.29225156409665942
 10
772457.0525742715690285
 20
1417161.96858590049669147
 10
772455.2905159181682393
 20
1417156.98233566642738879
 10
772454.57819445617496967
 20
1417153.79563438892364502
 10
772450.86662473296746612
 20
1417130.25153553858399391
 10
772449.25452879257500172
 20
1417122.3035276469308883
 10
772445.91786510206293315
 20
1417106.44500246574170887
 10
772445.0555812269449234
 20
1417103.70818842737935483
 10
772443.36850408010650426
 20
1417100.5589777531567961
 10
772441.8313893461599946
 20
1417097.6347106983885169
 10
772440.40674642217345536
 20
1417093.28580071986652911
 10
772439.05708470440004021
 20
1417089.31179677392356098
 10
772438.94461289467290044
 20
1417087.28730419767089188
 10
772438.83214108482934535
 20
1417081.43877008836716413
 10
772439.20704711752478033
 20
1417079.00188087625429034
 10
772439.5819531501038
 20
1417077.57723795203492045
 10
772439.94250857189763337
 20
1417076.90763502568006516
 10
772440.89412426436319947
 20
1417076.4337745513767004
 10
772468.41222706052940339
 20
1417063.87442245776765049
 10
772465.67541302228346467
 20
1417040.1803611945360899
 10
772462.45122114161495119
 20
1417018.69824552373029292
 10
772458.47721719555556774
 20
1416995.15414667362347245
 10
772456.34025280945934355
 20
1416983.86947509087622166
 10
772452.92860791238490492
 20
1416968.53581835608929396
 10
772448.31726371101103723
 20
1416950.46534758247435093
 10
772443.96835373225621879
 20
1416931.34513991745188832
 10
772438.56970686209388077
 20
1416907.76355046383105218
 10
772434.23026872891932726
 20
1416881.25441650673747063
 10
772431.58443539566360414
 20
1416862.31024983990937471
 10
772431.16110206220764667
 20
1416844.6360831733327359
 10
772432.49471796443685889
 20
1416809.77564966236241162
 10
772425.01377787452656776
 20
1416806.8767853775061667
 10
772423.75276872888207436
 20
1416846.43524983967654407
 10
772423.32943539554253221
 20
1416865.80274983984418213
 10
772425.86943539557978511
 20
1416886.01691650645807385
 10
772427.28503527818247676
 20
1416893.92951786005869508
  0
LWPOLYLINE
  5
93
  8
Building
100
AcDbEntity
100
AcDbPolyline
  6
CONTINUOUS
420
     0
 90
     7
 70
   129
 43
-1.0
 10
772415.86132912756875157
 20
1417202.23933018557727337
 10
772429.01084656221792102
 20
1417199.53898285538889468
 10
772424.66680955258198082
 20
1417178.99286186369135976
 10
772418.26816044375300407
 20
1417180.22562912316061556
 10
772417.44631560414563864
 20
1417175.99899851926602423
 10
772410.34322806133423001
 20
1417177.52528179297223687
 10
772415.86132912756875157
 20
1417202.23933018557727337
  0
LWPOLYLINE
  5
94
  8
Building
100
AcDbEntity
100
AcDbPolyline
  6
CONTINUOUS
420
     0
 90
     9
 70
   129
 43
-1.0
 10
772409.11046080174855888
 20
1417175.38261488964781165
 10
772410.4899860683362931
 20
1417175.08909887541085482
 10
772410.37257966271135956
 20
1417174.70752805704250932
 10
772414.74596827372442931
 20
1417173.47476079757325351
 10
772413.10227859439328313
 20
1417167.07611168874427676
 10
772408.61148357763886452
 20
1417168.27952734683640301
 10
772409.69749283010605723
 20
1417172.59421275509521365
 10
772408.58213197626173496
 20
1417173.03448677621781826
 10
772409.11046080174855888
 20
1417175.38261488964781165
  0
LWPOLYLINE
  5
95
  8
Building
100
AcDbEntity
100
AcDbPolyline
  6
CONTINUOUS
420
     0
 90
     7
 70
   129
 43
-1.0
 10
772439.60677467368077487
 20
1417203.17858143104240298
 10
772446.15218178962823004
 20
1417201.94581417157314718
 10
772445.68255616689566523
 20
1417200.00860847788862884
 10
772444.77265652304049581
 20
1417200.00860847788862884
 10
772444.18562449468299747
 20
1417196.4864163079764694
 10
772438.31530421134084463
 20
1417197.66048036469146609
 10
772439.60677467368077487
 20
1417203.17858143104240298
  0
LWPOLYLINE
  5
96
  8
Building
100
AcDbEntity
100
AcDbPolyline
  6
CONTINUOUS
420
     0
 90
     5
 70
   129
 43
-1.0
 10
772436.61291132937185466
 20
1417187.59288107859902084
 10
772442.04295759147498757
 20
1417186.38946542050689459
 10
772441.13305794750340283
 20
1417181.10617716540582478
 10
772435.40949567127972841
 20
1417182.485702431993559
 10
772436.61291132937185466
 20
1417187.59288107859902084
  0
LWPOLYLINE
  5
97
  8
Building
100
AcDbEntity
100
AcDbPolyline
  6
CONTINUOUS
420
     0
 90
     7
 70
   129
 43
-1.0
 10
772247.26573059160728008
 20
1417381.13734081899747252
 10
772256.68759464635513723
 20
1417378.34893868444487453
 10
772256.18861742224544287
 20
1417376.03016217262484133
 10
772254.6916857500327751
 20
1417376.44108459237031639
 10
772253.16540247632656246
 20
1417371.62742196000181139
 10
772245.00565728254150599
 20
1417374.23971448605880141
 10
772247.26573059160728008
 20
1417381.13734081899747252
  0
LWPOLYLINE
  5
98
  8
Building
100
AcDbEntity
100
AcDbPolyline
  6
CONTINUOUS
420
     0
 90
     5
 70
   129
 43
-1.0
 10
772271.24598894896917045
 20
1417369.33799704955890775
 10
772276.82279321807436645
 20
1417368.63355861557647586
 10
772276.17705798696260899
 20
1417364.34822480869479477
 10
772270.71766012348234653
 20
1417365.14071804704144597
 10
772271.24598894896917045
 20
1417369.33799704955890775
  0
LWPOLYLINE
  5
99
  8
Building
100
AcDbEntity
100
AcDbPolyline
  6
CONTINUOUS
420
     0
 90
    19
 70
   129
 43
-1.0
 10
772274.04906688455957919
 20
1417396.03327853861264884
 10
772278.42245549557264894
 20
1417394.15477604791522026
 10
772276.48524980212096125
 20
1417389.75203583529219031
 10
772277.71801706159021705
 20
1417389.13565220567397773
 10
772277.21903983748052269
 20
1417387.87353334482759237
 10
772281.68048325285781175
 20
1417385.90697604976594448
 10
772280.21290318202227354
 20
1417382.14997106860391796
 10
772281.56307684711646289
 20
1417381.50423583737574518
 10
772280.30095798627007753
 20
1417378.71583370282314718
 10
772273.4913864575792104
 20
1417381.6216422428842634
 10
772273.84360567457042634
 20
1417382.82505790097638965
 10
772271.23131314851343632
 20
1417383.91106715355999768
 10
772271.8770483797416091
 20
1417385.31994402152486145
 10
772271.58353236550465226
 20
1417385.46670202864333987
 10
772272.43472880660556257
 20
1417387.55066572921350598
 10
772269.70502987480722368
 20
1417388.81278459005989134
 10
772271.17260994564276189
 20
1417392.04146074596792459
 10
772272.28797079948708415
 20
1417391.71859313035383821
 10
772274.04906688455957919
 20
1417396.03327853861264884
  0
LWPOLYLINE
  5
9a
  8
Building
100
AcDbEntity
100
AcDbPolyline
  6
CONTINUOUS
420
     0
 90
     5
 70
   129
 43
-1.0
 10
772260.5473302329191938
 20
1417268.41251557972282171
 10
772266.38829891488421708
 20
1417267.82548355124890804
 10
772265.80126688652671874
 20
1417260.95720881992019713
 10
772259.87224340031389147
 20
1417261.77905365964397788
 10
772260.5473302329191938
 20
1417268.41251557972282171
  0
LWPOLYLINE
  5
9b
  8
Building
100
AcDbEntity
100
AcDbPolyline
  6
CONTINUOUS
420
     0
 90
     5
 70
   129
 43
-1.0
 10
772135.56821140157990158
 20
1417308.9324013355653733
 10
772140.92487866012379527
 20
1417307.81704048160463572
 10
772139.9562758132815361
 20
1417303.06208105222322047
 10
772134.52622955129481852
 20
1417304.30952411238104105
 10
772135.56821140157990158
 20
1417308.9324013355653733
  0
LWPOLYLINE
  5
9c
  8
Building
100
AcDbEntity
100
AcDbPolyline
  6
CONTINUOUS
420
     0
 90
     5
 70
   129
 43
-1.0
 10
772346.78233519522473216
 20
1417164.58122556889429688
 10
772348.24991526606027037
 20
1417164.44914336269721389
 10
772347.6775590383913368
 20
1417158.71090528555214405
 10
772346.07789676124230027
 20
1417158.91636649565771222
 10
772346.78233519522473216
 20
1417164.58122556889429688
  0
LWPOLYLINE
  5
9d
  8
Building
100
AcDbEntity
100
AcDbPolyline
  6
CONTINUOUS
420
     0
 90
     5
 70
   129
 43
-1.0
 10
772239.91315443778876215
 20
1417148.61395439878106117
 10
772253.18007827806286514
 20
1417146.4419358940795064
 10
772250.94935657049063593
 20
1417130.12244550627656281
 10
772237.38891671597957611
 20
1417132.23576080845668912
 10
772239.91315443778876215
 20
1417148.61395439878106117
  0
LWPOLYLINE
  5
9e
  8
Building
100
AcDbEntity
100
AcDbPolyline
  6
CONTINUOUS
420
     0
 90
     5
 70
   129
 43
-1.0
 10
772261.57463628321420401
 20
1417144.79824621463194489
 10
772277.07228183117695153
 20
1417143.15455653541721404
 10
772276.36784339719451964
 20
1417130.41596152051351964
 10
772260.16575941524934024
 20
1417131.59002557722851634
 10
772261.57463628321420401
 20
1417144.79824621463194489
  0
LWPOLYLINE
  5
9f
  8
Building
100
AcDbEntity
100
AcDbPolyline
  6
CONTINUOUS
420
     0
 90
     7
 70
   129
 43
-1.0
 10
772457.32046613015700132
 20
1417152.13614656892605126
 10
772463.95392805023584515
 20
1417151.16754372208379209
 10
772463.19078641338273883
 20
1417144.79824621463194489
 10
772476.36965544940903783
 20
1417142.50882130418904126
 10
772475.37170100130606443
 20
1417134.26102130627259612
 10
772455.35390883521176875
 20
1417137.31358785345219076
 10
772457.32046613015700132
 20
1417152.13614656892605126
  0
LWPOLYLINE
  5
a0
  8
Building
100
AcDbEntity
100
AcDbPolyline
  6
CONTINUOUS
420
     0
 90
     5
 70
   129
 43
-1.0
 10
772455.41261203808244318
 20
1417136.22757860133424401
 10
772470.20581915194634348
 20
1417134.23166970489546657
 10
772468.94370029109995812
 20
1417124.83915725164115429
 10
772454.03308677149470896
 20
1417126.86441774945706129
 10
772455.41261203808244318
 20
1417136.22757860133424401
  0
LWPOLYLINE
  5
a1
  8
Building
100
AcDbEntity
100
AcDbPolyline
  6
CONTINUOUS
420
     0
 90
     7
 70
   129
 43
-1.0
 10
772451.74366186093539
 20
1417114.41933874902315438
 10
772459.7272974462248385
 20
1417113.68554871366359293
 10
772459.69794584484770894
 20
1417112.57018785970285535
 10
772467.82833943713922054
 20
1417111.86574942572042346
 10
772466.06724335218314081
 20
1417097.33670672448351979
 10
772449.9532141744857654
 20
1417099.24456081655807793
 10
772451.74366186093539
 20
1417114.41933874902315438
  0
LWPOLYLINE
  5
a2
  8
Building
100
AcDbEntity
100
AcDbPolyline
  6
CONTINUOUS
420
     0
 90
     9
 70
   129
 43
-1.0
 10
772452.65356150479055941
 20
1417097.71827754308469594
 10
772462.01672235666774213
 20
1417096.6322682905010879
 10
772460.60784548870287836
 20
1417085.68412096216343343
 10
772450.54024620284326375
 20
1417087.09299783012829721
 10
772451.09792662970721722
 20
1417091.46638644114136696
 10
772449.65969816036522388
 20
1417091.70119925262406468
 10
772450.1880269858520478
 20
1417094.87117220554500818
 10
772452.00782627367880195
 20
1417094.78311740141361952
 10
772452.65356150479055941
 20
1417097.71827754308469594
  0
LWPOLYLINE
  5
a3
  8
Building
100
AcDbEntity
100
AcDbPolyline
  6
CONTINUOUS
420
     0
 90
     5
 70
   129
 43
-1.0
 10
772449.09296532068401575
 20
1417422.81891065975651145
 10
772461.03001217148266733
 20
1417431.60277532343752682
 10
772466.62851931981276721
 20
1417423.75199518445879221
 10
772454.14449188555590808
 20
1417415.54728643270209432
 10
772449.09296532068401575
 20
1417422.81891065975651145
  0
LWPOLYLINE
  5
a4
  8
Building
100
AcDbEntity
100
AcDbPolyline
  6
CONTINUOUS
420
     0
 90
     5
 70
   129
 43
-1.0
 10
772460.00040166161488742
 20
1417416.76994891325011849
 10
772465.47020749619696289
 20
1417420.18053372786380351
 10
772470.45738340413663536
 20
1417411.71842234837822616
 10
772464.89105158427264541
 20
1417408.27566220541484654
 10
772460.00040166161488742
 20
1417416.76994891325011849
  0
LWPOLYLINE
  5
a5
  8
Building
100
AcDbEntity
100
AcDbPolyline
  6
CONTINUOUS
420
     0
 90
     5
 70
   129
 43
-1.0
 10
772468.26946107088588178
 20
1417392.89585521211847663
 10
772475.89501391083467752
 20
1417397.91520644864067435
 10
772481.17176777485292405
 20
1417389.93572499579750001
 10
772473.51403960643801838
 20
1417384.98072441620752215
 10
772468.26946107088588178
 20
1417392.89585521211847663
  0
LWPOLYLINE
  5
a6
  8
Building
100
AcDbEntity
100
AcDbPolyline
  6
CONTINUOUS
420
     0
 90
     9
 70
   129
 43
-1.0
 10
772471.96962384146172553
 20
1417380.92663303320296109
 10
772480.23868325015064329
 20
1417385.81728295586071908
 10
772479.69170266669243574
 20
1417386.46078952471725643
 10
772486.19111901137512177
 20
1417390.41835492267273366
 10
772492.17573010094929487
 20
1417381.34491230291314423
 10
772489.8912817818345502
 20
1417379.83267186628654599
 10
772492.72271068429108709
 20
1417375.71422982611693442
 10
772479.59517668129410595
 20
1417367.28429377521388233
 10
772471.96962384146172553
 20
1417380.92663303320296109
  0
LWPOLYLINE
  5
a7
  8
Building
100
AcDbEntity
100
AcDbPolyline
  6
CONTINUOUS
420
     0
 90
     9
 70
   129
 43
-1.0
 10
772479.91692996572237462
 20
1417366.60861187777481973
 10
772491.08176893403287977
 20
1417373.94458676199428737
 10
772496.64810075389686972
 20
1417367.05906647606752813
 10
772491.50004820374306291
 20
1417362.4901698378380388
 10
772491.01741827710065991
 20
1417363.00497509283013642
 10
772486.35199565347284079
 20
1417359.85179290571250021
 10
772482.16920295648742467
 20
1417365.48247538250871003
 10
772481.30046908860094845
 20
1417364.90331947058439255
 10
772479.91692996572237462
 20
1417366.60861187777481973
  0
LWPOLYLINE
  5
a8
  8
Building
100
AcDbEntity
100
AcDbPolyline
  6
CONTINUOUS
420
     0
 90
     5
 70
   129
 43
-1.0
 10
772485.5476124428678304
 20
1417357.43864327296614647
 10
772496.8089773963438347
 20
1417363.32672837725840509
 10
772499.4795296568190679
 20
1417358.46825378318317235
 10
772488.1216387179447338
 20
1417352.48364269337616861
 10
772485.5476124428678304
 20
1417357.43864327296614647
  0
LWPOLYLINE
  5
a9
  8
Building
100
AcDbEntity
100
AcDbPolyline
  6
CONTINUOUS
420
     0
 90
     5
 70
   129
 43
-1.0
 10
772489.05472324276342988
 20
1417351.26098021329380572
 10
772495.45761360204778612
 20
1417354.34981174324639142
 10
772498.51426980376709253
 20
1417348.26867466839030385
 10
772491.91832747380249202
 20
1417345.27636912371963263
 10
772489.05472324276342988
 20
1417351.26098021329380572
  0
LWPOLYLINE
  5
aa
  8
Building
100
AcDbEntity
100
AcDbPolyline
  6
CONTINUOUS
420
     0
 90
     5
 70
   129
 43
-1.0
 10
772492.56183404254261404
 20
1417343.796304015442729
 10
772496.39069812675006688
 20
1417345.1476678098551929
 10
772497.77423724962864071
 20
1417341.22227774048224092
 10
772493.88102250848896801
 20
1417339.93526460276916623
 10
772492.56183404254261404
 20
1417343.796304015442729
  0
LWPOLYLINE
  5
ab
  8
Building
100
AcDbEntity
100
AcDbPolyline
  6
CONTINUOUS
420
     0
 90
     5
 70
   129
 43
-1.0
 10
772499.70475695584900677
 20
1417330.82964665465988219
 10
772506.01112132985144854
 20
1417332.40623774798586965
 10
772507.78076439397409558
 20
1417325.48854213370941579
 10
772501.21699739247560501
 20
1417323.751074398169294
 10
772499.70475695584900677
 20
1417330.82964665465988219
  0
LWPOLYLINE
  5
ac
  8
Building
100
AcDbEntity
100
AcDbPolyline
  6
CONTINUOUS
420
     0
 90
     5
 70
   129
 43
-1.0
 10
772506.39722527109552175
 20
1417324.00847702543251216
 10
772516.14634978806134313
 20
1417325.32766549149528146
 10
772517.17596029804553837
 20
1417318.40996987698599696
 10
772507.36248512426391244
 20
1417317.31600871006958187
 10
772506.39722527109552175
 20
1417324.00847702543251216
  0
LWPOLYLINE
  5
ad
  8
Tittahalli Kaggalipura Road
100
AcDbEntity
100
AcDbPolyline
  6
CONTINUOUS
420
     0
 90
    75
 70
   129
 43
-1.0
 10
772522.60512362001463771
 20
1417283.28174494509585202
 10
772520.27260884025599808
 20
1417268.5627723706420511
 10
772513.11420141346752644
 20
1417279.50146237132139504
 10
772507.16226714826188982
 20
1417290.35972082801163197
 10
772496.18155849201139063
 20
1417312.84363805432803929
 10
772486.46460930339526385
 20
1417332.40623774565756321
 10
772479.38603704678826034
 20
1417347.59299276862293482
 10
772470.31259442691225559
 20
1417366.57643654709681869
 10
772466.38720435730647296
 20
1417373.71935946098528802
 10
772461.81830771872773767
 20
1417381.24838631600141525
 10
772456.37452077132184058
 20
1417390.46830269531346858
 10
772449.65603356889914721
 20
1417399.26657024165615439
 10
772437.61386309331282973
 20
1417412.90870351972989738
 10
772434.56751835765317082
 20
1417415.35181167395785451
 10
772429.86227302358020097
 20
1417418.00605263165198267
 10
772420.90420979156624526
 20
1417421.92709040991030633
 10
772398.34316165128257126
 20
1417429.67868047952651978
 10
772374.4549930322682485
 20
1417437.09849042957648635
 10
772359.80642890371382236
 20
1417442.38151034968905151
 10
772345.16785701061598957
 20
1417448.49966181581839919
 10
772332.32869841693900526
 20
1417452.61326479306444526
 10
772319.89293397357687354
 20
1417455.24359788885340095
 10
772313.71527091332245618
 20
1417455.75840314384549856
 10
772303.99832172482274473
 20
1417456.33755905576981604
 10
772287.73973447177559137
 20
1417456.82432663813233376
 10
772255.28487446857616305
 20
1417458.78288401733152568
 10
772218.12237012188415974
 20
1417462.16129350336268544
 10
772178.41801482834853232
 20
1417465.60405364632606506
 10
772169.50544885057024658
 20
1417466.02233291603624821
 10
772152.38817412115167826
 20
1417466.95541744073852897
 10
772128.67495706188492477
 20
1417467.72762532345950603
 10
772108.27579883160069585
 20
1417467.30934605374932289
 10
772091.76985534257255495
 20
1417468.59635919122956693
 10
772080.0580357905710116
 20
1417470.84863218199461699
 10
772055.50826019188389182
 20
1417476.28626268822699785
 10
772058.20821529079694301
 20
1417485.71935888193547726
 10
772077.75308052462060004
 20
1417481.79832110344432294
 10
772085.47450876527000219
 20
1417480.04893501778133214
 10
772095.60888333094771951
 20
1417478.54084356455132365
 10
772104.8384030245942995
 20
1417477.51534137642011046
 10
772109.06409437989350408
 20
1417477.10673356312327087
 10
772119.07062152435537428
 20
1417476.49540232284925878
 10
772138.24711727374233305
 20
1417476.88150626351125538
 10
772157.05359674640931189
 20
1417476.62410363648086786
 10
772180.38070986443199217
 20
1417475.94842173927463591
 10
772196.42011109099257737
 20
1417474.05007736128754914
 10
772223.18998435197863728
 20
1417472.05520699801854789
 10
772238.63414200278930366
 20
1417470.22121327766217291
 10
772253.53131906967610121
 20
1417468.74114817008376122
 10
772279.01417919294908643
 20
1417467.35760904755443335
 10
772297.90109698683954775
 20
1417466.39234919403679669
 10
772312.54087142657954246
 20
1417465.33056335593573749
 10
772322.9656778407515958
 20
1417464.39747883123345673
 10
772327.53457447898108512
 20
1417463.81832291930913925
 10
772331.62084119080100209
 20
1417462.9174137229565531
 10
772335.28882863279432058
 20
1417461.85562788462266326
 10
772341.46649169293232262
 20
1417459.50682890857569873
 10
772371.80782641121186316
 20
1417447.79500935669057071
 10
772390.50169223384000361
 20
1417441.68169695348478854
 10
772410.82041214348282665
 20
1417434.72378217964433134
 10
772428.22726482874713838
 20
1417428.25654116366058588
 10
772432.28135621210094541
 20
1417426.35819678590632975
 10
772437.87986336031462997
 20
1417423.04413795634172857
 10
772440.2608376651769504
 20
1417421.27449489198625088
 10
772442.32005868514534086
 20
1417419.02222190145403147
 10
772450.49259210866875947
 20
1417410.04530526697635651
 10
772456.21980057063046843
 20
1417403.64241490769200027
 10
772460.5634699099464342
 20
1417398.39783637202344835
 10
772465.42194450425449759
 20
1417391.67319272854365408
 10
772482.28353193786460906
 20
1417361.21132850367575884
 10
772490.96915528504177928
 20
1417343.08844678662717342
 10
772497.40422097279224545
 20
1417329.70351015590131283
 10
772515.6075792812043801
 20
1417294.46172957820817828
 10
772521.31821891397703439
 20
1417285.45339663652703166
 10
772522.60512362001463771
 20
1417283.28174494509585202
  0
LWPOLYLINE
  5
ae
  8
Kanakpura Main Road
100
AcDbEntity
100
AcDbPolyline
  6
CONTINUOUS
420
     0
 90
   134
 70
   129
 43
-1.0
 10
772529.66299161640927196
 20
1416893.85231618932448328
 10
772532.31723257247358561
 20
1416941.95037957443855703
 10
772532.55852720502298325
 20
1416965.99941126722842455
 10
772532.07593794027343392
 20
1416979.35104759153909981
 10
772531.03032786655239761
 20
1417012.24754913756623864
 10
772527.50639450433664024
 20
1417083.57309869350865483
 10
772524.21375450224149972
 20
1417156.03904214198701084
 10
772523.41797400906216353
 20
1417176.6856919270940125
 10
772522.11487320752348751
 20
1417199.35321081150323153
 10
772521.53571729559917003
 20
1417204.53343869023956358
 10
772521.05308736918959767
 20
1417207.97619883343577385
 10
772520.57850127480924129
 20
1417211.49135346570983529
 10
772520.28892331884708256
 20
1417217.1220359425060451
 10
772519.96353623841423541
 20
1417226.82181568001396954
 10
772519.81595857650972903
 20
1417250.68020432651974261
 10
772520.27260884025599808
 20
1417268.5627723706420511
 10
772522.60512362001463771
 20
1417283.28174494509585202
 10
772525.52229483006522059
 20
1417301.44691995973698795
 10
772526.86877798393834382
 20
1417311.39574826695024967
 10
772528.05926513625308871
 20
1417322.28709694347344339
 10
772529.49049417895730585
 20
1417328.09288666234351695
 10
772530.29397255950607359
 20
1417332.65139665780588984
 10
772531.74334024218842387
 20
1417352.78930830326862633
 10
772532.69251243129838258
 20
1417364.59765384020283818
 10
772533.32797516789287329
 20
1417370.55008960096165538
 10
772534.98500458244234324
 20
1417383.72588659659959376
 10
772537.30162822979036719
 20
1417392.87976753734983504
 10
772541.29136895597912371
 20
1417406.73124643042683601
 10
772544.40207207726780325
 20
1417414.38516186666674912
 10
772551.6196493849856779
 20
1417429.20571334473788738
 10
772563.10624163749162108
 20
1417447.41694924095645547
 10
772576.98989585868548602
 20
1417467.41391586558893323
 10
772604.64529862557537854
 20
1417507.84661613777279854
 10
772622.74239605339244008
 20
1417492.16246503381989896
 10
772603.4219281745608896
 20
1417461.71083890460431576
 10
772599.93090503895655274
 20
1417456.85236431052908301
 10
772593.28669971611816436
 20
1417446.47582088829949498
 10
772583.40887388540431857
 20
1417431.30515353009104729
 10
772582.29882505431305617
 20
1417429.51942280167713761
 10
772575.60951119719538838
 20
1417418.56760216085240245
 10
772571.90966016752645373
 20
1417411.4896262779366225
 10
772569.78262229159008712
 20
1417407.41497216350398958
 10
772568.06124222010839731
 20
1417403.47349443007260561
 10
772565.55556818179320544
 20
1417396.60979061527177691
 10
772562.3383064167574048
 20
1417386.63627914385870099
 10
772560.24708626954816282
 20
1417377.38665156974457204
 10
772558.27994237444363534
 20
1417369.66526807262562215
 10
772557.76513711945153773
 20
1417366.33512157876975834
 10
772557.66861113405320793
 20
1417361.18706902861595154
 10
772557.10554288642015308
 20
1417346.70817123143933713
 10
772555.31981215812265873
 20
1417330.70094533334486187
 10
772553.4104050190653652
 20
1417314.16745788883417845
 10
772552.20393185724969953
 20
1417306.28516656463034451
 10
772550.03228016593493521
 20
1417297.51812825538218021
 10
772548.02149156283121556
 20
1417282.47742950427345932
 10
772546.40724618022795767
 20
1417270.37220451072789729
 10
772545.4419863271759823
 20
1417261.94226845982484519
 10
772545.28681906242854893
 20
1417258.02624009060673416
 10
772545.1202330426312983
 20
1417252.5470725551713258
 10
772545.21675902791321278
 20
1417247.14161737728863955
 10
772545.57068764080759138
 20
1417235.88025242392905056
 10
772545.93027141538914293
 20
1417226.65793788270093501
 10
772546.50377216550987214
 20
1417216.73593200254254043
 10
772547.29760766564868391
 20
1417207.51523038116283715
 10
772548.28204977291170508
 20
1417183.92590867076069117
 10
772549.62477902392856777
 20
1417158.8203408126719296
 10
772550.91702715132851154
 20
1417141.96352192061021924
 10
772551.96263722481671721
 20
1417120.24700500746257603
 10
772552.23098062712233514
 20
1417098.68465196108445525
 10
772552.60099690419156104
 20
1417091.31650174874812365
 10
772552.68143522541504353
 20
1417088.40463452506810427
 10
772552.8744871960952878
 20
1417085.5249426297377795
 10
772553.38929245097097009
 20
1417078.81638665031641722
 10
772554.61687818088103086
 20
1417051.47803478199057281
 10
772555.09458485874347389
 20
1417020.70774348871782422
 10
772555.46460113569628447
 20
1417014.28876546514220536
 10
772555.86679274111520499
 20
1417009.14071291591972113
 10
772556.67921978433150798
 20
1417005.33598032826557755
 10
772556.72820621414575726
 20
1416999.63990459428168833
 10
772557.09014816267881542
 20
1416989.62617735099047422
 10
772557.21079547889530659
 20
1416970.00088058435358107
 10
772557.20206887135282159
 20
1416959.92854806804098189
 10
772556.92857857956551015
 20
1416946.3827347953338176
 10
772556.76842198614031076
 20
1416928.61885113292373717
 10
772556.4137733249226585
 20
1416914.81873759697191417
 10
772555.68259614065755159
 20
1416893.59091366664506495
 10
772554.6156853954307735
 20
1416887.55149983940646052
 10
772553.34568539552856237
 20
1416875.80399983911775053
 10
772551.91693539556581527
 20
1416862.62774983909912407
 10
772549.85318539547733963
 20
1416853.31441650586202741
 10
772547.31318539544008672
 20
1416846.22358317254111171
 10
772542.33901872881688178
 20
1416834.84649983933195472
 10
772537.47068539552856237
 20
1416825.6919165060389787
 10
772534.66610206209588796
 20
1416821.40566650591790676
 10
772528.15735206205863506
 20
1416814.20899983937852085
 10
772521.96610206202603877
 20
1416808.54691650602035224
 10
772517.52110206196084619
 20
1416805.74233317258767784
 10
772511.22401872859336436
 20
1416802.51441650581546128
 10
772503.23360206198412925
 20
1416799.33941650576889515
 10
772493.70860206196084619
 20
1416796.42899983911775053
 10
772482.91360206191893667
 20
1416793.78316650562919676
 10
772460.84735206176992506
 20
1416789.86733317258767784
 10
772437.88151872833259404
 20
1416784.36399983894079924
 10
772432.00776872830465436
 20
1416782.3531665054615587
 10
772424.86401872825808823
 20
1416779.17816650541499257
 10
772419.67818539473228157
 20
1416775.10358317219652236
 10
772414.33360206137876958
 20
1416769.65316650550812483
 10
772410.9998520613880828
 20
1416761.6627498387824744
 10
772406.76651872822549194
 20
1416744.83524983888491988
 10
772403.80318539484869689
 20
1416731.12983317230828106
 10
772397.71776872815098614
 20
1416704.51274983887560666
 10
772394.27818539482541382
 20
1416690.59566650562919676
 10
772389.51568539487197995
 20
1416667.8414998387452215
 10
772365.33181338384747505
 20
1416672.89780840463936329
 10
772371.1803474931512028
 20
1416700.94077964662574232
 10
772378.22858090687077492
 20
1416728.23393882322125137
 10
772383.62722777691669762
 20
1416750.72830078192055225
 10
772386.92640086426399648
 20
1416763.47510589193552732
 10
772389.62572429934516549
 20
1416774.42236204515211284
 10
772393.37478462571743876
 20
1416782.52033235016278923
 10
772400.12309321342036128
 20
1416791.51807713392190635
 10
772409.27080040995497257
 20
1416799.16616019979119301
 10
772422.91737999836914241
 20
1416806.06443120050244033
 10
772434.91437304299324751
 20
1416810.71326600527390838
 10
772448.26102780515793711
 20
1416813.86247667949646711
 10
772458.45847189310006797
 20
1416815.81198804918676615
 10
772475.85411180788651109
 20
1416818.96119872340932488
 10
772486.05155589594505727
 20
1416821.06067250622436404
 10
772495.04930067947134376
 20
1416824.3598455935716629
 10
772501.0477972017833963
 20
1416827.20913144177757204
 10
772507.4961809633532539
 20
1416830.50830452889204025
 10
772513.34471507265698165
 20
1416835.45706415991298854
 10
772525.19174570427276194
 20
1416864.09988505416549742
 10
772529.66299161640927196
 20
1416893.85231618932448328
  0
LWPOLYLINE
  5
af
  8
Enjoyment
100
AcDbEntity
100
AcDbPolyline
  6
CONTINUOUS
420
     0
 90
    10
 70
   129
 43
-1.0
 10
772382.59092445264104754
 20
1417249.38867369713261724
 10
772383.88751688844058663
 20
1417240.94460798962973058
 10
772276.72976757015567273
 20
1417255.20412197709083557
 10
772268.31028649455402046
 20
1417256.22560313693247736
 10
772267.85601601237431169
 20
1417258.11513637402094901
 10
772266.35639153979718685
 20
1417258.60961533058434725
 10
772270.33591108152177185
 20
1417363.55645236861892045
 10
772289.93016045133117586
 20
1417360.95722264470532537
 10
772370.37424066907260567
 20
1417346.71043904707767069
 10
772382.59092445264104754
 20
1417249.38867369713261724
  0
LWPOLYLINE
  5
b0
  8
Enjoyment
100
AcDbEntity
100
AcDbPolyline
  6
CONTINUOUS
420
     0
 90
     8
 70
   129
 43
-1.0
 10
772266.35639153979718685
 20
1417258.60961533058434725
 10
772263.45984339690767229
 20
1417259.56470917537808418
 10
772141.29574923822656274
 20
1417293.01442820834927261
 10
772185.44187154597602785
 20
1417383.07376437145285308
 10
772261.06743174977600574
 20
1417366.46439530677162111
 10
772268.88551100948825479
 20
1417363.74885182757861912
 10
772270.33591108152177185
 20
1417363.55645236861892045
 10
772266.35639153979718685
 20
1417258.60961533058434725
  0
LWPOLYLINE
  5
b1
  8
Enjoyment
100
AcDbEntity
100
AcDbPolyline
  6
CONTINUOUS
420
     0
 90
    12
 70
   129
 43
-1.0
 10
772476.10412533872295171
 20
1417215.02747287834063172
 10
772491.76104094949550927
 20
1417200.21119703236036003
 10
772479.6714044971158728
 20
1417201.9213897583540529
 10
772473.86466579546686262
 20
1417208.12082107341848314
 10
772463.15697625104803592
 20
1417211.99901771149598062
 10
772463.59612912591546774
 20
1417214.36213409132324159
 10
772437.88324001582805067
 20
1417222.22965605440549552
 10
772437.68445100670214742
 20
1417221.22486063046380877
 10
772401.49090612318832427
 20
1417234.33372818795032799
 10
772383.88751688844058663
 20
1417240.94460798962973058
 10
772382.59092445264104754
 20
1417249.38867369713261724
 10
772476.10412533872295171
 20
1417215.02747287834063172
  0
LWPOLYLINE
  5
b2
  8
Enjoyment
100
AcDbEntity
100
AcDbPolyline
  6
CONTINUOUS
420
     0
 90
    10
 70
   129
 43
-1.0
 10
772493.58982195041608065
 20
1417199.95249876822344959
 10
772491.76104094949550927
 20
1417200.21119703236036003
 10
772476.10412533872295171
 20
1417215.02747287834063172
 10
772382.59092445264104754
 20
1417249.38867369713261724
 10
772370.37424066907260567
 20
1417346.71043904707767069
 10
772487.83244642801582813
 20
1417326.50552721437998116
 10
772491.74899362958967686
 20
1417318.43572790361940861
 10
772498.27213400008622557
 20
1417290.19992792070843279
 10
772496.95155114948283881
 20
1417212.98944858880713582
 10
772493.58982195041608065
 20
1417199.95249876822344959
  0
LWPOLYLINE
  5
b3
  8
Enjoyment
100
AcDbEntity
100
AcDbPolyline
  6
CONTINUOUS
420
     0
 90
     4
 70
   129
 43
-1.0
 10
772496.95155114948283881
 20
1417212.98944858880713582
 10
772496.7209956148872152
 20
1417199.50956481834873557
 10
772493.58982195041608065
 20
1417199.95249876822344959
 10
772496.95155114948283881
 20
1417212.98944858880713582
  0
LWPOLYLINE
  5
b4
  8
Enjoyment
100
AcDbEntity
100
AcDbPolyline
  6
CONTINUOUS
420
     0
 90
    10
 70
   129
 43
-1.0
 10
772328.79717237967997789
 20
1417170.96572038903832436
 10
772287.67299741902388632
 20
1417175.74222614406608045
 10
772279.83418372774031013
 20
1417217.92821184848435223
 10
772391.66525626822840422
 20
1417204.67901733028702438
 10
772378.90551006828900427
 20
1417163.39414962567389011
 10
772373.58978452335577458
 20
1417165.0069526769220829
 10
772355.62241329031530768
 20
1417165.3929233190137893
 10
772356.77133803267497569
 20
1417171.81839132332243025
 10
772329.58913199603557587
 20
1417175.90260199247859418
 10
772328.79717237967997789
 20
1417170.96572038903832436
  0
LWPOLYLINE
  5
b5
  8
Enjoyment
100
AcDbEntity
100
AcDbPolyline
  6
CONTINUOUS
420
     0
 90
     6
 70
   129
 43
-1.0
 10
772279.83418372774031013
 20
1417217.92821184848435223
 10
772276.72976757015567273
 20
1417255.20412197709083557
 10
772383.88751688844058663
 20
1417240.94460798962973058
 10
772401.49090612318832427
 20
1417234.33372818795032799
 10
772391.66525626822840422
 20
1417204.67901733028702438
 10
772279.83418372774031013
 20
1417217.92821184848435223
  0
LWPOLYLINE
  5
b6
  8
Enjoyment
100
AcDbEntity
100
AcDbPolyline
  6
CONTINUOUS
420
     0
 90
    14
 70
   129
 43
-1.0
 10
772297.38086829881649464
 20
1417454.30360643472522497
 10
772319.03513471409678459
 20
1417454.19109583087265491
 10
772342.77544643799774349
 20
1417448.07541158935055137
 10
772359.47904927958734334
 20
1417440.87670998321846128
 10
772417.03284372063353658
 20
1417421.88043265254236758
 10
772423.66912502574268728
 20
1417420.11750649427995086
 10
772431.1764058512635529
 20
1417416.55344388005323708
 10
772438.83534891565795988
 20
1417409.57698089070618153
 10
772453.84991056669969112
 20
1417392.59081013407558203
 10
772470.00193900929298252
 20
1417363.24416690669022501
 10
772487.83244642801582813
 20
1417326.50552721437998116
 10
772370.37424066907260567
 20
1417346.71043904707767069
 10
772289.93016045133117586
 20
1417360.95722264470532537
 10
772297.38086829881649464
 20
1417454.30360643472522497
  0
LWPOLYLINE
  5
b7
  8
No Enjoyment
100
AcDbEntity
100
AcDbPolyline
  6
CONTINUOUS
420
     0
 90
     5
 70
   129
 43
-1.0
 10
772266.27535300236195326
 20
1417256.47248845035210252
 10
772266.35639153979718685
 20
1417258.60961533058434725
 10
772267.85601601237431169
 20
1417258.11513637402094901
 10
772268.31028649455402046
 20
1417256.22560313693247736
 10
772266.27535300236195326
 20
1417256.47248845035210252
  0
LWPOLYLINE
  5
b8
  8
No Enjoyment
100
AcDbEntity
100
AcDbPolyline
  6
CONTINUOUS
420
     0
 90
     4
 70
   129
 43
-1.0
 10
772270.36871648079250008
 20
1417364.42158768372610211
 10
772289.93016045133117586
 20
1417360.95722264470532537
 10
772270.33591108152177185
 20
1417363.55645236861892045
 10
772270.36871648079250008
 20
1417364.42158768372610211
  0
LWPOLYLINE
  5
b9
  8
No Enjoyment
100
AcDbEntity
100
AcDbPolyline
  6
CONTINUOUS
420
     0
 90
     5
 70
   129
 43
-1.0
 10
772270.33591108152177185
 20
1417363.55645236861892045
 10
772268.88551100948825479
 20
1417363.74885182757861912
 10
772261.06743174977600574
 20
1417366.46439530677162111
 10
772270.36871648079250008
 20
1417364.42158768372610211
 10
772270.33591108152177185
 20
1417363.55645236861892045
  0
LWPOLYLINE
  5
ba
  8
No Enjoyment
100
AcDbEntity
100
AcDbPolyline
  6
CONTINUOUS
420
     0
 90
     6
 70
   129
 43
-1.0
 10
772266.27535300236195326
 20
1417256.47248845035210252
 10
772206.72584986814763397
 20
1417268.5207038486842066
 10
772141.29574923822656274
 20
1417293.01442820834927261
 10
772263.45984339690767229
 20
1417259.56470917537808418
 10
772266.35639153979718685
 20
1417258.60961533058434725
 10
772266.27535300236195326
 20
1417256.47248845035210252
  0
LWPOLYLINE
  5
bb
  8
No Enjoyment
100
AcDbEntity
100
AcDbPolyline
  6
CONTINUOUS
420
     0
 90
     6
 70
   129
 43
-1.0
 10
772493.28472574823535979
 20
1417198.76932081347331405
 10
772520.72756398585624993
 20
1417171.44178861868567765
 10
772521.88963271537795663
 20
1417156.84806727454997599
 10
772479.6714044971158728
 20
1417201.9213897583540529
 10
772491.76104094949550927
 20
1417200.21119703236036003
 10
772493.28472574823535979
 20
1417198.76932081347331405
  0
LWPOLYLINE
  5
bc
  8
No Enjoyment
100
AcDbEntity
100
AcDbPolyline
  6
CONTINUOUS
420
     0
 90
     5
 70
   129
 43
-1.0
 10
772437.68445100670214742
 20
1417221.22486063046380877
 10
772437.88324001582805067
 20
1417222.22965605440549552
 10
772463.59612912591546774
 20
1417214.36213409132324159
 10
772463.15697625104803592
 20
1417211.99901771149598062
 10
772437.68445100670214742
 20
1417221.22486063046380877
  0
LWPOLYLINE
  5
bd
  8
No Enjoyment
100
AcDbEntity
100
AcDbPolyline
  6
CONTINUOUS
420
     0
 90
     9
 70
   129
 43
-1.0
 10
772496.95155114948283881
 20
1417212.98944858880713582
 10
772498.27213400008622557
 20
1417290.19992792070843279
 10
772491.74899362958967686
 20
1417318.43572790361940861
 10
772487.83244642801582813
 20
1417326.50552721437998116
 10
772487.85375546209979802
 20
1417326.50186167936772108
 10
772503.52912384422961622
 20
1417323.88897295692004263
 10
772523.59968583669979125
 20
1417309.98387772031128407
 10
772507.4673690393101424
 20
1417253.77030333178117871
 10
772496.95155114948283881
 20
1417212.98944858880713582
  0
LWPOLYLINE
  5
be
  8
No Enjoyment
100
AcDbEntity
100
AcDbPolyline
  6
CONTINUOUS
420
     0
 90
     4
 70
   129
 43
-1.0
 10
772493.28472574823535979
 20
1417198.76932081347331405
 10
772491.76104094949550927
 20
1417200.21119703236036003
 10
772493.58982195041608065
 20
1417199.95249876822344959
 10
772493.28472574823535979
 20
1417198.76932081347331405
  0
LWPOLYLINE
  5
bf
  8
No Enjoyment
100
AcDbEntity
100
AcDbPolyline
  6
CONTINUOUS
420
     0
 90
     7
 70
   129
 43
-1.0
 10
772493.58982195041608065
 20
1417199.95249876822344959
 10
772496.7209956148872152
 20
1417199.50956481834873557
 10
772496.95155114948283881
 20
1417212.98944858880713582
 10
772507.4673690393101424
 20
1417253.77030333178117871
 10
772520.72756398585624993
 20
1417171.44178861868567765
 10
772493.28472574823535979
 20
1417198.76932081347331405
 10
772493.58982195041608065
 20
1417199.95249876822344959
  0
LWPOLYLINE
  5
c0
  8
No Enjoyment
100
AcDbEntity
100
AcDbPolyline
  6
CONTINUOUS
420
     0
 90
     7
 70
   129
 43
-1.0
 10
772376.90749009733553976
 20
1417156.929445008514449
 10
772366.87220910098403692
 20
1417159.35627766768448055
 10
772355.00040609226562083
 20
1417161.91429047076962888
 10
772355.62241329031530768
 20
1417165.3929233190137893
 10
772373.58978452335577458
 20
1417165.0069526769220829
 10
772378.90551006828900427
 20
1417163.39414962567389011
 10
772376.90749009733553976
 20
1417156.929445008514449
  0
LWPOLYLINE
  5
c1
  8
Excess Enjoyment
100
AcDbEntity
100
AcDbPolyline
  6
CONTINUOUS
420
     0
 90
     8
 70
   129
 43
-1.0
 10
772435.96336740208789706
 20
1417212.52550176228396595
 10
772419.34851352160330862
 20
1417218.02778150583617389
 10
772404.29343934939242899
 20
1417155.69139494723640382
 10
772378.90551006828900427
 20
1417163.39414962567389011
 10
772391.66525626822840422
 20
1417204.67901733028702438
 10
772401.49090612318832427
 20
1417234.33372818795032799
 10
772437.68445100670214742
 20
1417221.22486063046380877
 10
772435.96336740208789706
 20
1417212.52550176228396595
  0
LWPOLYLINE
  5
c2
  8
Excess Enjoyment
100
AcDbEntity
100
AcDbPolyline
  6
CONTINUOUS
420
     0
 90
    13
 70
   129
 43
-1.0
 10
772344.67945947963744402
 20
1417165.62799715669825673
 10
772343.84144215972628444
 20
1417151.94947589142248034
 10
772303.94069721316918731
 20
1417157.29946241807192564
 10
772291.83626612182706594
 20
1417158.3695412022061646
 10
772268.31028649455402046
 20
1417256.22560313693247736
 10
772276.72976757015567273
 20
1417255.20412197709083557
 10
772279.83418372774031013
 20
1417217.92821184848435223
 10
772287.67299741902388632
 20
1417175.74222614406608045
 10
772328.79717237967997789
 20
1417170.96572038903832436
 10
772329.58913199603557587
 20
1417175.90260199247859418
 10
772356.77133803267497569
 20
1417171.81839132332243025
 10
772355.62241329031530768
 20
1417165.3929233190137893
 10
772344.67945947963744402
 20
1417165.62799715669825673
  0
LWPOLYLINE
  5
c3
  8
Excess Enjoyment
100
AcDbEntity
100
AcDbPolyline
  6
CONTINUOUS
420
     0
 90
     5
 70
   129
 43
-1.0
 10
772186.8866053952369839
 20
1417392.23047577077522874
 10
772261.06743174977600574
 20
1417366.46439530677162111
 10
772185.44187154597602785
 20
1417383.07376437145285308
 10
772141.29574923822656274
 20
1417293.01442820834927261
 10
772186.8866053952369839
 20
1417392.23047577077522874
  0
LWPOLYLINE
  5
c4
  8
Excess Enjoyment
100
AcDbEntity
100
AcDbPolyline
  6
CONTINUOUS
420
     0
 90
     5
 70
   129
 43
-1.0
 10
772461.75517402589321136
 20
1417204.455808982020244
 10
772463.15697625104803592
 20
1417211.99901771149598062
 10
772473.86466579546686262
 20
1417208.12082107341848314
 10
772479.6714044971158728
 20
1417201.9213897583540529
 10
772461.75517402589321136
 20
1417204.455808982020244
  0
LWPOLYLINE
  5
c5
  8
94_3
100
AcDbEntity
100
AcDbPolyline
  6
CONTINUOUS
420
     0
 90
     8
 70
   129
 43
-1.0
 10
772370.37424066907260567
 20
1417346.71043904707767069
 10
772382.59092445264104754
 20
1417249.38867369713261724
 10
772383.88751688844058663
 20
1417240.94460798962973058
 10
772276.72976757015567273
 20
1417255.20412197709083557
 10
772266.27535300236195326
 20
1417256.47248845035210252
 10
772270.36871648079250008
 20
1417364.42158768372610211
 10
772289.93016045133117586
 20
1417360.95722264470532537
 10
772370.37424066907260567
 20
1417346.71043904707767069
  0
LWPOLYLINE
  5
c6
  8
95
100
AcDbEntity
100
AcDbPolyline
  6
CONTINUOUS
420
     0
 90
     6
 70
   129
 43
-1.0
 10
772270.36871648079250008
 20
1417364.42158768372610211
 10
772266.27535300236195326
 20
1417256.47248845035210252
 10
772206.72584986814763397
 20
1417268.5207038486842066
 10
772141.29574923822656274
 20
1417293.01442820834927261
 10
772185.44187154597602785
 20
1417383.07376437145285308
 10
772270.36871648079250008
 20
1417364.42158768372610211
  0
LWPOLYLINE
  5
c7
  8
94_1
100
AcDbEntity
100
AcDbPolyline
  6
CONTINUOUS
420
     0
 90
     9
 70
   129
 43
-1.0
 10
772382.59092445264104754
 20
1417249.38867369713261724
 10
772476.10412533872295171
 20
1417215.02747287834063172
 10
772493.28472574823535979
 20
1417198.76932081347331405
 10
772520.72756398585624993
 20
1417171.44178861868567765
 10
772521.88963271537795663
 20
1417156.84806727454997599
 10
772473.86466579546686262
 20
1417208.12082107341848314
 10
772401.49090612318832427
 20
1417234.33372818795032799
 10
772383.88751688844058663
 20
1417240.94460798962973058
 10
772382.59092445264104754
 20
1417249.38867369713261724
  0
LWPOLYLINE
  5
c8
  8
94_2
100
AcDbEntity
100
AcDbPolyline
  6
CONTINUOUS
420
     0
 90
     9
 70
   129
 43
-1.0
 10
772507.4673690393101424
 20
1417253.77030333178117871
 10
772493.28472574823535979
 20
1417198.76932081347331405
 10
772476.10412533872295171
 20
1417215.02747287834063172
 10
772382.59092445264104754
 20
1417249.38867369713261724
 10
772370.37424066907260567
 20
1417346.71043904707767069
 10
772487.85375546209979802
 20
1417326.50186167936772108
 10
772503.52912384422961622
 20
1417323.88897295692004263
 10
772523.59968583669979125
 20
1417309.98387772031128407
 10
772507.4673690393101424
 20
1417253.77030333178117871
  0
LWPOLYLINE
  5
c9
  8
94_4
100
AcDbEntity
100
AcDbPolyline
  6
CONTINUOUS
420
     0
 90
     4
 70
   129
 43
-1.0
 10
772493.28472574823535979
 20
1417198.76932081347331405
 10
772507.4673690393101424
 20
1417253.77030333178117871
 10
772520.72756398585624993
 20
1417171.44178861868567765
 10
772493.28472574823535979
 20
1417198.76932081347331405
  0
LWPOLYLINE
  5
ca
  8
93_7
100
AcDbEntity
100
AcDbPolyline
  6
CONTINUOUS
420
     0
 90
    10
 70
   129
 43
-1.0
 10
772329.58913199603557587
 20
1417175.90260199247859418
 10
772328.79717237967997789
 20
1417170.96572038903832436
 10
772287.67299741902388632
 20
1417175.74222614406608045
 10
772279.83418372774031013
 20
1417217.92821184848435223
 10
772391.66525626822840422
 20
1417204.67901733028702438
 10
772376.90749009733553976
 20
1417156.929445008514449
 10
772366.87220910098403692
 20
1417159.35627766768448055
 10
772355.00040609226562083
 20
1417161.91429047076962888
 10
772356.77133803267497569
 20
1417171.81839132332243025
 10
772329.58913199603557587
 20
1417175.90260199247859418
  0
LWPOLYLINE
  5
cb
  8
93_6
100
AcDbEntity
100
AcDbPolyline
  6
CONTINUOUS
420
     0
 90
     6
 70
   129
 43
-1.0
 10
772391.66525626822840422
 20
1417204.67901733028702438
 10
772279.83418372774031013
 20
1417217.92821184848435223
 10
772276.72976757015567273
 20
1417255.20412197709083557
 10
772383.88751688844058663
 20
1417240.94460798962973058
 10
772401.49090612318832427
 20
1417234.33372818795032799
 10
772391.66525626822840422
 20
1417204.67901733028702438
  0
LWPOLYLINE
  5
cc
  8
46_P2
100
AcDbEntity
100
AcDbPolyline
  6
CONTINUOUS
420
     0
 90
    14
 70
   129
 43
-1.0
 10
772289.93016045133117586
 20
1417360.95722264470532537
 10
772297.38086829881649464
 20
1417454.30360643472522497
 10
772319.03513471409678459
 20
1417454.19109583087265491
 10
772342.77544643799774349
 20
1417448.07541158935055137
 10
772359.47904927958734334
 20
1417440.87670998321846128
 10
772417.03284372063353658
 20
1417421.88043265254236758
 10
772423.66912502574268728
 20
1417420.11750649427995086
 10
772431.1764058512635529
 20
1417416.55344388005323708
 10
772438.83534891565795988
 20
1417409.57698089070618153
 10
772453.84991056669969112
 20
1417392.59081013407558203
 10
772470.00193900929298252
 20
1417363.24416690669022501
 10
772487.85375546209979802
 20
1417326.50186167936772108
 10
772370.37424066907260567
 20
1417346.71043904707767069
 10
772289.93016045133117586
 20
1417360.95722264470532537
  0
LWPOLYLINE
  5
cd
  8
HT Powerline2
100
AcDbEntity
100
AcDbPolyline
  6
CONTINUOUS
420
     0
 90
    21
 70
   129
 43
-1.0
 10
772323.41742887475993484
 20
1417396.43320432375185192
 10
772323.41742884798441082
 20
1417396.43320433725602925
 10
772325.65838789904955775
 20
1417400.90265941107645631
 10
772325.65848084073513746
 20
1417400.90284477756358683
 10
772429.89184804481919855
 20
1417608.78988835867494345
 10
772432.13290005107410252
 20
1417613.25952882575802505
 10
772441.07218098524026573
 20
1417608.77742481348104775
 10
772334.59776180214248598
 20
1417396.4207408195361495
 10
772334.59541478240862489
 20
1417396.4160598327871412
 10
772267.57396139018237591
 20
1417262.74588888580910861
 10
772267.57396141719073057
 20
1417262.74588887230493128
 10
772265.33298228005878627
 20
1417258.27639373810961843
 10
772265.33290942455641925
 20
1417258.27624843223020434
 10
772263.09185744542628527
 20
1417253.80660795164294541
 10
772263.0918574184179306
 20
1417253.80660796514712274
 10
772109.01627760077826679
 20
1416946.51233516656793654
 10
772106.77522559452336282
 20
1416942.04269469948485494
 10
772097.83594466035719961
 20
1416946.52479871176183224
 10
772256.38791305921040475
 20
1417262.74695336865261197
 10
772322.86468455300200731
 20
1417395.33078973437659442
 10
772323.41742887475993484
 20
1417396.43320432375185192
  0
LWPOLYLINE
  5
ce
  8
HT Powerline2
100
AcDbEntity
100
AcDbPolyline
  6
CONTINUOUS
420
     0
 90
     9
 70
   129
 43
-1.0
 10
772453.95264486561063677
 20
1417605.75967435725033283
 10
772462.89192579977679998
 20
1417601.27757034497335553
 10
772288.68726784992031753
 20
1417253.83708856184966862
 10
772126.8457098538056016
 20
1416931.0540496667381376
 10
772124.60465784755069762
 20
1416926.584409199655056
 10
772115.66537691338453442
 20
1416931.0665132119320333
 10
772275.26588290347717702
 20
1417249.37991163996048272
 10
772451.7115928593557328
 20
1417601.29003389016725123
 10
772453.95264486561063677
 20
1417605.75967435725033283
  0
LWPOLYLINE
  5
cf
  8
HT Powerline1
100
AcDbEntity
100
AcDbPolyline
  6
CONTINUOUS
420
     0
 90
    11
 70
   129
 43
-1.0
 10
772215.79927469103131443
 20
1417270.22188308811746538
 10
772217.30486478307284415
 20
1417268.23054228746332228
 10
772316.20049705321434885
 20
1417098.74932952225208282
 10
772509.82897620543371886
 20
1416766.57549565192312002
 10
772491.6910909489961341
 20
1416755.99168166890740395
 10
772298.06261179805733263
 20
1417088.16551553714089096
 10
772199.80056558619253337
 20
1417256.56092773587442935
 10
772030.87340379145462066
 20
1417431.98482013284228742
 10
772023.59015599719714373
 20
1417439.54817266762256622
 10
772038.71686106699053198
 20
1417454.11466825613752007
 10
772215.79927469103131443
 20
1417270.22188308811746538
  0
ENDSEC
0
SECTION
2
OBJECTS
0
DICTIONARY
5
C
330
0
100
AcDbDictionary
281
   1
3
ACAD_GROUP
350
D
3
ACAD_LAYOUT
350
1A
3
ACAD_MLEADERSTYLE
350
43
3
ACAD_MLINESTYLE
350
17
3
ACAD_PLOTSETTINGS
350
19
3
ACAD_PLOTSTYLENAME
350
E
3
ACAD_TABLESTYLE
350
42
3
ACAD_VISUALSTYLE
350
2A
0
DICTIONARY
5
D
102
{ACAD_REACTORS
330
C
102
}
330
C
100
AcDbDictionary
281
   1
0
DICTIONARY
5
1A
102
{ACAD_REACTORS
330
C
102
}
330
C
100
AcDbDictionary
281
   1
3
Layout1
350
1E
3
Layout2
350
26
3
Model
350
22
0
DICTIONARY
5
43
102
{ACAD_REACTORS
330
C
102
}
330
C
100
AcDbDictionary
281
   1
0
DICTIONARY
5
17
102
{ACAD_REACTORS
330
C
102
}
330
C
100
AcDbDictionary
281
   1
3
Standard
350
18
0
DICTIONARY
5
19
102
{ACAD_REACTORS
330
C
102
}
330
C
100
AcDbDictionary
281
   1
0
ACDBDICTIONARYWDFLT
5
E
102
{ACAD_REACTORS
330
C
102
}
330
C
100
AcDbDictionary
281
   1
3
Normal
350
F
100
AcDbDictionaryWithDefault
340
F
0
DICTIONARY
5
42
102
{ACAD_REACTORS
330
C
102
}
330
C
100
AcDbDictionary
281
   1
0
DICTIONARY
5
2A
102
{ACAD_REACTORS
330
C
102
}
330
C
100
AcDbDictionary
281
   1
3
2dWireframe
350
2F
3
3D Hidden
350
31
3
3dWireframe
350
30
3
Basic
350
32
3
Brighten
350
36
3
ColorChange
350
3A
3
Conceptual
350
34
3
Dim
350
35
3
Facepattern
350
39
3
Flat
350
2B
3
FlatWithEdges
350
2C
3
Gouraud
350
2D
3
GouraudWithEdges
350
2E
3
Linepattern
350
38
3
Realistic
350
33
3
Thicken
350
37
0
LAYOUT
5
1E
102
{ACAD_REACTORS
330
1A
102
}
330
1A
100
AcDbPlotSettings
1

2
none_device
4

6

40
0.0
41
0.0
42
0.0
43
0.0
44
0.0
45
0.0
46
0.0
47
0.0
48
0.0
49
0.0
140
0.0
141
0.0
142
1.0
143
1.0
70
 688
72
   0
73
   0
74
   5
7

75
  16
76
   0
77
   2
78
 300
147
1.0
148
0.0
149
0.0
100
AcDbLayout
1
Layout1
70
   1
71
   1
10
0.0
20
0.0
11
12.0
21
9.0
12
0.0
22
0.0
32
0.0
14
1.000000000000000E+20
24
1.000000000000000E+20
34
1.000000000000000E+20
15
-1.000000000000000E+20
25
-1.000000000000000E+20
35
-1.000000000000000E+20
146
0.0
13
0.0
23
0.0
33
0.0
16
1.0
26
0.0
36
0.0
17
0.0
27
1.0
37
0.0
76
   0
330
1B
0
LAYOUT
5
26
102
{ACAD_REACTORS
330
1A
102
}
330
1A
100
AcDbPlotSettings
1

2
none_device
4

6

40
0.0
41
0.0
42
0.0
43
0.0
44
0.0
45
0.0
46
0.0
47
0.0
48
0.0
49
0.0
140
0.0
141
0.0
142
1.0
143
1.0
70
 688
72
   0
73
   0
74
   5
7

75
  16
76
   0
77
   2
78
 300
147
1.0
148
0.0
149
0.0
100
AcDbLayout
1
Layout2
70
   1
71
   2
10
0.0
20
0.0
11
0.0
21
0.0
12
0.0
22
0.0
32
0.0
14
0.0
24
0.0
34
0.0
15
0.0
25
0.0
35
0.0
146
0.0
13
0.0
23
0.0
33
0.0
16
1.0
26
0.0
36
0.0
17
0.0
27
1.0
37
0.0
76
   0
330
23
0
LAYOUT
5
22
102
{ACAD_REACTORS
330
1A
102
}
330
1A
100
AcDbPlotSettings
1

2
none_device
4

6

40
0.0
41
0.0
42
0.0
43
0.0
44
0.0
45
0.0
46
0.0
47
0.0
48
0.0
49
0.0
140
0.0
141
0.0
142
1.0
143
1.0
70
1712
72
   0
73
   0
74
   0
7

75
   0
76
   0
77
   2
78
 300
147
1.0
148
0.0
149
0.0
100
AcDbLayout
1
Model
70
   1
71
   0
10
0.0
20
0.0
11
12.0
21
9.0
12
0.0
22
0.0
32
0.0
14
30.0
24
49.75
34
0.0
15
130.5
25
163.1318914119703
35
0.0
146
0.0
13
0.0
23
0.0
33
0.0
16
1.0
26
0.0
36
0.0
17
0.0
27
1.0
37
0.0
76
   0
330
1F
331
29
0
MLINESTYLE
5
18
102
{ACAD_REACTORS
330
17
102
}
330
17
100
AcDbMlineStyle
2
Standard
70
   0
3

62
 256
51
90.0
52
90.0
71
   2
49
0.5
62
 256
6
BYLAYER
49
-0.5
62
 256
6
BYLAYER
0
ACDBPLACEHOLDER
5
F
102
{ACAD_REACTORS
330
E
102
}
330
E
0
VISUALSTYLE
5
2F
102
{ACAD_REACTORS
330
2A
102
}
330
2A
100
AcDbVisualStyle
2
2dWireframe
70
   4
71
   0
72
   2
73
   0
90
      0
40
-0.6
41
-30.0
62
   5
63
   7
421
16777215
74
   1
91
      4
64
   7
65
 257
75
   1
175
   1
42
1.0
92
      0
66
 257
43
1.0
76
   1
77
   6
78
   2
67
   7
79
   5
170
   0
171
   0
290
   0
174
   0
93
      1
44
0.0
173
   0
291
   0
45
0.0
1001
ACAD
1000
AcDbSavedByObjectVersion
1070
   0
0
VISUALSTYLE
5
31
102
{ACAD_REACTORS
330
2A
102
}
330
2A
100
AcDbVisualStyle
2
3D Hidden
70
   6
71
   1
72
   2
73
   2
90
      0
40
-0.6
41
-30.0
62
   5
63
   7
421
16777215
74
   2
91
      2
64
   7
65
 257
75
   2
175
   1
42
40.0
92
      0
66
 257
43
1.0
76
   1
77
   6
78
   2
67
   7
79
   3
170
   0
171
   0
290
   0
174
   0
93
      1
44
0.0
173
   0
291
   0
45
0.0
1001
ACAD
1000
AcDbSavedByObjectVersion
1070
   0
0
VISUALSTYLE
5
30
102
{ACAD_REACTORS
330
2A
102
}
330
2A
100
AcDbVisualStyle
2
3dWireframe
70
   5
71
   0
72
   2
73
   0
90
      0
40
-0.6
41
-30.0
62
   5
63
   7
421
16777215
74
   1
91
      4
64
   7
65
 257
75
   1
175
   1
42
1.0
92
      0
66
 257
43
1.0
76
   1
77
   6
78
   2
67
   7
79
   5
170
   0
171
   0
290
   0
174
   0
93
      1
44
0.0
173
   0
291
   0
45
0.0
1001
ACAD
1000
AcDbSavedByObjectVersion
1070
   0
0
VISUALSTYLE
5
32
102
{ACAD_REACTORS
330
2A
102
}
330
2A
100
AcDbVisualStyle
2
Basic
70
   7
71
   1
72
   0
73
   1
90
      0
40
-0.6
41
-30.0
62
   5
63
   7
421
16777215
74
   0
91
      4
64
   7
65
 257
75
   1
175
   1
42
1.0
92
      8
66
   7
43
1.0
76
   1
77
   6
78
   2
67
   7
79
   5
170
   0
171
   0
290
   0
174
   0
93
      1
44
0.0
173
   0
291
   1
45
0.0
1001
ACAD
1000
AcDbSavedByObjectVersion
1070
   0
0
VISUALSTYLE
5
36
102
{ACAD_REACTORS
330
2A
102
}
330
2A
100
AcDbVisualStyle
2
Brighten
70
  12
71
   2
72
   2
73
   0
90
      0
40
-0.6
41
-30.0
62
   5
63
   7
421
16777215
74
   1
91
      4
64
   7
65
 257
75
   1
175
   1
42
1.0
92
      8
66
   7
43
1.0
76
   1
77
   6
78
   2
67
   7
79
   5
170
   0
171
   0
290
   0
174
   0
93
      1
44
50.0
173
   0
291
   1
45
0.0
1001
ACAD
1000
AcDbSavedByObjectVersion
1070
   0
0
VISUALSTYLE
5
3A
102
{ACAD_REACTORS
330
2A
102
}
330
2A
100
AcDbVisualStyle
2
ColorChange
70
  16
71
   2
72
   2
73
   3
90
      0
40
-0.6
41
-30.0
62
   5
63
   8
421
8421504
74
   1
91
      4
64
   7
65
 257
75
   1
175
   1
42
1.0
92
      8
66
   8
424
8421504
43
1.0
76
   1
77
   6
78
   2
67
   7
79
   5
170
   0
171
   0
290
   0
174
   0
93
      1
44
0.0
173
   0
291
   1
45
0.0
1001
ACAD
1000
AcDbSavedByObjectVersion
1070
   0
0
VISUALSTYLE
5
34
102
{ACAD_REACTORS
330
2A
102
}
330
2A
100
AcDbVisualStyle
2
Conceptual
70
   9
71
   3
72
   2
73
   0
90
      0
40
-0.6
41
-30.0
62
   5
63
   7
421
16777215
74
   2
91
      2
64
   7
65
 257
75
   1
175
   1
42
40.0
92
      8
66
   7
43
1.0
76
   1
77
   6
78
   2
67
   7
79
   3
170
   0
171
   0
290
   0
174
   0
93
      1
44
0.0
173
   0
291
   0
45
0.0
1001
ACAD
1000
AcDbSavedByObjectVersion
1070
   0
0
VISUALSTYLE
5
35
102
{ACAD_REACTORS
330
2A
102
}
330
2A
100
AcDbVisualStyle
2
Dim
70
  11
71
   2
72
   2
73
   0
90
      0
40
-0.6
41
-30.0
62
   5
63
   7
421
16777215
74
   1
91
      4
64
   7
65
 257
75
   1
175
   1
42
1.0
92
      8
66
   7
43
1.0
76
   1
77
   6
78
   2
67
   7
79
   5
170
   0
171
   0
290
   0
174
   0
93
      1
44
-50.0
173
   0
291
   1
45
0.0
1001
ACAD
1000
AcDbSavedByObjectVersion
1070
   0
0
VISUALSTYLE
5
39
102
{ACAD_REACTORS
330
2A
102
}
330
2A
100
AcDbVisualStyle
2
Facepattern
70
  15
71
   2
72
   2
73
   0
90
      0
40
-0.6
41
-30.0
62
   5
63
   7
421
16777215
74
   1
91
      4
64
   7
65
 257
75
   1
175
   1
42
1.0
92
      8
66
   7
43
1.0
76
   1
77
   6
78
   2
67
   7
79
   5
170
   0
171
   0
290
   0
174
   0
93
      1
44
0.0
173
   0
291
   1
45
0.0
1001
ACAD
1000
AcDbSavedByObjectVersion
1070
   0
0
VISUALSTYLE
5
2B
102
{ACAD_REACTORS
330
2A
102
}
330
2A
100
AcDbVisualStyle
2
Flat
70
   0
71
   2
72
   1
73
   1
90
      2
40
-0.6
41
30.0
62
   5
63
   7
421
16777215
74
   0
91
      4
64
   7
65
 257
75
   1
175
   1
42
1.0
92
      8
66
   7
43
1.0
76
   1
77
   6
78
   2
67
   7
79
   5
170
   0
171
   0
290
   0
174
   0
93
     13
44
0.0
173
   0
291
   1
45
0.0
1001
ACAD
1000
AcDbSavedByObjectVersion
1070
   0
0
VISUALSTYLE
5
2C
102
{ACAD_REACTORS
330
2A
102
}
330
2A
100
AcDbVisualStyle
2
FlatWithEdges
70
   1
71
   2
72
   1
73
   1
90
      2
40
-0.6
41
30.0
62
   5
63
   7
421
16777215
74
   1
91
      4
64
   7
65
 257
75
   1
175
   1
42
1.0
92
      0
66
 257
43
1.0
76
   1
77
   6
78
   2
67
   7
79
   5
170
   0
171
   0
290
   0
174
   0
93
     13
44
0.0
173
   0
291
   1
45
0.0
1001
ACAD
1000
AcDbSavedByObjectVersion
1070
   0
0
VISUALSTYLE
5
2D
102
{ACAD_REACTORS
330
2A
102
}
330
2A
100
AcDbVisualStyle
2
Gouraud
70
   2
71
   2
72
   2
73
   1
90
      2
40
-0.6
41
30.0
62
   5
63
   7
421
16777215
74
   0
91
      4
64
   7
65
 257
75
   1
175
   1
42
1.0
92
      0
66
   7
43
1.0
76
   1
77
   6
78
   2
67
   7
79
   5
170
   0
171
   0
290
   0
174
   0
93
     13
44
0.0
173
   0
291
   1
45
0.0
1001
ACAD
1000
AcDbSavedByObjectVersion
1070
   0
0
VISUALSTYLE
5
2E
102
{ACAD_REACTORS
330
2A
102
}
330
2A
100
AcDbVisualStyle
2
GouraudWithEdges
70
   3
71
   2
72
   2
73
   1
90
      2
40
-0.6
41
30.0
62
   5
63
   7
421
16777215
74
   1
91
      4
64
   7
65
 257
75
   1
175
   1
42
1.0
92
      0
66
 257
43
1.0
76
   1
77
   6
78
   2
67
   7
79
   5
170
   0
171
   0
290
   0
174
   0
93
     13
44
0.0
173
   0
291
   1
45
0.0
1001
ACAD
1000
AcDbSavedByObjectVersion
1070
   0
0
VISUALSTYLE
5
38
102
{ACAD_REACTORS
330
2A
102
}
330
2A
100
AcDbVisualStyle
2
Linepattern
70
  14
71
   2
72
   2
73
   0
90
      0
40
-0.6
41
-30.0
62
   5
63
   7
421
16777215
74
   1
91
      4
64
   7
65
 257
75
   7
175
   7
42
1.0
92
      8
66
   7
43
1.0
76
   1
77
   6
78
   2
67
   7
79
   5
170
   0
171
   0
290
   0
174
   0
93
      1
44
0.0
173
   0
291
   1
45
0.0
1001
ACAD
1000
AcDbSavedByObjectVersion
1070
   0
0
VISUALSTYLE
5
33
102
{ACAD_REACTORS
330
2A
102
}
330
2A
100
AcDbVisualStyle
2
Realistic
70
   8
71
   2
72
   2
73
   0
90
      0
40
-0.6
41
-30.0
62
   5
63
   7
421
16777215
74
   1
91
      0
64
   7
65
 257
75
   1
175
   1
42
1.0
92
      8
66
   8
424
7895160
43
1.0
76
   1
77
   6
78
   2
67
   7
79
   5
170
   0
171
   0
290
   0
174
   0
93
     13
44
0.0
173
   0
291
   0
45
0.0
1001
ACAD
1000
AcDbSavedByObjectVersion
1070
   0
0
VISUALSTYLE
5
37
102
{ACAD_REACTORS
330
2A
102
}
330
2A
100
AcDbVisualStyle
2
Thicken
70
  13
71
   2
72
   2
73
   0
90
      0
40
-0.6
41
-30.0
62
   5
63
   7
421
16777215
74
   1
91
      4
64
   7
65
 257
75
   1
175
   1
42
1.0
92
     12
66
   7
43
1.0
76
   1
77
   6
78
   2
67
   7
79
   5
170
   0
171
   0
290
   0
174
   0
93
      1
44
0.0
173
   0
291
   1
45
0.0
1001
ACAD
1000
AcDbSavedByObjectVersion
1070
   0
0
ENDSEC
  0
EOF
