  0
SECTION
  2
HEADER
  9
$ACADVER
  1
AC1006
  9
$INSBASE
 10
0.0
 20
0.0
 30
0.0
  9
$EXTMIN
 10
1.000000E+20
 20
1.000000E+20
  9
$EXTMAX
 10
-1.000000E+20
 20
-1.000000E+20
  9
$LIMMIN
 10
0.0
 20
0.0
  9
$LIMMAX
 10
0.0
 20
0.0
  9
$VIEWCTR
 10
6.591288
 20
4.579184
  9
$VIEWSIZE
 40
9.158369
  9
$SNAPMODE
 70
     0
  9
$SNAPUNIT
 10
1.0
 20
1.0
  9
$SNAPBASE
 10
0.0
 20
0.0
  9
$SNAPANG
 50
0.0
  9
$SNAPSTYLE
 70
     0
  9
$SNAPISOPAIR
 70
     0
  9
$GRIDMODE
 70
     0
  9
$GRIDUNIT
 10
0.0
 20
0.0
  9
$ORTHOMODE
 70
     0
  9
$REGENMODE
 70
     1
  9
$FILLMODE
 70
     1
  9
$QTEXTMODE
 70
     0
  9
$MIRRTEXT
 70
     1
  9
$DRAGMODE
 70
     2
  9
$LTSCALE
 40
1.0
  9
$OSMODE
 70
     0
  9
$ATTMODE
 70
     1
  9
$TEXTSIZE
 40
0.2
  9
$TRACEWID
 40
0.05
  9
$TEXTSTYLE
  7
STANDARD
  9
$CLAYER
  8
0
  9
$CELTYPE
  6
CONTINUOUS
  9
$CECOLOR
 62
   256
  9
$DIMSCALE
 40
1.0
  9
$DIMASZ
 40
0.18
  9
$DIMEXO
 40
0.0625
  9
$DIMDLI
 40
0.38
  9
$DIMRND
 40
0.0
  9
$DIMDLE
 40
0.0
  9
$DIMEXE
 40
0.18
  9
$DIMTP
 40
0.0
  9
$DIMTM
 40
0.0
  9
$DIMTXT
 40
0.18
  9
$DIMCEN
 40
0.09
  9
$DIMTSZ
 40
0.0
  9
$DIMTOL
 70
     0
  9
$DIMLIM
 70
     0
  9
$DIMTIH
 70
     1
  9
$DIMTOH
 70
     1
  9
$DIMSE1
 70
     0
  9
$DIMSE2
 70
     0
  9
$DIMTAD
 70
     0
  9
$DIMZIN
 70
     0
  9
$DIMBLK
  1

  9
$DIMASO
 70
     1
  9
$DIMSHO
 70
     1
  9
$DIMPOST
  1

  9
$DIMAPOST
  1

  9
$DIMALT
 70
     0
  9
$DIMALTD
 70
     2
  9
$DIMALTF
 40
25.4
  9
$DIMLFAC
 40
1.0
  9
$DIMTOFL
 70
     0
  9
$DIMTVP
 40
0.0
  9
$DIMTIX
 70
     0
  9
$DIMSOXD
 70
     0
  9
$DIMSAH
 70
     0
  9
$DIMBLK1
  1

  9
$DIMBLK2
  1

  9
$LUNITS
 70
     2
  9
$LUPREC
 70
     4
  9
$AXISMODE
 70
     0
  9
$AXISUNIT
 10
0.0
 20
0.0
  9
$SKETCHINC
 40
0.1
  9
$FILLETRAD
 40
0.0
  9
$AUNITS
 70
     0
  9
$AUPREC
 70
     0
  9
$MENU
  1
acad
  9
$ELEVATION
 40
0.0
  9
$THICKNESS
 40
0.0
  9
$LIMCHECK
 70
     0
  9
$BLIPMODE
 70
     1
  9
$CHAMFERA
 40
0.0
  9
$CHAMFERB
 40
0.0
  9
$SKPOLY
 70
     0
  9
$TDCREATE
 40
0.000000000
  9
$TDUPDATE
 40
0.000000000
  9
$TDINDWG
 40
0.0000000000
  9
$TDUSRTIMER
 40
0.0000000000
  9
$USRTIMER
 70
     1
  9
$ANGBASE
 50
0.0
  9
$ANGDIR
 70
     0
  9
$PDMODE
 70
     0
  9
$PDSIZE
 40
0.0
  9
$PLINEWID
 40
0.0
  9
$COORDS
 70
     0
  9
$SPLFRAME
 70
     0
  9
$SPLINETYPE
 70
     6
  9
$SPLINESEGS
 70
     8
  9
$ATTDIA
 70
     0
  9
$ATTREQ
 70
     1
  9
$HANDLING
 70
     1
  9
$HANDSEED
  5
262
  9
$SURFTAB1
 70
     6
  9
$SURFTAB2
 70
     6
  9
$SURFTYPE
 70
     6
  9
$SURFU
 70
     6
  9
$SURFV
 70
     6
  9
$FLATLAND
 70
     0
  9
$UCSNAME
  2

  9
$UCSORG
 10
0.0
 20
0.0
 30
0.0
  9
$UCSXDIR
 10
1.0
 20
0.0
 30
0.0
  9
$UCSYDIR
 10
0.0
 20
1.0
 30
0.0
  9
$USERI1
 70
     0
  9
$USERI2
 70
     0
  9
$USERI3
 70
     0
  9
$USERI4
 70
     0
  9
$USERI5
 70
     0
  9
$USERR1
 40
0.0
  9
$USERR2
 40
0.0
  9
$USERR3
 40
0.0
  9
$USERR4
 40
0.0
  9
$USERR5
 40
0.0
  9
$WORLDVIEW
 70
     1
  0
ENDSEC
  0
SECTION
  2
TABLES
  0
TABLE
  2
VPORT
 70
     1
  0
VPORT
  2
*ACTIVE
 70
     0
 10
0.0
 20
0.0
 11
1.0
 21
1.0
 12
6.591288
 22
4.579184
 13
0.0
 23
0.0
 14
1.0
 24
1.0
 15
0.0
 25
0.0
 16
0.0
 26
0.0
 36
1.0
 17
0.0
 27
0.0
 37
0.0
 40
9.158369
 41
0.688564
 42
50.0
 43
0.0
 44
0.0
 50
0.0
 51
0.0
 71
     0
 72
   100
 73
     1
 74
     1
 75
     0
 76
     0
 77
     0
 78
     0
  0
ENDTAB
  0
TABLE
  2
LTYPE
 70
    25
  0
LTYPE
  2
CONTINUOUS
 70
     0
  3
Solid line
 72
    65
 73
     0
 40
0.0
  0
LTYPE
  2
BORDER
 70
     0
  3
Border __ __ . __ __ . __ __ . __ __ . __ __ .
 72
    65
 73
     6
 40
1.75
 49
0.5
 49
-0.25
 49
0.5
 49
-0.25
 49
0.0
 49
-0.25
  0
LTYPE
  2
BORDER2
 70
     0
  3
Border (.5x) __.__.__.__.__.__.__.__.__.__.__.
 72
    65
 73
     6
 40
0.875
 49
0.25
 49
-0.125
 49
0.25
 49
-0.125
 49
0.0
 49
-0.125
  0
LTYPE
  2
BORDERX2
 70
     0
  3
Border (2x) ____  ____  .  ____  ____  .  ___
 72
    65
 73
     6
 40
3.5
 49
1.0
 49
-0.5
 49
1.0
 49
-0.5
 49
0.0
 49
-0.5
  0
LTYPE
  2
CENTER
 70
     0
  3
Center ____ _ ____ _ ____ _ ____ _ ____ _ ____
 72
    65
 73
     4
 40
2.0
 49
1.25
 49
-0.25
 49
0.25
 49
-0.25
  0
LTYPE
  2
CENTER2
 70
     0
  3
Center (.5x) ___ _ ___ _ ___ _ ___ _ ___ _ ___
 72
    65
 73
     4
 40
1.125
 49
0.75
 49
-0.125
 49
0.125
 49
-0.125
  0
LTYPE
  2
CENTERX2
 70
     0
  3
Center (2x) ________  __  ________  __  _____
 72
    65
 73
     4
 40
4.0
 49
2.5
 49
-0.5
 49
0.5
 49
-0.5
  0
LTYPE
  2
DASHDOT
 70
     0
  3
Dash dot __ . __ . __ . __ . __ . __ . __ . __
 72
    65
 73
     4
 40
1.0
 49
0.5
 49
-0.25
 49
0.0
 49
-0.25
  0
LTYPE
  2
DASHDOT2
 70
     0
  3
Dash dot (.5x) _._._._._._._._._._._._._._._.
 72
    65
 73
     4
 40
0.5
 49
0.25
 49
-0.125
 49
0.0
 49
-0.125
  0
LTYPE
  2
DASHDOTX2
 70
     0
  3
Dash dot (2x) ____  .  ____  .  ____  .  ___
 72
    65
 73
     4
 40
2.0
 49
1.0
 49
-0.5
 49
0.0
 49
-0.5
  0
LTYPE
  2
DASHED
 70
     0
  3
Dashed __ __ __ __ __ __ __ __ __ __ __ __ __ _
 72
    65
 73
     2
 40
0.75
 49
0.5
 49
-0.25
  0
LTYPE
  2
DASHED2
 70
     0
  3
Dashed (.5x) _ _ _ _ _ _ _ _ _ _ _ _ _ _ _ _ _
 72
    65
 73
     2
 40
0.375
 49
0.25
 49
-0.125
  0
LTYPE
  2
DASHEDX2
 70
     0
  3
Dashed (2x) ____  ____  ____  ____  ____  ___
 72
    65
 73
     2
 40
1.5
 49
1.0
 49
-0.5
  0
LTYPE
  2
DIVIDE
 70
     0
  3
Divide ____ . . ____ . . ____ . . ____ . . ____
 72
    65
 73
     6
 40
1.25
 49
0.5
 49
-0.25
 49
0.0
 49
-0.25
 49
0.0
 49
-0.25
  0
LTYPE
  2
DIVIDE2
 70
     0
  3
Divide (.5x) __..__..__..__..__..__..__..__.._
 72
    65
 73
     6
 40
0.625
 49
0.25
 49
-0.125
 49
0.0
 49
-0.125
 49
0.0
 49
-0.125
  0
LTYPE
  2
DIVIDEX2
 70
     0
  3
Divide (2x) ________  .  .  ________  .  .  _
 72
    65
 73
     6
 40
2.5
 49
1.0
 49
-0.5
 49
0.0
 49
-0.5
 49
0.0
 49
-0.5
  0
LTYPE
  2
DOT
 70
     0
  3
Dot . . . . . . . . . . . . . . . . . . . . . .
 72
    65
 73
     2
 40
0.25
 49
0.0
 49
-0.25
  0
LTYPE
  2
DOT2
 70
     0
  3
Dot (.5x) .....................................
 72
    65
 73
     2
 40
0.125
 49
0.0
 49
-0.125
  0
LTYPE
  2
DOTX2
 70
     0
  3
Dot (2x) .  .  .  .  .  .  .  .  .  .  .  .  . 
 72
    65
 73
     2
 40
0.5
 49
0.0
 49
-0.5
  0
LTYPE
  2
HIDDEN
 70
     0
  3
Hidden __ __ __ __ __ __ __ __ __ __ __ __ __ _
 72
    65
 73
     2
 40
0.375
 49
0.25
 49
-0.125
  0
LTYPE
  2
HIDDEN2
 70
     0
  3
Hidden (.5x) _ _ _ _ _ _ _ _ _ _ _ _ _ _ _ _ _
 72
    65
 73
     2
 40
0.1875
 49
0.125
 49
-0.0625
  0
LTYPE
  2
HIDDENX2
 70
     0
  3
Hidden (2x) ____ ____ ____ ____ ____ ____ ____
 72
    65
 73
     2
 40
0.75
 49
0.5
 49
-0.25
  0
LTYPE
  2
PHANTOM
 70
     0
  3
Phantom ______  __  __  ______  __  __  ______
 72
    65
 73
     6
 40
2.5
 49
1.25
 49
-0.25
 49
0.25
 49
-0.25
 49
0.25
 49
-0.25
  0
LTYPE
  2
PHANTOM2
 70
     0
  3
Phantom (.5x) ___ _ _ ___ _ _ ___ _ _ ___ _ _
 72
    65
 73
     6
 40
1.25
 49
0.625
 49
-0.125
 49
0.125
 49
-0.125
 49
0.125
 49
-0.125
  0
LTYPE
  2
PHANTOMX2
 70
     0
  3
Phantom (2x) ____________    ____    ____   _
 72
    65
 73
     6
 40
5.0
 49
2.5
 49
-0.5
 49
0.5
 49
-0.5
 49
0.5
 49
-0.5
  0
ENDTAB
  0
TABLE
  2
LAYER
 70
    11
  0
LAYER
  2
0
 70
     0
 62
     7
  6
CONTINUOUS
  0
LAYER
  2
0
 70
     0
 62
     1
  6
CONTINUOUS
  0
LAYER
  2
OBJ
 70
     4
 62
     2
  6
CONTINUOUS
  0
LAYER
  2
DADO
 70
     4
 62
     2
  6
DOT
  0
LAYER
  2
T0000
 70
     0
 62
     2
  6
DOT
  0
LAYER
  2
JUNK
 70
     0
 62
     2
  6
DOT
  0
LAYER
  2
LUR
 70
     0
 62
     2
  6
DOT
  0
LAYER
  2
DROP_DOOR
 70
     4
 62
     2
  6
DOT
  0
LAYER
  2
COMMONLINE
 70
     4
 62
     7
  6
CONTINUOUS
  0
LAYER
  2
COMMONCROSS
 70
     4
 62
     8
  6
CONTINUOUS
  0
LAYER
  2
SLUG_AND_UNTOOLED
 70
     0
 62
     2
  6
DOT
  0
ENDTAB
  0
TABLE
  2
STYLE
 70
     1
  0
STYLE
  2
STANDARD
 70
     0
 40
0.0
 41
1.0
 50
0.0
 71
     0
 42
0.0
  3
txt
  4

  0
ENDTAB
  0
TABLE
  2
VIEW
 70
     0
  0
ENDTAB
  0
TABLE
  2
UCS
 70
     0
  0
ENDTAB
  0
ENDSEC
  0
SECTION
  2
BLOCKS
  0
ENDSEC
  0
SECTION
  2
ENTITIES
  0
LINE
  8
OBJ
  6
CONTINUOUS
 62
     1
  5
3F
 10
1444.90006
 20
318.267515
 30
0.0
 11
1445.20249
 21
316.29053
 31
0.0
  0
LINE
  8
OBJ
  6
CONTINUOUS
 62
     1
  5
40
 10
1445.20249
 20
316.29053
 30
0.0
 11
1482.748525
 21
322.03594
 31
0.0
  0
LINE
  8
OBJ
  6
CONTINUOUS
 62
     1
  5
41
 10
1482.748525
 20
322.03594
 30
0.0
 11
1482.531485
 21
324.026005
 31
0.0
  0
LINE
  8
OBJ
  6
CONTINUOUS
 62
     1
  5
42
 10
1482.531485
 20
324.026005
 30
0.0
 11
1444.90006
 21
318.267515
 31
0.0
  0
LINE
  8
OBJ
  6
CONTINUOUS
 62
     1
  5
43
 10
857.5207
 20
225.35852
 30
0.0
 11
878.727255
 21
225.483995
 31
0.0
  0
LINE
  8
OBJ
  6
CONTINUOUS
 62
     1
  5
44
 10
878.727255
 20
225.483995
 30
0.0
 11
878.727255
 21
227.61704
 31
0.0
  0
LINE
  8
OBJ
  6
CONTINUOUS
 62
     1
  5
45
 10
878.727255
 20
227.61704
 30
0.0
 11
867.10533
 21
227.322
 31
0.0
  0
LINE
  8
OBJ
  6
CONTINUOUS
 62
     1
  5
46
 10
867.10533
 20
227.322
 30
0.0
 11
865.66834
 21
258.07303
 31
0.0
  0
LINE
  8
OBJ
  6
CONTINUOUS
 62
     1
  5
47
 10
865.66834
 20
258.07303
 30
0.0
 11
863.418355
 21
258.07303
 31
0.0
  0
LINE
  8
OBJ
  6
CONTINUOUS
 62
     1
  5
48
 10
863.418355
 20
258.07303
 30
0.0
 11
864.855285
 21
227.322
 31
0.0
  0
LINE
  8
OBJ
  6
CONTINUOUS
 62
     1
  5
49
 10
864.855285
 20
227.322
 30
0.0
 11
857.52064
 21
227.366025
 31
0.0
  0
LINE
  8
OBJ
  6
CONTINUOUS
 62
     1
  5
4A
 10
857.52064
 20
227.366025
 30
0.0
 11
857.5207
 21
225.35852
 31
0.0
  0
ARC
  8
OBJ
  6
CONTINUOUS
 62
     1
  5
4B
 10
1278.389635
 20
347.927045
 30
0.0
 40
64.461055
 50
20.36126
 51
74.348391
  0
LINE
  8
OBJ
  6
CONTINUOUS
 62
     1
  5
4C
 10
1338.822999
 20
370.355511
 30
0.0
 11
1340.36599
 21
370.809975
 31
0.0
  0
ARC
  8
OBJ
  6
CONTINUOUS
 62
     1
  5
4D
 10
1279.438336
 20
349.76257
 30
0.0
 40
64.460626
 50
19.057427
 51
74.818503
  0
LINE
  8
OBJ
  6
CONTINUOUS
 62
     1
  5
4E
 10
1296.319125
 20
411.973592
 30
0.0
 11
1295.780408
 21
409.997881
 31
0.0
  0
LINE
  8
OBJ
  6
CONTINUOUS
 62
     1
  5
4F
 10
1451.916105
 20
345.811985
 30
0.0
 11
1453.916105
 21
345.811985
 31
0.0
  0
LINE
  8
OBJ
  6
CONTINUOUS
 62
     1
  5
50
 10
1453.916105
 20
345.811985
 30
0.0
 11
1453.916105
 21
404.37999
 31
0.0
  0
LINE
  8
OBJ
  6
CONTINUOUS
 62
     1
  5
51
 10
1453.916105
 20
404.37999
 30
0.0
 11
1451.916105
 21
404.37999
 31
0.0
  0
LINE
  8
OBJ
  6
CONTINUOUS
 62
     1
  5
52
 10
1451.916105
 20
404.37999
 30
0.0
 11
1451.916105
 21
345.811985
 31
0.0
  0
LINE
  8
OBJ
  6
CONTINUOUS
 62
     1
  5
53
 10
1461.91598
 20
345.811985
 30
0.0
 11
1463.9161
 21
345.811985
 31
0.0
  0
LINE
  8
OBJ
  6
CONTINUOUS
 62
     1
  5
54
 10
1463.9161
 20
345.811985
 30
0.0
 11
1463.9161
 21
404.37999
 31
0.0
  0
LINE
  8
OBJ
  6
CONTINUOUS
 62
     1
  5
55
 10
1463.9161
 20
404.37999
 30
0.0
 11
1461.91598
 21
404.37999
 31
0.0
  0
LINE
  8
OBJ
  6
CONTINUOUS
 62
     1
  5
56
 10
1461.91598
 20
404.37999
 30
0.0
 11
1461.91598
 21
345.811985
 31
0.0
  0
LINE
  8
OBJ
  6
CONTINUOUS
 62
     1
  5
57
 10
1471.717585
 20
347.85401
 30
0.0
 11
1473.717585
 21
347.85401
 31
0.0
  0
LINE
  8
OBJ
  6
CONTINUOUS
 62
     1
  5
58
 10
1473.717585
 20
347.85401
 30
0.0
 11
1473.717585
 21
406.42202
 31
0.0
  0
LINE
  8
OBJ
  6
CONTINUOUS
 62
     1
  5
59
 10
1473.717585
 20
406.42202
 30
0.0
 11
1471.717585
 21
406.42202
 31
0.0
  0
LINE
  8
OBJ
  6
CONTINUOUS
 62
     1
  5
5A
 10
1471.717585
 20
406.42202
 30
0.0
 11
1471.717585
 21
347.85401
 31
0.0
  0
LINE
  8
OBJ
  6
CONTINUOUS
 62
     1
  5
5B
 10
1481.06016
 20
349.207005
 30
0.0
 11
1483.06004
 21
349.207005
 31
0.0
  0
LINE
  8
OBJ
  6
CONTINUOUS
 62
     1
  5
5C
 10
1483.06004
 20
349.207005
 30
0.0
 11
1483.06004
 21
407.770045
 31
0.0
  0
LINE
  8
OBJ
  6
CONTINUOUS
 62
     1
  5
5D
 10
1483.06004
 20
407.770045
 30
0.0
 11
1481.06016
 21
407.770045
 31
0.0
  0
LINE
  8
OBJ
  6
CONTINUOUS
 62
     1
  5
5E
 10
1481.06016
 20
407.770045
 30
0.0
 11
1481.06016
 21
349.207005
 31
0.0
  0
LINE
  8
OBJ
  6
CONTINUOUS
 62
     1
  5
5F
 10
1337.38264
 20
290.38998
 30
0.0
 11
1346.03449
 21
290.05697
 31
0.0
  0
LINE
  8
OBJ
  6
CONTINUOUS
 62
     1
  5
60
 10
1346.03449
 20
290.05697
 30
0.0
 11
1357.016015
 21
307.694035
 31
0.0
  0
LINE
  8
OBJ
  6
CONTINUOUS
 62
     1
  5
61
 10
1357.016015
 20
307.694035
 30
0.0
 11
1345.702145
 21
305.364475
 31
0.0
  0
LINE
  8
OBJ
  6
CONTINUOUS
 62
     1
  5
62
 10
1345.702145
 20
305.364475
 30
0.0
 11
1337.38264
 21
290.38998
 31
0.0
  0
LINE
  8
OBJ
  6
CONTINUOUS
 62
     1
  5
63
 10
894.37383
 20
354.592455
 30
0.0
 11
896.552115
 21
353.775525
 31
0.0
  0
LINE
  8
OBJ
  6
CONTINUOUS
 62
     1
  5
64
 10
896.552115
 20
353.775525
 30
0.0
 11
903.90329
 21
363.577495
 31
0.0
  0
LINE
  8
OBJ
  6
CONTINUOUS
 62
     1
  5
65
 10
903.90329
 20
363.577495
 30
0.0
 11
958.629415
 21
355.40951
 31
0.0
  0
LINE
  8
OBJ
  6
CONTINUOUS
 62
     1
  5
66
 10
958.629415
 20
355.40951
 30
0.0
 11
959.173955
 21
357.58755
 31
0.0
  0
LINE
  8
OBJ
  6
CONTINUOUS
 62
     1
  5
67
 10
959.173955
 20
357.58755
 30
0.0
 11
902.541935
 21
366.299955
 31
0.0
  0
LINE
  8
OBJ
  6
CONTINUOUS
 62
     1
  5
68
 10
902.541935
 20
366.299955
 30
0.0
 11
894.37383
 21
354.592455
 31
0.0
  0
ARC
  8
OBJ
  6
CONTINUOUS
 62
     1
  5
69
 10
1355.67949
 20
224.59403
 30
0.0
 40
26.3905
 50
-155.187805
 51
-91.4335
  0
LINE
  8
OBJ
  6
CONTINUOUS
 62
     1
  5
6A
 10
1355.019287
 20
198.211789
 30
0.0
 11
1341.04303
 21
218.843535
 31
0.0
  0
LINE
  8
OBJ
  6
CONTINUOUS
 62
     1
  5
6B
 10
1341.04303
 20
218.843535
 30
0.0
 11
1331.725145
 21
213.519381
 31
0.0
  0
ARC
  8
OBJ
  6
CONTINUOUS
 62
     1
  5
6C
 10
1383.325736
 20
296.513839
 30
0.0
 40
67.714687
 50
77.228694
 51
85.199435
  0
ARC
  8
OBJ
  6
CONTINUOUS
 62
     1
  5
6D
 10
1388.620065
 20
318.084995
 30
0.0
 40
45.508545
 50
32.06766
 51
77.725791
  0
ARC
  8
OBJ
  6
CONTINUOUS
 62
     1
  5
6E
 10
1330.471341
 20
292.276933
 30
0.0
 40
108.859906
 50
8.81187
 51
27.324244
  0
ARC
  8
OBJ
  6
CONTINUOUS
 62
     1
  5
6F
 10
1258.299535
 20
263.982555
 30
0.0
 40
185.287005
 50
6.522468
 51
14.04644
  0
LINE
  8
OBJ
  6
CONTINUOUS
 62
     1
  5
70
 10
1442.387249
 20
285.029829
 30
0.0
 11
1444.794722
 21
285.282137
 31
0.0
  0
ARC
  8
OBJ
  6
CONTINUOUS
 62
     1
  5
71
 10
1181.53702
 20
250.29347
 30
0.0
 40
265.572635
 50
7.570615
 51
18.61488
  0
ARC
  8
OBJ
  6
CONTINUOUS
 62
     1
  5
72
 10
1409.519487
 20
327.115749
 30
0.0
 40
24.994876
 50
18.545836
 51
27.797219
  0
ARC
  8
OBJ
  6
CONTINUOUS
 62
     1
  5
73
 10
1387.429857
 20
315.398295
 30
0.0
 40
49.999844
 50
27.870492
 51
81.769224
  0
ARC
  8
OBJ
  6
CONTINUOUS
 62
     1
  5
74
 10
1386.825297
 20
311.3605
 30
0.0
 40
54.0826
 50
81.747739
 51
82.608862
  0
ARC
  8
OBJ
  6
CONTINUOUS
 62
     1
  5
75
 10
1383.547514
 20
300.128115
 30
0.0
 40
65.668145
 50
81.033278
 51
85.046181
  0
LINE
  8
OBJ
  6
CONTINUOUS
 62
     1
  5
76
 10
1389.21814
 20
365.550965
 30
0.0
 11
1388.99262
 21
363.990985
 31
0.0
  0
ARC
  8
OBJ
  6
CONTINUOUS
 62
     1
  5
77
 10
841.387665
 20
313.78499
 30
0.0
 40
0.040995
 50
164.984829
 51
-15.38821
  0
ARC
  8
OBJ
  6
CONTINUOUS
 62
     1
  5
78
 10
842.050267
 20
313.579757
 30
0.0
 40
0.652685
 50
118.041898
 51
162.675871
  0
ARC
  8
OBJ
  6
CONTINUOUS
 62
     1
  5
79
 10
841.410855
 20
314.892965
 30
0.0
 40
0.808695
 50
-65.716817
 51
-52.789482
  0
ARC
  8
OBJ
  6
CONTINUOUS
 62
     1
  5
7A
 10
841.805027
 20
314.452751
 30
0.0
 40
0.224846
 50
-65.039821
 51
-26.076227
  0
LINE
  8
OBJ
  6
CONTINUOUS
 62
     1
  5
7B
 10
842.006987
 20
314.353916
 30
0.0
 11
842.451689
 21
314.807664
 31
0.0
  0
ARC
  8
OBJ
  6
CONTINUOUS
 62
     1
  5
7C
 10
842.385905
 20
314.86002
 30
0.0
 40
0.084075
 50
-38.51549
 51
11.973881
  0
ARC
  8
OBJ
  6
CONTINUOUS
 62
     1
  5
7D
 10
842.281503
 20
314.907972
 30
0.0
 40
0.189125
 50
-9.283431
 51
39.713724
  0
LINE
  8
OBJ
  6
CONTINUOUS
 62
     1
  5
7E
 10
842.426987
 20
315.028814
 30
0.0
 11
842.27878
 21
315.26152
 31
0.0
  0
LINE
  8
OBJ
  6
CONTINUOUS
 62
     1
  5
7F
 10
842.27878
 20
315.26152
 30
0.0
 11
842.150455
 21
315.30694
 31
0.0
  0
LINE
  8
OBJ
  6
CONTINUOUS
 62
     1
  5
80
 10
842.150455
 20
315.30694
 30
0.0
 11
842.08893
 21
315.550265
 31
0.0
  0
LINE
  8
OBJ
  6
CONTINUOUS
 62
     1
  5
81
 10
842.08893
 20
315.550265
 30
0.0
 11
842.36774
 21
315.960125
 31
0.0
  0
LINE
  8
OBJ
  6
CONTINUOUS
 62
     1
  5
82
 10
842.36774
 20
315.960125
 30
0.0
 11
842.440111
 21
316.470392
 31
0.0
  0
ARC
  8
OBJ
  6
CONTINUOUS
 62
     1
  5
83
 10
846.201685
 20
316.17801
 30
0.0
 40
3.77292
 50
142.8283
 51
175.555414
  0
ARC
  8
OBJ
  6
CONTINUOUS
 62
     1
  5
84
 10
843.37087
 20
318.384162
 30
0.0
 40
0.190308
 50
67.525075
 51
157.291336
  0
LINE
  8
OBJ
  6
CONTINUOUS
 62
     1
  5
85
 10
843.44362
 20
318.560015
 30
0.0
 11
844.27121
 21
318.458035
 31
0.0
  0
ARC
  8
OBJ
  6
CONTINUOUS
 62
     1
  5
86
 10
844.341394
 20
317.984542
 30
0.0
 40
0.478666
 50
50.839926
 51
98.431337
  0
ARC
  8
OBJ
  6
CONTINUOUS
 62
     1
  5
87
 10
842.855175
 20
315.597015
 30
0.0
 40
3.287705
 50
46.717688
 51
57.044061
  0
ARC
  8
OBJ
  6
CONTINUOUS
 62
     1
  5
88
 10
848.949302
 20
321.644612
 30
0.0
 40
5.300898
 50
-136.420949
 51
-131.79083
  0
ARC
  8
OBJ
  6
CONTINUOUS
 62
     1
  5
89
 10
845.90021
 20
316.758866
 30
0.0
 40
1.051271
 50
117.381646
 51
132.790456
  0
ARC
  8
OBJ
  6
CONTINUOUS
 62
     1
  5
8A
 10
843.552298
 20
321.621524
 30
0.0
 40
4.405341
 50
-82.872212
 51
-68.231341
  0
ARC
  8
OBJ
  6
CONTINUOUS
 62
     1
  5
8B
 10
844.024795
 20
316.17692
 30
0.0
 40
1.075865
 50
86.049048
 51
107.371502
  0
ARC
  8
OBJ
  6
CONTINUOUS
 62
     1
  5
8C
 10
843.822497
 20
316.818762
 30
0.0
 40
0.402901
 50
107.166908
 51
-171.951189
  0
LINE
  8
OBJ
  6
CONTINUOUS
 62
     1
  5
8D
 10
843.423565
 20
316.762349
 30
0.0
 11
843.357625
 21
314.90117
 31
0.0
  0
LINE
  8
OBJ
  6
CONTINUOUS
 62
     1
  5
8E
 10
843.357625
 20
314.90117
 30
0.0
 11
843.308239
 21
314.109332
 31
0.0
  0
ARC
  8
OBJ
  6
CONTINUOUS
 62
     1
  5
8F
 10
842.71625
 20
313.305975
 30
0.0
 40
0.997915
 50
27.084651
 51
53.613719
  0
ARC
  8
OBJ
  6
CONTINUOUS
 62
     1
  5
90
 10
832.454913
 20
308.012482
 30
0.0
 40
12.544169
 50
25.141539
 51
27.271593
  0
LINE
  8
OBJ
  6
CONTINUOUS
 62
     1
  5
91
 10
843.81066
 20
313.341945
 30
0.0
 11
843.8189
 21
313.23754
 31
0.0
  0
ARC
  8
OBJ
  6
CONTINUOUS
 62
     1
  5
92
 10
844.430995
 20
313.327626
 30
0.0
 40
0.618689
 50
-171.627514
 51
-143.417002
  0
ARC
  8
OBJ
  6
CONTINUOUS
 62
     1
  5
93
 10
842.99706
 20
312.31197
 30
0.0
 40
1.13874
 50
17.607917
 51
34.61831
  0
ARC
  8
OBJ
  6
CONTINUOUS
 62
     1
  5
94
 10
843.865421
 20
312.529769
 30
0.0
 40
0.25129
 50
-5.827709
 51
30.270646
  0
ARC
  8
OBJ
  6
CONTINUOUS
 62
     1
  5
95
 10
843.659716
 20
312.399752
 30
0.0
 40
0.467525
 50
-7.11446
 51
12.915922
  0
ARC
  8
OBJ
  6
CONTINUOUS
 62
     1
  5
96
 10
844.172799
 20
312.343037
 30
0.0
 40
0.049172
 50
-178.614585
 51
-79.945508
  0
LINE
  8
OBJ
  6
CONTINUOUS
 62
     1
  5
97
 10
844.181384
 20
312.294621
 30
0.0
 11
844.321318
 21
312.364954
 31
0.0
  0
ARC
  8
OBJ
  6
CONTINUOUS
 62
     1
  5
98
 10
841.901728
 20
313.519949
 30
0.0
 40
2.681125
 50
-25.517548
 51
3.911716
  0
ARC
  8
OBJ
  6
CONTINUOUS
 62
     1
  5
99
 10
844.483407
 20
313.731946
 30
0.0
 40
0.097635
 50
-17.335854
 51
63.335524
  0
ARC
  8
OBJ
  6
CONTINUOUS
 62
     1
  5
9A
 10
844.243903
 20
313.52146
 30
0.0
 40
0.410996
 50
46.421444
 51
77.967031
  0
LINE
  8
OBJ
  6
CONTINUOUS
 62
     1
  5
9B
 10
844.329585
 20
313.923425
 30
0.0
 11
844.230666
 21
313.923194
 31
0.0
  0
ARC
  8
OBJ
  6
CONTINUOUS
 62
     1
  5
9C
 10
845.250555
 20
314.583995
 30
0.0
 40
1.21525
 50
-163.995412
 51
-147.060208
  0
ARC
  8
OBJ
  6
CONTINUOUS
 62
     1
  5
9D
 10
844.255225
 20
314.319105
 30
0.0
 40
0.18652
 50
131.405025
 51
-157.900468
  0
LINE
  8
OBJ
  6
CONTINUOUS
 62
     1
  5
9E
 10
844.131865
 20
314.459005
 30
0.0
 11
844.214225
 21
314.64498
 31
0.0
  0
LINE
  8
OBJ
  6
CONTINUOUS
 62
     1
  5
9F
 10
844.214225
 20
314.64498
 30
0.0
 11
844.065963
 21
315.948284
 31
0.0
  0
ARC
  8
OBJ
  6
CONTINUOUS
 62
     1
  5
A0
 10
844.213857
 20
315.922584
 30
0.0
 40
0.15011
 50
70.63064
 51
170.141976
  0
ARC
  8
OBJ
  6
CONTINUOUS
 62
     1
  5
A1
 10
845.15312
 20
310.626025
 30
0.0
 40
5.510435
 50
88.287033
 51
99.289155
  0
ARC
  8
OBJ
  6
CONTINUOUS
 62
     1
  5
A2
 10
845.36732
 20
315.950372
 30
0.0
 40
0.190175
 50
46.157857
 51
105.080679
  0
ARC
  8
OBJ
  6
CONTINUOUS
 62
     1
  5
A3
 10
847.981554
 20
327.131008
 30
0.0
 40
11.319059
 50
-102.669141
 51
-94.981957
  0
LINE
  8
OBJ
  6
CONTINUOUS
 62
     1
  5
A4
 10
846.998584
 20
315.854711
 30
0.0
 11
847.459312
 21
315.924293
 31
0.0
  0
ARC
  8
OBJ
  6
CONTINUOUS
 62
     1
  5
A5
 10
844.96969
 20
313.27
 30
0.0
 40
3.63916
 50
24.805654
 51
46.833571
  0
ARC
  8
OBJ
  6
CONTINUOUS
 62
     1
  5
A6
 10
853.462051
 20
318.354827
 30
0.0
 40
6.291665
 50
-145.561755
 51
-139.077566
  0
ARC
  8
OBJ
  6
CONTINUOUS
 62
     1
  5
A7
 10
858.598475
 20
324.750792
 30
0.0
 40
14.43718
 50
-133.240634
 51
-112.022697
  0
LINE
  8
OBJ
  6
CONTINUOUS
 62
     1
  5
A8
 10
853.18491
 20
311.367015
 30
0.0
 11
853.86758
 21
311.15894
 31
0.0
  0
ARC
  8
OBJ
  6
CONTINUOUS
 62
     1
  5
A9
 10
868.887471
 20
313.654598
 30
0.0
 40
15.225815
 50
-170.5661
 51
-150.610588
  0
ARC
  8
OBJ
  6
CONTINUOUS
 62
     1
  5
AA
 10
859.565147
 20
308.657712
 30
0.0
 40
4.656297
 50
-147.889499
 51
-137.787845
  0
ARC
  8
OBJ
  6
CONTINUOUS
 62
     1
  5
AB
 10
853.371775
 20
303.852
 30
0.0
 40
3.216545
 50
-1.483446
 51
31.429207
  0
ARC
  8
OBJ
  6
CONTINUOUS
 62
     1
  5
AC
 10
852.890079
 20
303.864441
 30
0.0
 40
3.698402
 50
-17.102974
 51
-1.482929
  0
ARC
  8
OBJ
  6
CONTINUOUS
 62
     1
  5
AD
 10
863.581678
 20
300.559819
 30
0.0
 40
7.492261
 50
162.788491
 51
173.290268
  0
ARC
  8
OBJ
  6
CONTINUOUS
 62
     1
  5
AE
 10
854.121076
 20
301.592977
 30
0.0
 40
2.02581
 50
-34.707396
 51
-4.466619
  0
LINE
  8
OBJ
  6
CONTINUOUS
 62
     1
  5
AF
 10
855.786435
 20
300.43951
 30
0.0
 11
855.727265
 21
300.434425
 31
0.0
  0
ARC
  8
OBJ
  6
CONTINUOUS
 62
     1
  5
B0
 10
855.719442
 20
300.389544
 30
0.0
 40
0.045558
 50
80.112375
 51
169.853748
  0
LINE
  8
OBJ
  6
CONTINUOUS
 62
     1
  5
B1
 10
855.674597
 20
300.397569
 30
0.0
 11
855.332382
 21
299.978282
 31
0.0
  0
ARC
  8
OBJ
  6
CONTINUOUS
 62
     1
  5
B2
 10
841.151365
 20
299.697065
 30
0.0
 40
14.183805
 50
0.88138
 51
1.136056
  0
LINE
  8
OBJ
  6
CONTINUOUS
 62
     1
  5
B3
 10
855.333492
 20
299.915246
 30
0.0
 11
855.291005
 21
299.77043
 31
0.0
  0
LINE
  8
OBJ
  6
CONTINUOUS
 62
     1
  5
B4
 10
855.291005
 20
299.77043
 30
0.0
 11
858.476301
 21
299.727845
 31
0.0
  0
ARC
  8
OBJ
  6
CONTINUOUS
 62
     1
  5
B5
 10
858.045457
 20
299.917328
 30
0.0
 40
0.47067
 50
-23.739649
 51
-5.620068
  0
ARC
  8
OBJ
  6
CONTINUOUS
 62
     1
  5
B6
 10
858.202065
 20
299.911232
 30
0.0
 40
0.314355
 50
-7.309936
 51
35.677205
  0
LINE
  8
OBJ
  6
CONTINUOUS
 62
     1
  5
B7
 10
858.45742
 20
300.09457
 30
0.0
 11
858.592805
 21
300.226676
 31
0.0
  0
ARC
  8
OBJ
  6
CONTINUOUS
 62
     1
  5
B8
 10
858.474495
 20
300.518965
 30
0.0
 40
0.315325
 50
-67.963344
 51
12.027205
  0
ARC
  8
OBJ
  6
CONTINUOUS
 62
     1
  5
B9
 10
859.480793
 20
300.784786
 30
0.0
 40
0.726019
 50
179.357298
 51
-164.00025
  0
LINE
  8
OBJ
  6
CONTINUOUS
 62
     1
  5
BA
 10
858.75482
 20
300.79293
 30
0.0
 11
858.60058
 21
303.349945
 31
0.0
  0
ARC
  8
OBJ
  6
CONTINUOUS
 62
     1
  5
BB
 10
859.451187
 20
303.533404
 30
0.0
 40
0.870166
 50
149.947874
 51
-167.82888
  0
ARC
  8
OBJ
  6
CONTINUOUS
 62
     1
  5
BC
 10
845.11275
 20
310.241538
 30
0.0
 40
14.963339
 50
-24.782968
 51
-22.291804
  0
ARC
  8
OBJ
  6
CONTINUOUS
 62
     1
  5
BD
 10
858.520262
 20
304.771936
 30
0.0
 40
0.483744
 50
-25.249761
 51
13.693173
  0
ARC
  8
OBJ
  6
CONTINUOUS
 62
     1
  5
BE
 10
858.43677
 20
304.922035
 30
0.0
 40
0.55463
 50
-3.67869
 51
49.709518
  0
ARC
  8
OBJ
  6
CONTINUOUS
 62
     1
  5
BF
 10
858.854439
 20
305.615124
 30
0.0
 40
0.276403
 50
-156.685434
 51
-102.327149
  0
ARC
  8
OBJ
  6
CONTINUOUS
 62
     1
  5
C0
 10
870.088266
 20
313.831102
 30
0.0
 40
14.187254
 50
-148.249478
 51
-144.06829
  0
ARC
  8
OBJ
  6
CONTINUOUS
 62
     1
  5
C1
 10
858.607965
 20
307.02099
 30
0.0
 40
0.8778
 50
176.380703
 51
-131.6873
  0
ARC
  8
OBJ
  6
CONTINUOUS
 62
     1
  5
C2
 10
847.044664
 20
307.226347
 30
0.0
 40
10.688304
 50
-0.803819
 51
3.257907
  0
ARC
  8
OBJ
  6
CONTINUOUS
 62
     1
  5
C3
 10
858.35596
 20
307.861998
 30
0.0
 40
0.640889
 50
132.048552
 51
-177.475527
  0
ARC
  8
OBJ
  6
CONTINUOUS
 62
     1
  5
C4
 10
856.50175
 20
310.082455
 30
0.0
 40
2.252549
 50
-50.757618
 51
-37.703809
  0
ARC
  8
OBJ
  6
CONTINUOUS
 62
     1
  5
C5
 10
857.232758
 20
309.483467
 30
0.0
 40
1.308135
 50
-36.52817
 51
-15.216703
  0
ARC
  8
OBJ
  6
CONTINUOUS
 62
     1
  5
C6
 10
867.48975
 20
304.91598
 30
0.0
 40
9.93722
 50
151.133195
 51
154.844103
  0
ARC
  8
OBJ
  6
CONTINUOUS
 62
     1
  5
C7
 10
857.926458
 20
310.511967
 30
0.0
 40
1.17418
 50
-42.850473
 51
-14.475112
  0
LINE
  8
OBJ
  6
CONTINUOUS
 62
     1
  5
C8
 10
859.063364
 20
310.21847
 30
0.0
 11
859.511697
 21
312.775215
 31
0.0
  0
ARC
  8
OBJ
  6
CONTINUOUS
 62
     1
  5
C9
 10
857.600035
 20
310.12545
 30
0.0
 40
3.26737
 50
-6.47461
 51
54.191591
  0
ARC
  8
OBJ
  6
CONTINUOUS
 62
     1
  5
CA
 10
856.945913
 20
307.313143
 30
0.0
 40
4.602997
 50
-5.300032
 51
32.068305
  0
ARC
  8
OBJ
  6
CONTINUOUS
 62
     1
  5
CB
 10
860.822458
 20
308.018015
 30
0.0
 40
1.332874
 50
-57.976846
 51
12.685764
  0
ARC
  8
OBJ
  6
CONTINUOUS
 62
     1
  5
CC
 10
860.83209
 20
307.12091
 30
0.0
 40
1.75544
 50
-20.084503
 51
42.670733
  0
ARC
  8
OBJ
  6
CONTINUOUS
 62
     1
  5
CD
 10
861.581419
 20
307.26971
 30
0.0
 40
1.172087
 50
-39.88681
 51
15.815682
  0
ARC
  8
OBJ
  6
CONTINUOUS
 62
     1
  5
CE
 10
859.512225
 20
306.079065
 30
0.0
 40
3.53562
 50
-10.677887
 51
25.284137
  0
ARC
  8
OBJ
  6
CONTINUOUS
 62
     1
  5
CF
 10
851.767739
 20
311.939456
 30
0.0
 40
12.97363
 50
-30.146372
 51
-14.466317
  0
ARC
  8
OBJ
  6
CONTINUOUS
 62
     1
  5
D0
 10
859.819518
 20
309.478095
 30
0.0
 40
4.577394
 50
-9.806047
 51
64.87301
  0
LINE
  8
OBJ
  6
CONTINUOUS
 62
     1
  5
D1
 10
861.763198
 20
313.622324
 30
0.0
 11
860.927009
 21
313.738834
 31
0.0
  0
ARC
  8
OBJ
  6
CONTINUOUS
 62
     1
  5
D2
 10
860.23747
 20
310.834465
 30
0.0
 40
2.9851
 50
76.644425
 51
113.851997
  0
LINE
  8
OBJ
  6
CONTINUOUS
 62
     1
  5
D3
 10
859.030369
 20
313.564617
 30
0.0
 11
858.388417
 21
314.689357
 31
0.0
  0
ARC
  8
OBJ
  6
CONTINUOUS
 62
     1
  5
D4
 10
853.443421
 20
311.234755
 30
0.0
 40
6.032185
 50
34.938366
 51
66.258117
  0
ARC
  8
OBJ
  6
CONTINUOUS
 62
     1
  5
D5
 10
858.384265
 20
322.06198
 30
0.0
 40
5.87026
 50
-161.525601
 51
-115.337595
  0
ARC
  8
OBJ
  6
CONTINUOUS
 62
     1
  5
D6
 10
849.919052
 20
320.022136
 30
0.0
 40
2.90304
 50
3.548335
 51
21.976939
  0
ARC
  8
OBJ
  6
CONTINUOUS
 62
     1
  5
D7
 10
838.88933
 20
316.779722
 30
0.0
 40
14.388428
 50
17.508955
 51
22.582601
  0
ARC
  8
OBJ
  6
CONTINUOUS
 62
     1
  5
D8
 10
850.71225
 20
321.897985
 30
0.0
 40
1.517916
 50
15.557337
 51
52.545102
  0
ARC
  8
OBJ
  6
CONTINUOUS
 62
     1
  5
D9
 10
850.852349
 20
322.467261
 30
0.0
 40
1.008562
 50
39.072067
 51
61.909635
  0
LINE
  8
OBJ
  6
CONTINUOUS
 62
     1
  5
DA
 10
851.327244
 20
323.357021
 30
0.0
 11
851.521775
 21
323.310913
 31
0.0
  0
ARC
  8
OBJ
  6
CONTINUOUS
 62
     1
  5
DB
 10
851.05786
 20
322.02201
 30
0.0
 40
1.36985
 50
30.41041
 51
70.204669
  0
ARC
  8
OBJ
  6
CONTINUOUS
 62
     1
  5
DC
 10
841.512705
 20
319.956752
 30
0.0
 40
11.075602
 50
14.422822
 51
18.477772
  0
ARC
  8
OBJ
  6
CONTINUOUS
 62
     1
  5
DD
 10
850.031455
 20
322.692995
 30
0.0
 40
2.13138
 50
21.294102
 51
43.366079
  0
LINE
  8
OBJ
  6
CONTINUOUS
 62
     1
  5
DE
 10
851.580928
 20
324.156522
 30
0.0
 11
851.07059
 21
324.793907
 31
0.0
  0
ARC
  8
OBJ
  6
CONTINUOUS
 62
     1
  5
DF
 10
852.09068
 20
325.62196
 30
0.0
 40
1.31387
 50
-155.407651
 51
-140.932206
  0
LINE
  8
OBJ
  6
CONTINUOUS
 62
     1
  5
E0
 10
850.895989
 20
325.075181
 30
0.0
 11
851.315255
 21
325.064091
 31
0.0
  0
ARC
  8
OBJ
  6
CONTINUOUS
 62
     1
  5
E1
 10
849.525005
 20
324.54499
 30
0.0
 40
1.863991
 50
16.170048
 51
84.663998
  0
LINE
  8
OBJ
  6
CONTINUOUS
 62
     1
  5
E2
 10
849.698349
 20
326.400902
 30
0.0
 11
849.809131
 21
326.509924
 31
0.0
  0
ARC
  8
OBJ
  6
CONTINUOUS
 62
     1
  5
E3
 10
850.105582
 20
326.18794
 30
0.0
 40
0.437672
 50
89.728383
 51
132.635802
  0
ARC
  8
OBJ
  6
CONTINUOUS
 62
     1
  5
E4
 10
849.631405
 20
331.596525
 30
0.0
 40
4.99368
 50
-84.527332
 51
-81.353713
  0
LINE
  8
OBJ
  6
CONTINUOUS
 62
     1
  5
E5
 10
850.382125
 20
326.659597
 30
0.0
 11
850.71443
 21
326.714435
 31
0.0
  0
LINE
  8
OBJ
  6
CONTINUOUS
 62
     1
  5
E6
 10
850.71443
 20
326.714435
 30
0.0
 11
850.43998
 21
326.938985
 31
0.0
  0
ARC
  8
OBJ
  6
CONTINUOUS
 62
     1
  5
E7
 10
850.074657
 20
326.542462
 30
0.0
 40
0.539158
 50
47.345133
 51
92.632255
  0
ARC
  8
OBJ
  6
CONTINUOUS
 62
     1
  5
E8
 10
849.138825
 20
320.412005
 30
0.0
 40
6.73099
 50
82.22087
 51
84.778959
  0
ARC
  8
OBJ
  6
CONTINUOUS
 62
     1
  5
E9
 10
847.810302
 20
311.381161
 30
0.0
 40
15.853184
 50
82.967174
 51
84.298196
  0
LINE
  8
OBJ
  6
CONTINUOUS
 62
     1
  5
EA
 10
849.385333
 20
327.15591
 30
0.0
 11
849.077134
 21
327.231387
 31
0.0
  0
ARC
  8
OBJ
  6
CONTINUOUS
 62
     1
  5
EB
 10
848.51871
 20
326.079055
 30
0.0
 40
1.28051
 50
64.145014
 51
73.400743
  0
ARC
  8
OBJ
  6
CONTINUOUS
 62
     1
  5
EC
 10
848.877243
 20
327.760545
 30
0.0
 40
0.454402
 50
-89.082287
 51
-6.518014
  0
ARC
  8
OBJ
  6
CONTINUOUS
 62
     1
  5
ED
 10
849.06258
 20
330.022975
 30
0.0
 40
2.329265
 50
-117.517818
 51
-83.4394
  0
LINE
  8
OBJ
  6
CONTINUOUS
 62
     1
  5
EE
 10
847.986403
 20
327.957226
 30
0.0
 11
848.074898
 21
327.708787
 31
0.0
  0
ARC
  8
OBJ
  6
CONTINUOUS
 62
     1
  5
EF
 10
848.51586
 20
328.778985
 30
0.0
 40
1.157485
 50
-171.598997
 51
-112.393511
  0
LINE
  8
OBJ
  6
CONTINUOUS
 62
     1
  5
F0
 10
847.370795
 20
328.609876
 30
0.0
 11
847.348145
 21
328.018585
 31
0.0
  0
ARC
  8
OBJ
  6
CONTINUOUS
 62
     1
  5
F1
 10
847.09244
 20
328.834945
 30
0.0
 40
0.85547
 50
-146.329605
 51
-72.608099
  0
LINE
  8
OBJ
  6
CONTINUOUS
 62
     1
  5
F2
 10
846.380483
 20
328.36066
 30
0.0
 11
846.44937
 21
327.920995
 31
0.0
  0
ARC
  8
OBJ
  6
CONTINUOUS
 62
     1
  5
F3
 10
846.23595
 20
327.774069
 30
0.0
 40
0.259105
 50
34.544921
 51
71.579161
  0
ARC
  8
OBJ
  6
CONTINUOUS
 62
     1
  5
F4
 10
846.400015
 20
328.497995
 30
0.0
 40
0.48511
 50
-119.1475
 51
-99.754331
  0
ARC
  8
OBJ
  6
CONTINUOUS
 62
     1
  5
F5
 10
846.234615
 20
328.318892
 30
0.0
 40
0.25464
 50
-175.599624
 51
-106.161392
  0
ARC
  8
OBJ
  6
CONTINUOUS
 62
     1
  5
F6
 10
852.418089
 20
329.153068
 30
0.0
 40
6.493726
 50
-176.024984
 51
-172.445603
  0
ARC
  8
OBJ
  6
CONTINUOUS
 62
     1
  5
F7
 10
849.19266
 20
327.58393
 30
0.0
 40
3.43977
 50
161.015785
 51
175.336704
  0
ARC
  8
OBJ
  6
CONTINUOUS
 62
     1
  5
F8
 10
844.930946
 20
328.963728
 30
0.0
 40
1.38013
 50
-114.613641
 51
-52.857022
  0
ARC
  8
OBJ
  6
CONTINUOUS
 62
     1
  5
F9
 10
845.077984
 20
327.88701
 30
0.0
 40
0.743483
 50
-166.147328
 51
-83.359453
  0
LINE
  8
OBJ
  6
CONTINUOUS
 62
     1
  5
FA
 10
845.16396
 20
327.148515
 30
0.0
 11
845.121265
 21
326.8955
 31
0.0
  0
ARC
  8
OBJ
  6
CONTINUOUS
 62
     1
  5
FB
 10
843.99645
 20
326.891638
 30
0.0
 40
1.124822
 50
-19.512001
 51
0.196722
  0
ARC
  8
OBJ
  6
CONTINUOUS
 62
     1
  5
FC
 10
848.055467
 20
325.760162
 30
0.0
 40
3.092565
 50
165.854428
 51
172.884227
  0
ARC
  8
OBJ
  6
CONTINUOUS
 62
     1
  5
FD
 10
845.553105
 20
326.054955
 30
0.0
 40
0.573225
 50
171.139095
 51
-158.709495
  0
ARC
  8
OBJ
  6
CONTINUOUS
 62
     1
  5
FE
 10
846.400925
 20
326.181035
 30
0.0
 40
1.421764
 50
-166.404161
 51
-160.850818
  0
ARC
  8
OBJ
  6
CONTINUOUS
 62
     1
  5
FF
 10
842.498494
 20
325.508745
 30
0.0
 40
2.567606
 50
-18.279241
 51
4.599799
  0
ARC
  8
OBJ
  6
CONTINUOUS
 62
     1
  5
100
 10
841.89811
 20
325.040965
 30
0.0
 40
3.057114
 50
-29.436712
 51
-6.339109
  0
ARC
  8
OBJ
  6
CONTINUOUS
 62
     1
  5
101
 10
846.127097
 20
322.721047
 30
0.0
 40
1.767008
 50
152.443366
 51
175.124209
  0
ARC
  8
OBJ
  6
CONTINUOUS
 62
     1
  5
102
 10
844.79001
 20
322.768455
 30
0.0
 40
0.43582
 50
166.35929
 51
-109.370605
  0
LINE
  8
OBJ
  6
CONTINUOUS
 62
     1
  5
103
 10
844.645458
 20
322.357305
 30
0.0
 11
844.83955
 21
322.11757
 31
0.0
  0
LINE
  8
OBJ
  6
CONTINUOUS
 62
     1
  5
104
 10
844.83955
 20
322.11757
 30
0.0
 11
845.111393
 21
321.980353
 31
0.0
  0
ARC
  8
OBJ
  6
CONTINUOUS
 62
     1
  5
105
 10
845.196295
 20
322.17801
 30
0.0
 40
0.21512
 50
-113.245559
 51
-66.754615
  0
LINE
  8
OBJ
  6
CONTINUOUS
 62
     1
  5
106
 10
845.281196
 20
321.980353
 30
0.0
 11
845.396925
 21
322.099525
 31
0.0
  0
LINE
  8
OBJ
  6
CONTINUOUS
 62
     1
  5
107
 10
845.396925
 20
322.099525
 30
0.0
 11
845.615769
 21
321.962536
 31
0.0
  0
ARC
  8
OBJ
  6
CONTINUOUS
 62
     1
  5
108
 10
843.764816
 20
323.191958
 30
0.0
 40
2.22205
 50
-33.592521
 51
-23.02822
  0
ARC
  8
OBJ
  6
CONTINUOUS
 62
     1
  5
109
 10
845.0472
 20
322.61948
 30
0.0
 40
0.8183
 50
-21.262796
 51
-7.606193
  0
ARC
  8
OBJ
  6
CONTINUOUS
 62
     1
  5
10A
 10
846.122415
 20
322.5175
 30
0.0
 40
0.264191
 50
136.407499
 51
-178.626398
  0
ARC
  8
OBJ
  6
CONTINUOUS
 62
     1
  5
10B
 10
844.766081
 20
324.154867
 30
0.0
 40
1.864085
 50
-51.320274
 51
-32.198496
  0
ARC
  8
OBJ
  6
CONTINUOUS
 62
     1
  5
10C
 10
847.92644
 20
321.975215
 30
0.0
 40
1.978185
 50
112.348684
 51
143.149818
  0
ARC
  8
OBJ
  6
CONTINUOUS
 62
     1
  5
10D
 10
844.869155
 20
323.504407
 30
0.0
 40
2.324588
 50
-41.269029
 51
7.425075
  0
ARC
  8
OBJ
  6
CONTINUOUS
 62
     1
  5
10E
 10
849.452135
 20
319.628965
 30
0.0
 40
3.677946
 50
140.44561
 51
161.05097
  0
ARC
  8
OBJ
  6
CONTINUOUS
 62
     1
  5
10F
 10
846.999665
 20
320.39602
 30
0.0
 40
1.11156
 50
157.394107
 51
-162.919008
  0
ARC
  8
OBJ
  6
CONTINUOUS
 62
     1
  5
110
 10
844.847534
 20
319.529456
 30
0.0
 40
1.216104
 50
5.293148
 51
26.365826
  0
LINE
  8
OBJ
  6
CONTINUOUS
 62
     1
  5
111
 10
846.058453
 20
319.641644
 30
0.0
 11
845.940728
 21
319.542528
 31
0.0
  0
ARC
  8
OBJ
  6
CONTINUOUS
 62
     1
  5
112
 10
845.574665
 20
320.458515
 30
0.0
 40
0.986425
 50
-111.783608
 51
-68.216484
  0
ARC
  8
OBJ
  6
CONTINUOUS
 62
     1
  5
113
 10
843.214134
 20
312.651369
 30
0.0
 40
7.173979
 50
73.858291
 51
80.977302
  0
ARC
  8
OBJ
  6
CONTINUOUS
 62
     1
  5
114
 10
843.499262
 20
316.523875
 30
0.0
 40
3.320687
 50
75.348411
 51
90.771291
  0
ARC
  8
OBJ
  6
CONTINUOUS
 62
     1
  5
115
 10
843.256532
 20
318.888919
 30
0.0
 40
0.975651
 50
78.289197
 51
128.728177
  0
ARC
  8
OBJ
  6
CONTINUOUS
 62
     1
  5
116
 10
843.553715
 20
318.965995
 30
0.0
 40
1.136495
 50
142.9942
 51
179.183697
  0
ARC
  8
OBJ
  6
CONTINUOUS
 62
     1
  5
117
 10
840.898775
 20
318.942015
 30
0.0
 40
1.519092
 50
-18.295406
 51
1.515323
  0
ARC
  8
OBJ
  6
CONTINUOUS
 62
     1
  5
118
 10
835.761385
 20
320.099101
 30
0.0
 40
6.779538
 50
-28.020915
 51
-13.946304
  0
ARC
  8
OBJ
  6
CONTINUOUS
 62
     1
  5
119
 10
844.84821
 20
315.135075
 30
0.0
 40
3.575955
 50
150.165203
 51
161.533008
  0
ARC
  8
OBJ
  6
CONTINUOUS
 62
     1
  5
11A
 10
842.075692
 20
316.00426
 30
0.0
 40
0.673036
 50
156.94891
 51
-153.834791
  0
ARC
  8
OBJ
  6
CONTINUOUS
 62
     1
  5
11B
 10
836.935235
 20
314.864985
 30
0.0
 40
4.61396
 50
1.366111
 51
10.521029
  0
ARC
  8
OBJ
  6
CONTINUOUS
 62
     1
  5
11C
 10
841.618139
 20
314.855924
 30
0.0
 40
0.138245
 50
120.543801
 51
-179.414562
  0
LINE
  8
OBJ
  6
CONTINUOUS
 62
     1
  5
11D
 10
841.479902
 20
314.854511
 30
0.0
 11
841.479877
 21
314.505452
 31
0.0
  0
ARC
  8
OBJ
  6
CONTINUOUS
 62
     1
  5
11E
 10
840.834943
 20
314.448486
 30
0.0
 40
0.647445
 50
-21.175702
 51
5.047745
  0
ARC
  8
OBJ
  6
CONTINUOUS
 62
     1
  5
11F
 10
842.270346
 20
313.81548
 30
0.0
 40
0.92249
 50
154.363149
 51
-178.765823
  0
ARC
  8
OBJ
  6
CONTINUOUS
 62
     1
  5
120
 10
885.437353
 20
323.005628
 30
0.0
 40
53.376832
 50
178.745734
 51
-124.938879
  0
ARC
  8
OBJ
  6
CONTINUOUS
 62
     1
  5
121
 10
812.387315
 20
321.390995
 30
0.0
 40
59.8378
 50
-44.770296
 51
7.78658
  0
LINE
  8
OBJ
  6
CONTINUOUS
 62
     1
  5
122
 10
871.673387
 20
329.49803
 30
0.0
 11
869.343984
 21
329.49854
 31
0.0
  0
ARC
  8
OBJ
  6
CONTINUOUS
 62
     1
  5
123
 10
812.29272
 20
321.40601
 30
0.0
 40
57.622355
 50
-42.364501
 51
8.073355
  0
ARC
  8
OBJ
  6
CONTINUOUS
 62
     1
  5
124
 10
882.948058
 20
322.233665
 30
0.0
 40
48.590985
 50
177.515224
 51
-125.30154
  0
LINE
  8
OBJ
  6
CONTINUOUS
 62
     1
  5
125
 10
834.402759
 20
324.340275
 30
0.0
 11
832.07331
 21
324.174011
 31
0.0
  0
LINE
  8
OBJ
  6
CONTINUOUS
 62
     1
  5
126
 10
1182.886985
 20
275.878995
 30
0.0
 11
1296.29249
 21
293.30701
 31
0.0
  0
LINE
  8
OBJ
  6
CONTINUOUS
 62
     1
  5
127
 10
1296.29249
 20
293.30701
 30
0.0
 11
1296.29249
 21
295.506975
 31
0.0
  0
LINE
  8
OBJ
  6
CONTINUOUS
 62
     1
  5
128
 10
1296.29249
 20
295.506975
 30
0.0
 11
1182.886985
 21
278.12904
 31
0.0
  0
LINE
  8
OBJ
  6
CONTINUOUS
 62
     1
  5
129
 10
1182.886985
 20
278.12904
 30
0.0
 11
1182.886985
 21
275.878995
 31
0.0
  0
LINE
  8
OBJ
  6
CONTINUOUS
 62
     1
  5
12A
 10
1271.28808
 20
220.139
 30
0.0
 11
1273.182105
 21
219.739495
 31
0.0
  0
ARC
  8
OBJ
  6
CONTINUOUS
 62
     1
  5
12B
 10
1534.721213
 20
162.378457
 30
0.0
 40
267.755474
 50
161.19098
 51
167.629691
  0
ARC
  8
OBJ
  6
CONTINUOUS
 62
     1
  5
12C
 10
1504.333766
 20
191.412245
 30
0.0
 40
230.309916
 50
146.359138
 51
165.595179
  0
ARC
  8
OBJ
  6
CONTINUOUS
 62
     1
  5
12D
 10
1406.00757
 20
259.92345
 30
0.0
 40
110.52635
 50
128.664796
 51
147.689501
  0
ARC
  8
OBJ
  6
CONTINUOUS
 62
     1
  5
12E
 10
1390.892864
 20
280.810897
 30
0.0
 40
84.783205
 50
105.274875
 51
129.508163
  0
ARC
  8
OBJ
  6
CONTINUOUS
 62
     1
  5
12F
 10
1383.352506
 20
296.514068
 30
0.0
 40
67.720966
 50
92.7502
 51
102.619863
  0
LINE
  8
OBJ
  6
CONTINUOUS
 62
     1
  5
130
 10
1380.103145
 20
364.157035
 30
0.0
 11
1380.02365
 21
365.702783
 31
0.0
  0
ARC
  8
OBJ
  6
CONTINUOUS
 62
     1
  5
131
 10
1383.54213
 20
300.128965
 30
0.0
 40
65.668145
 50
93.071362
 51
118.967503
  0
ARC
  8
OBJ
  6
CONTINUOUS
 62
     1
  5
132
 10
1406.648851
 20
258.758195
 30
0.0
 40
113.054245
 50
119.058485
 51
152.791735
  0
ARC
  8
OBJ
  6
CONTINUOUS
 62
     1
  5
133
 10
1490.38154
 20
194.739505
 30
0.0
 40
217.593715
 50
147.874799
 51
165.515393
  0
ARC
  8
OBJ
  6
CONTINUOUS
 62
     1
  5
134
 10
1539.713431
 20
158.040014
 30
0.0
 40
275.514887
 50
160.686256
 51
166.974041
  0
ARC
  8
OBJ
  6
CONTINUOUS
 62
     1
  5
135
 10
1365.247189
 20
251.877301
 30
0.0
 40
15.784009
 50
173.466497
 51
-169.963645
  0
ARC
  8
OBJ
  6
CONTINUOUS
 62
     1
  5
136
 10
1361.300515
 20
250.876525
 30
0.0
 40
11.7271
 50
-171.418109
 51
-152.316302
  0
ARC
  8
OBJ
  6
CONTINUOUS
 62
     1
  5
137
 10
1358.932798
 20
248.974463
 30
0.0
 40
8.766241
 50
-156.138142
 51
-137.12311
  0
ARC
  8
OBJ
  6
CONTINUOUS
 62
     1
  5
138
 10
1356.827555
 20
246.314
 30
0.0
 40
5.437885
 50
-142.580504
 51
-43.320008
  0
ARC
  8
OBJ
  6
CONTINUOUS
 62
     1
  5
139
 10
1349.708652
 20
252.444603
 30
0.0
 40
14.82922
 50
-41.682091
 51
35.890248
  0
ARC
  8
OBJ
  6
CONTINUOUS
 62
     1
  5
13A
 10
1356.823419
 20
257.424636
 30
0.0
 40
6.147299
 50
37.161579
 51
74.774169
  0
ARC
  8
OBJ
  6
CONTINUOUS
 62
     1
  5
13B
 10
1357.199505
 20
257.43499
 30
0.0
 40
6.049271
 50
78.187502
 51
109.340497
  0
ARC
  8
OBJ
  6
CONTINUOUS
 62
     1
  5
13C
 10
1358.645697
 20
255.634013
 30
0.0
 40
8.263343
 50
114.674196
 51
155.923432
  0
ARC
  8
OBJ
  6
CONTINUOUS
 62
     1
  5
13D
 10
1360.865585
 20
253.30594
 30
0.0
 40
11.305865
 50
149.729101
 51
178.138112
  0
ARC
  8
OBJ
  6
CONTINUOUS
 62
     1
  5
13E
 10
1019.125648
 20
344.50344
 30
0.0
 40
1.153505
 50
116.300731
 51
-90.145139
  0
LINE
  8
OBJ
  6
CONTINUOUS
 62
     1
  5
13F
 10
1019.122726
 20
343.349939
 30
0.0
 11
1146.425116
 21
370.136754
 31
0.0
  0
ARC
  8
OBJ
  6
CONTINUOUS
 62
     1
  5
140
 10
1145.998878
 20
371.345795
 30
0.0
 40
1.281975
 50
-70.580304
 51
93.830976
  0
LINE
  8
OBJ
  6
CONTINUOUS
 62
     1
  5
141
 10
1145.913225
 20
372.624905
 30
0.0
 11
1018.61455
 21
345.537535
 31
0.0
  0
ARC
  8
OBJ
  6
CONTINUOUS
 62
     1
  5
142
 10
1372.123048
 20
284.364128
 30
0.0
 40
40.705158
 50
78.190492
 51
83.768326
  0
ARC
  8
OBJ
  6
CONTINUOUS
 62
     1
  5
143
 10
1369.58901
 20
284.293935
 30
0.0
 40
41.36605
 50
37.163008
 51
74.77278
  0
ARC
  8
OBJ
  6
CONTINUOUS
 62
     1
  5
144
 10
1321.713498
 20
250.78376
 30
0.0
 40
99.7866
 50
3.243264
 51
35.890552
  0
LINE
  8
OBJ
  6
CONTINUOUS
 62
     1
  5
145
 10
1421.340273
 20
256.429228
 30
0.0
 11
1424.217268
 21
256.429255
 31
0.0
  0
ARC
  8
OBJ
  6
CONTINUOUS
 62
     1
  5
146
 10
1318.44751
 20
250.715985
 30
0.0
 40
105.92395
 50
3.09189
 51
35.890363
  0
ARC
  8
OBJ
  6
CONTINUOUS
 62
     1
  5
147
 10
1369.267895
 20
286.287174
 30
0.0
 40
43.910023
 50
37.162812
 51
74.772528
  0
ARC
  8
OBJ
  6
CONTINUOUS
 62
     1
  5
148
 10
1371.95563
 20
286.36152
 30
0.0
 40
43.209075
 50
78.187498
 51
83.907599
  0
LINE
  8
OBJ
  6
CONTINUOUS
 62
     1
  5
149
 10
1376.541504
 20
329.326551
 30
0.0
 11
1376.541549
 21
324.828764
 31
0.0
  0
LINE
  8
OBJ
  6
CONTINUOUS
 62
     1
  5
14A
 10
1110.738291
 20
184.895996
 30
0.0
 11
1112.329276
 21
183.304945
 31
0.0
  0
ARC
  8
OBJ
  6
CONTINUOUS
 62
     1
  5
14B
 10
1006.768936
 20
310.545598
 30
0.0
 40
165.32746
 50
-50.320501
 51
4.039705
  0
LINE
  8
OBJ
  6
CONTINUOUS
 62
     1
  5
14C
 10
1171.685635
 20
322.192545
 30
0.0
 11
1169.83255
 21
322.090926
 31
0.0
  0
ARC
  8
OBJ
  6
CONTINUOUS
 62
     1
  5
14D
 10
1004.822476
 20
311.841698
 30
0.0
 40
165.328071
 50
-50.160423
 51
3.554232
  0
LINE
  8
OBJ
  6
CONTINUOUS
 62
     1
  5
14E
 10
1370.99251
 20
234.15098
 30
0.0
 11
1374.739846
 21
212.746485
 31
0.0
  0
ARC
  8
OBJ
  6
CONTINUOUS
 62
     1
  5
14F
 10
1340.997415
 20
255.868891
 30
0.0
 40
54.75485
 50
-51.957522
 51
-12.980922
  0
LINE
  8
OBJ
  6
CONTINUOUS
 62
     1
  5
150
 10
1394.353
 20
243.569495
 30
0.0
 11
1370.99251
 21
234.15098
 31
0.0
  0
LINE
  8
OBJ
  6
CONTINUOUS
 62
     1
  5
151
 10
1371.990995
 20
276.41348
 30
0.0
 11
1391.292097
 21
266.430092
 31
0.0
  0
ARC
  8
OBJ
  6
CONTINUOUS
 62
     1
  5
152
 10
1336.542095
 20
265.701468
 30
0.0
 40
54.75485
 50
0.762459
 51
39.739263
  0
LINE
  8
OBJ
  6
CONTINUOUS
 62
     1
  5
153
 10
1378.646475
 20
300.705965
 30
0.0
 11
1371.990995
 21
276.41348
 31
0.0
  0
ARC
  8
OBJ
  6
CONTINUOUS
 62
     1
  5
154
 10
1369.299945
 20
206.927513
 30
0.0
 40
38.841709
 50
-84.665602
 51
-43.321602
  0
ARC
  8
OBJ
  6
CONTINUOUS
 62
     1
  5
155
 10
1318.44751
 20
250.715985
 30
0.0
 40
105.92395
 50
-41.680919
 51
-0.966503
  0
LINE
  8
OBJ
  6
CONTINUOUS
 62
     1
  5
156
 10
1424.35639
 20
248.929275
 30
0.0
 11
1421.482917
 21
248.929143
 31
0.0
  0
ARC
  8
OBJ
  6
CONTINUOUS
 62
     1
  5
157
 10
1321.713501
 20
250.783938
 30
0.0
 40
99.786656
 50
-41.680952
 51
-1.065053
  0
ARC
  8
OBJ
  6
CONTINUOUS
 62
     1
  5
158
 10
1369.61856
 20
209.532025
 30
0.0
 40
36.591505
 50
-84.837716
 51
-43.320014
  0
LINE
  8
OBJ
  6
CONTINUOUS
 62
     1
  5
159
 10
1372.910954
 20
173.088941
 30
0.0
 11
1372.910995
 21
168.254025
 31
0.0
  0
ARC
  8
OBJ
  6
CONTINUOUS
 62
     1
  5
15A
 10
1429.436537
 20
246.659039
 30
0.0
 40
112.74119
 50
-179.124304
 51
-169.967268
  0
ARC
  8
OBJ
  6
CONTINUOUS
 62
     1
  5
15B
 10
1401.246475
 20
239.51796
 30
0.0
 40
83.765
 50
-171.41811
 51
-152.316302
  0
ARC
  8
OBJ
  6
CONTINUOUS
 62
     1
  5
15C
 10
1384.331279
 20
225.934663
 30
0.0
 40
62.614484
 50
-156.134664
 51
-137.116954
  0
ARC
  8
OBJ
  6
CONTINUOUS
 62
     1
  5
15D
 10
1369.29954
 20
206.927475
 30
0.0
 40
38.842055
 50
-142.580504
 51
-95.745511
  0
LINE
  8
OBJ
  6
CONTINUOUS
 62
     1
  5
15E
 10
1365.411058
 20
168.280548
 30
0.0
 11
1365.410935
 21
173.183241
 31
0.0
  0
ARC
  8
OBJ
  6
CONTINUOUS
 62
     1
  5
15F
 10
1369.61856
 20
209.532025
 30
0.0
 40
36.591505
 50
-142.580504
 51
-96.602998
  0
ARC
  8
OBJ
  6
CONTINUOUS
 62
     1
  5
160
 10
1383.780005
 20
227.43797
 30
0.0
 40
58.987055
 50
-156.133559
 51
-137.117353
  0
ARC
  8
OBJ
  6
CONTINUOUS
 62
     1
  5
161
 10
1399.71508
 20
240.232975
 30
0.0
 40
78.911544
 50
-171.41811
 51
-152.316302
  0
ARC
  8
OBJ
  6
CONTINUOUS
 62
     1
  5
162
 10
1426.271619
 20
246.961239
 30
0.0
 40
106.20883
 50
-178.907389
 51
-169.966749
  0
LINE
  8
OBJ
  6
CONTINUOUS
 62
     1
  5
163
 10
1320.0821
 20
244.935996
 30
0.0
 11
1316.708515
 21
244.935995
 31
0.0
  0
LINE
  8
OBJ
  6
CONTINUOUS
 62
     1
  5
164
 10
1316.84356
 20
252.43596
 30
0.0
 11
1320.204065
 21
252.43596
 31
0.0
  0
ARC
  8
OBJ
  6
CONTINUOUS
 62
     1
  5
165
 10
1426.271762
 20
246.964006
 30
0.0
 40
106.20875
 50
173.46465
 51
177.046771
  0
ARC
  8
OBJ
  6
CONTINUOUS
 62
     1
  5
166
 10
1396.79011
 20
256.58051
 30
0.0
 40
76.0771
 50
149.7291
 51
178.138112
  0
ARC
  8
OBJ
  6
CONTINUOUS
 62
     1
  5
167
 10
1381.850441
 20
272.245638
 30
0.0
 40
55.6023
 50
114.672658
 51
155.922133
  0
ARC
  8
OBJ
  6
CONTINUOUS
 62
     1
  5
168
 10
1372.122929
 20
284.364141
 30
0.0
 40
40.7055
 50
94.341409
 51
109.34325
  0
LINE
  8
OBJ
  6
CONTINUOUS
 62
     1
  5
169
 10
1369.041547
 20
324.952844
 30
0.0
 11
1369.041502
 21
329.472215
 31
0.0
  0
ARC
  8
OBJ
  6
CONTINUOUS
 62
     1
  5
16A
 10
1371.95563
 20
286.36152
 30
0.0
 40
43.209075
 50
93.867106
 51
109.340502
  0
ARC
  8
OBJ
  6
CONTINUOUS
 62
     1
  5
16B
 10
1382.283472
 20
273.498119
 30
0.0
 40
59.022352
 50
114.672638
 51
155.921686
  0
ARC
  8
OBJ
  6
CONTINUOUS
 62
     1
  5
16C
 10
1398.141833
 20
256.870153
 30
0.0
 40
80.756028
 50
149.729127
 51
178.137887
  0
ARC
  8
OBJ
  6
CONTINUOUS
 62
     1
  5
16D
 10
1429.436563
 20
246.659261
 30
0.0
 40
112.741095
 50
173.462994
 51
177.062957
  0
ARC
  8
OBJ
  6
CONTINUOUS
 62
     1
  5
16E
 10
270.003158
 20
379.094478
 30
0.0
 40
1.175891
 50
133.835526
 51
-76.959094
  0
ARC
  8
OBJ
  6
CONTINUOUS
 62
     1
  5
16F
 10
584.394816
 20
-402.090538
 30
0.0
 40
840.914322
 50
98.547027
 51
111.934926
  0
ARC
  8
OBJ
  6
CONTINUOUS
 62
     1
  5
170
 10
458.965025
 20
430.49044
 30
0.0
 40
1.102645
 50
-65.790985
 51
80.804123
  0
ARC
  8
OBJ
  6
CONTINUOUS
 62
     1
  5
171
 10
583.236026
 20
-400.128577
 30
0.0
 40
840.914304
 50
98.486204
 51
111.929121
  0
ARC
  8
OBJ
  6
CONTINUOUS
 62
     1
  5
172
 10
595.484775
 20
272.953229
 30
0.0
 40
1.176231
 50
139.556035
 51
-72.199126
  0
ARC
  8
OBJ
  6
CONTINUOUS
 62
     1
  5
173
 10
978.85341
 20
-476.793025
 30
0.0
 40
840.914575
 50
103.7071
 51
117.095002
  0
ARC
  8
OBJ
  6
CONTINUOUS
 62
     1
  5
174
 10
779.058501
 20
341.13175
 30
0.0
 40
1.097739
 50
-60.950639
 51
86.368609
  0
ARC
  8
OBJ
  6
CONTINUOUS
 62
     1
  5
175
 10
977.522945
 20
-474.948816
 30
0.0
 40
840.914576
 50
103.646305
 51
117.089207
  0
ARC
  8
OBJ
  6
CONTINUOUS
 62
     1
  5
176
 10
736.099291
 20
156.302615
 30
0.0
 40
21.63953
 50
173.464416
 51
-169.966442
  0
ARC
  8
OBJ
  6
CONTINUOUS
 62
     1
  5
177
 10
730.688543
 20
154.93216
 30
0.0
 40
16.077915
 50
-171.41631
 51
-152.315689
  0
ARC
  8
OBJ
  6
CONTINUOUS
 62
     1
  5
178
 10
727.442161
 20
152.323283
 30
0.0
 40
12.017879
 50
-156.141852
 51
-137.121659
  0
ARC
  8
OBJ
  6
CONTINUOUS
 62
     1
  5
179
 10
724.556555
 20
148.676005
 30
0.0
 40
7.45535
 50
-142.580504
 51
-43.320008
  0
ARC
  8
OBJ
  6
CONTINUOUS
 62
     1
  5
17A
 10
714.796148
 20
157.080903
 30
0.0
 40
20.331057
 50
-41.681025
 51
35.890869
  0
ARC
  8
OBJ
  6
CONTINUOUS
 62
     1
  5
17B
 10
724.5505
 20
163.90854
 30
0.0
 40
8.428135
 50
37.163009
 51
74.772779
  0
ARC
  8
OBJ
  6
CONTINUOUS
 62
     1
  5
17C
 10
725.066217
 20
163.92252
 30
0.0
 40
8.293915
 50
78.187016
 51
109.338243
  0
ARC
  8
OBJ
  6
CONTINUOUS
 62
     1
  5
17D
 10
727.048818
 20
161.454067
 30
0.0
 40
11.3287
 50
114.673241
 51
155.924065
  0
ARC
  8
OBJ
  6
CONTINUOUS
 62
     1
  5
17E
 10
730.092555
 20
158.26202
 30
0.0
 40
15.50035
 50
149.729101
 51
178.138112
  0
ARC
  8
OBJ
  6
CONTINUOUS
 62
     1
  5
17F
 10
59.518055
 20
256.372495
 30
0.0
 40
1.148565
 50
143.891009
 51
-50.813589
  0
ARC
  8
OBJ
  6
CONTINUOUS
 62
     1
  5
180
 10
584.395806
 20
-402.089749
 30
0.0
 40
840.91396
 50
112.343611
 51
128.558424
  0
ARC
  8
OBJ
  6
CONTINUOUS
 62
     1
  5
181
 10
264.015123
 20
376.604376
 30
0.0
 40
1.151566
 50
-52.652307
 51
105.195813
  0
ARC
  8
OBJ
  6
CONTINUOUS
 62
     1
  5
182
 10
583.23662
 20
-400.128333
 30
0.0
 40
840.914069
 50
112.331915
 51
128.601513
  0
ARC
  8
OBJ
  6
CONTINUOUS
 62
     1
  5
183
 10
396.691986
 20
131.551122
 30
0.0
 40
1.148669
 50
133.761512
 51
-30.158927
  0
ARC
  8
OBJ
  6
CONTINUOUS
 62
     1
  5
184
 10
978.85341
 20
-476.793025
 30
0.0
 40
840.914575
 50
117.503598
 51
133.718395
  0
ARC
  8
OBJ
  6
CONTINUOUS
 62
     1
  5
185
 10
589.74525
 20
269.93368
 30
0.0
 40
1.147588
 50
-47.845616
 51
110.850937
  0
ARC
  8
OBJ
  6
CONTINUOUS
 62
     1
  5
186
 10
977.522811
 20
-474.948885
 30
0.0
 40
840.914533
 50
117.491928
 51
133.761502
  0
ARC
  8
OBJ
  6
CONTINUOUS
 62
     1
  5
187
 10
535.77207
 20
987.37107
 30
0.0
 40
897.167984
 50
-123.421354
 51
-105.104303
  0
ARC
  8
OBJ
  6
CONTINUOUS
 62
     1
  5
188
 10
302.26962
 20
122.153455
 30
0.0
 40
0.99582
 50
-106.264823
 51
75.157961
  0
ARC
  8
OBJ
  6
CONTINUOUS
 62
     1
  5
189
 10
536.799284
 20
989.156358
 30
0.0
 40
897.167985
 50
-123.421392
 51
-105.136931
  0
ARC
  8
OBJ
  6
CONTINUOUS
 62
     1
  5
18A
 10
42.406408
 20
239.291794
 30
0.0
 40
1.077213
 50
77.150504
 51
-136.94727
  0
ARC
  8
OBJ
  6
CONTINUOUS
 62
     1
  5
18B
 10
370.196127
 20
485.708499
 30
0.0
 40
371.597662
 50
-98.356831
 51
-75.246183
  0
ARC
  8
OBJ
  6
CONTINUOUS
 62
     1
  5
18C
 10
-2076.075404
 20
10131.549129
 30
0.0
 40
10322.787977
 50
-75.750477
 51
-75.045939
  0
ARC
  8
OBJ
  6
CONTINUOUS
 62
     1
  5
18D
 10
586.987435
 20
159.45405
 30
0.0
 40
1.283645
 50
-58.237308
 51
90.755628
  0
ARC
  8
OBJ
  6
CONTINUOUS
 62
     1
  5
18E
 10
-396.788038
 20
3640.27605
 30
0.0
 40
3615.93263
 50
-76.207674
 51
-74.212984
  0
ARC
  8
OBJ
  6
CONTINUOUS
 62
     1
  5
18F
 10
370.63021
 20
487.950449
 30
0.0
 40
371.597687
 50
-98.35688
 51
-75.246363
  0
ARC
  8
OBJ
  6
CONTINUOUS
 62
     1
  5
190
 10
316.51651
 20
119.156
 30
0.0
 40
1.14732
 50
84.685941
 51
-106.58594
  0
LINE
  8
OBJ
  6
CONTINUOUS
 62
     1
  5
191
 10
599.142515
 20
121.91746
 30
0.0
 11
601.334744
 21
121.305991
 31
0.0
  0
ARC
  8
OBJ
  6
CONTINUOUS
 62
     1
  5
192
 10
897.681168
 20
51.947119
 30
0.0
 40
304.354819
 50
145.980521
 51
166.827227
  0
ARC
  8
OBJ
  6
CONTINUOUS
 62
     1
  5
193
 10
775.35996
 20
156.89498
 30
0.0
 40
145.441355
 50
115.078006
 51
153.308201
  0
ARC
  8
OBJ
  6
CONTINUOUS
 62
     1
  5
194
 10
752.066253
 20
211.215542
 30
0.0
 40
86.389901
 50
109.017487
 51
116.355493
  0
ARC
  8
OBJ
  6
CONTINUOUS
 62
     1
  5
195
 10
723.326108
 20
294.069606
 30
0.0
 40
1.318478
 50
-63.44591
 51
116.554079
  0
ARC
  8
OBJ
  6
CONTINUOUS
 62
     1
  5
196
 10
782.163666
 20
146.531077
 30
0.0
 40
160.15176
 50
111.781414
 51
139.583166
  0
ARC
  8
OBJ
  6
CONTINUOUS
 62
     1
  5
197
 10
936.366589
 20
40.283028
 30
0.0
 40
346.964345
 50
142.736309
 51
166.391759
  0
ARC
  8
OBJ
  6
CONTINUOUS
 62
     1
  5
198
 10
738.074337
 20
200.498451
 30
0.0
 40
55.807061
 50
78.187713
 51
83.76568
  0
ARC
  8
OBJ
  6
CONTINUOUS
 62
     1
  5
199
 10
734.60288
 20
200.40195
 30
0.0
 40
56.71285
 50
37.163009
 51
74.772779
  0
ARC
  8
OBJ
  6
CONTINUOUS
 62
     1
  5
19A
 10
668.965374
 20
154.459253
 30
0.0
 40
136.807714
 50
3.243561
 51
35.890592
  0
LINE
  8
OBJ
  6
CONTINUOUS
 62
     1
  5
19B
 10
805.553927
 20
162.199914
 30
0.0
 11
809.498453
 21
162.199866
 31
0.0
  0
ARC
  8
OBJ
  6
CONTINUOUS
 62
     1
  5
19C
 10
664.488107
 20
154.366751
 30
0.0
 40
145.221755
 50
3.091977
 51
35.890369
  0
ARC
  8
OBJ
  6
CONTINUOUS
 62
     1
  5
19D
 10
734.16274
 20
203.134525
 30
0.0
 40
60.20095
 50
37.163008
 51
74.772779
  0
ARC
  8
OBJ
  6
CONTINUOUS
 62
     1
  5
19E
 10
737.846231
 20
203.237249
 30
0.0
 40
59.239472
 50
78.186258
 51
83.906384
  0
LINE
  8
OBJ
  6
CONTINUOUS
 62
     1
  5
19F
 10
744.134695
 20
262.142005
 30
0.0
 11
744.134695
 21
255.975474
 31
0.0
  0
LINE
  8
OBJ
  6
CONTINUOUS
 62
     1
  5
1A0
 10
892.351305
 20
232.242485
 30
0.0
 11
892.54739
 21
230.00098
 31
0.0
  0
LINE
  8
OBJ
  6
CONTINUOUS
 62
     1
  5
1A1
 10
892.54739
 20
230.00098
 30
0.0
 11
1152.927575
 21
271.38599
 31
0.0
  0
LINE
  8
OBJ
  6
CONTINUOUS
 62
     1
  5
1A2
 10
1152.927575
 20
271.38599
 30
0.0
 11
1152.55405
 21
273.481975
 31
0.0
  0
LINE
  8
OBJ
  6
CONTINUOUS
 62
     1
  5
1A3
 10
1152.55405
 20
273.481975
 30
0.0
 11
892.351305
 21
232.242485
 31
0.0
  0
LINE
  8
OBJ
  6
CONTINUOUS
 62
     1
  5
1A4
 10
429.42347
 20
321.84203
 30
0.0
 11
511.676565
 21
352.712
 31
0.0
  0
LINE
  8
OBJ
  6
CONTINUOUS
 62
     1
  5
1A5
 10
511.676565
 20
352.712
 30
0.0
 11
489.28882
 21
359.98796
 31
0.0
  0
LINE
  8
OBJ
  6
CONTINUOUS
 62
     1
  5
1A6
 10
489.28882
 20
359.98796
 30
0.0
 11
429.42347
 21
321.84203
 31
0.0
  0
ARC
  8
OBJ
  6
CONTINUOUS
 62
     1
  5
1A7
 10
748.600106
 20
153.042564
 30
0.0
 40
75.069042
 50
161.492636
 51
-159.531051
  0
LINE
  8
OBJ
  6
CONTINUOUS
 62
     1
  5
1A8
 10
678.270785
 20
126.790942
 30
0.0
 11
697.87547
 21
155.21848
 31
0.0
  0
LINE
  8
OBJ
  6
CONTINUOUS
 62
     1
  5
1A9
 10
697.87547
 20
155.21848
 30
0.0
 11
677.41342
 21
176.87147
 31
0.0
  0
ARC
  8
OBJ
  6
CONTINUOUS
 62
     1
  5
1AA
 10
750.727291
 20
148.776112
 30
0.0
 40
75.069
 50
-147.24842
 51
-108.271561
  0
LINE
  8
OBJ
  6
CONTINUOUS
 62
     1
  5
1AB
 10
727.191571
 20
77.492
 30
0.0
 11
717.28665
 21
110.573495
 31
0.0
  0
LINE
  8
OBJ
  6
CONTINUOUS
 62
     1
  5
1AC
 10
717.28665
 20
110.573495
 30
0.0
 11
687.592453
 21
108.163958
 31
0.0
  0
LINE
  8
OBJ
  6
CONTINUOUS
 62
     1
  5
1AD
 10
688.781764
 20
199.172485
 30
0.0
 11
721.283075
 21
210.840995
 31
0.0
  0
LINE
  8
OBJ
  6
CONTINUOUS
 62
     1
  5
1AE
 10
721.283075
 20
210.840995
 30
0.0
 11
717.280895
 21
240.36245
 31
0.0
  0
ARC
  8
OBJ
  6
CONTINUOUS
 62
     1
  5
1AF
 10
761.227835
 20
179.501597
 30
0.0
 40
75.069148
 50
125.832628
 51
164.80904
  0
ARC
  8
OBJ
  6
CONTINUOUS
 62
     1
  5
1B0
 10
732.164814
 20
296.691267
 30
0.0
 40
1.417569
 50
125.808838
 51
-91.315985
  0
ARC
  8
OBJ
  6
CONTINUOUS
 62
     1
  5
1B1
 10
752.064505
 20
211.21494
 30
0.0
 40
86.39
 50
60.939543
 51
103.339701
  0
ARC
  8
OBJ
  6
CONTINUOUS
 62
     1
  5
1B2
 10
741.737718
 20
189.731261
 30
0.0
 40
110.194105
 50
15.779223
 51
61.671965
  0
ARC
  8
OBJ
  6
CONTINUOUS
 62
     1
  5
1B3
 10
594.684375
 20
158.661821
 30
0.0
 40
260.350327
 50
-5.938664
 51
13.558193
  0
LINE
  8
OBJ
  6
CONTINUOUS
 62
     1
  5
1B4
 10
853.63746
 20
131.725
 30
0.0
 11
855.360345
 21
131.579481
 31
0.0
  0
ARC
  8
OBJ
  6
CONTINUOUS
 62
     1
  5
1B5
 10
548.050452
 20
160.365738
 30
0.0
 40
308.655178
 50
-5.351381
 51
10.325645
  0
ARC
  8
OBJ
  6
CONTINUOUS
 62
     1
  5
1B6
 10
737.8049
 20
188.105465
 30
0.0
 40
117.194595
 50
13.6136
 51
42.770001
  0
ARC
  8
OBJ
  6
CONTINUOUS
 62
     1
  5
1B7
 10
752.178363
 20
204.823903
 30
0.0
 40
95.323585
 50
41.259731
 51
102.630026
  0
LINE
  8
OBJ
  6
CONTINUOUS
 62
     1
  5
1B8
 10
748.43688
 20
188.268485
 30
0.0
 11
774.898399
 21
174.581451
 31
0.0
  0
ARC
  8
OBJ
  6
CONTINUOUS
 62
     1
  5
1B9
 10
699.836045
 20
173.58255
 30
0.0
 40
75.069
 50
0.762425
 51
39.73891
  0
LINE
  8
OBJ
  6
CONTINUOUS
 62
     1
  5
1BA
 10
757.561523
 20
221.573424
 30
0.0
 11
748.43688
 21
188.268485
 31
0.0
  0
LINE
  8
OBJ
  6
CONTINUOUS
 62
     1
  5
1BB
 10
749.83735
 20
126.69097
 30
0.0
 11
761.559278
 21
99.30213
 31
0.0
  0
ARC
  8
OBJ
  6
CONTINUOUS
 62
     1
  5
1BC
 10
702.98756
 20
146.256455
 30
0.0
 40
75.069
 50
-38.71759
 51
0.258915
  0
LINE
  8
OBJ
  6
CONTINUOUS
 62
     1
  5
1BD
 10
778.055794
 20
146.595685
 30
0.0
 11
749.83735
 21
126.69097
 31
0.0
  0
ARC
  8
OBJ
  6
CONTINUOUS
 62
     1
  5
1BE
 10
734.205835
 20
94.332995
 30
0.0
 40
53.252706
 50
-84.664588
 51
-43.320917
  0
ARC
  8
OBJ
  6
CONTINUOUS
 62
     1
  5
1BF
 10
664.48811
 20
154.366964
 30
0.0
 40
145.221739
 50
-41.680921
 51
-0.966501
  0
LINE
  8
OBJ
  6
CONTINUOUS
 62
     1
  5
1C0
 10
809.689189
 20
151.91739
 30
0.0
 11
805.749493
 21
151.917295
 31
0.0
  0
ARC
  8
OBJ
  6
CONTINUOUS
 62
     1
  5
1C1
 10
668.965385
 20
154.459066
 30
0.0
 40
136.807722
 50
-41.680877
 51
-1.064568
  0
ARC
  8
OBJ
  6
CONTINUOUS
 62
     1
  5
1C2
 10
734.644231
 20
97.903533
 30
0.0
 40
50.167006
 50
-84.83831
 51
-43.321292
  0
LINE
  8
OBJ
  6
CONTINUOUS
 62
     1
  5
1C3
 10
739.15759
 20
47.939965
 30
0.0
 11
739.15759
 21
41.311011
 31
0.0
  0
LINE
  8
OBJ
  6
CONTINUOUS
 62
     1
  5
1C4
 10
310.503975
 20
355.23849
 30
0.0
 11
398.822865
 21
389.38999
 31
0.0
  0
LINE
  8
OBJ
  6
CONTINUOUS
 62
     1
  5
1C5
 10
398.822865
 20
389.38999
 30
0.0
 11
375.828445
 21
396.86301
 31
0.0
  0
LINE
  8
OBJ
  6
CONTINUOUS
 62
     1
  5
1C6
 10
375.828445
 20
396.86301
 30
0.0
 11
310.503975
 21
355.23849
 31
0.0
  0
ARC
  8
OBJ
  6
CONTINUOUS
 62
     1
  5
1C7
 10
816.653645
 20
148.80596
 30
0.0
 40
154.56781
 50
-179.123793
 51
-169.966795
  0
ARC
  8
OBJ
  6
CONTINUOUS
 62
     1
  5
1C8
 10
778.005658
 20
139.014682
 30
0.0
 40
114.841875
 50
-171.417946
 51
-152.316201
  0
ARC
  8
OBJ
  6
CONTINUOUS
 62
     1
  5
1C9
 10
754.814598
 20
120.39058
 30
0.0
 40
85.843639
 50
-156.135293
 51
-137.117539
  0
ARC
  8
OBJ
  6
CONTINUOUS
 62
     1
  5
1CA
 10
734.205908
 20
94.332899
 30
0.0
 40
53.252299
 50
-142.580409
 51
-95.745255
  0
LINE
  8
OBJ
  6
CONTINUOUS
 62
     1
  5
1CB
 10
728.875051
 20
41.348096
 30
0.0
 11
728.875042
 21
48.069305
 31
0.0
  0
ARC
  8
OBJ
  6
CONTINUOUS
 62
     1
  5
1CC
 10
734.643695
 20
97.903485
 30
0.0
 40
50.16695
 50
-142.580504
 51
-96.602997
  0
ARC
  8
OBJ
  6
CONTINUOUS
 62
     1
  5
1CD
 10
754.060262
 20
122.449019
 30
0.0
 40
80.869755
 50
-156.13848
 51
-137.119769
  0
ARC
  8
OBJ
  6
CONTINUOUS
 62
     1
  5
1CE
 10
775.905295
 20
139.99897
 30
0.0
 40
108.187755
 50
-171.416
 51
-152.315687
  0
ARC
  8
OBJ
  6
CONTINUOUS
 62
     1
  5
1CF
 10
812.314607
 20
149.21931
 30
0.0
 40
145.61201
 50
-178.907257
 51
-169.966795
  0
LINE
  8
OBJ
  6
CONTINUOUS
 62
     1
  5
1D0
 10
666.729079
 20
146.442371
 30
0.0
 11
662.103909
 21
146.442293
 31
0.0
  0
LINE
  8
OBJ
  6
CONTINUOUS
 62
     1
  5
1D1
 10
662.288823
 20
156.724899
 30
0.0
 11
666.896085
 21
156.724972
 31
0.0
  0
ARC
  8
OBJ
  6
CONTINUOUS
 62
     1
  5
1D2
 10
812.314891
 20
149.224814
 30
0.0
 40
145.612093
 50
173.46524
 51
177.047514
  0
ARC
  8
OBJ
  6
CONTINUOUS
 62
     1
  5
1D3
 10
771.89548
 20
162.40754
 30
0.0
 40
104.301706
 50
149.7291
 51
178.138112
  0
ARC
  8
OBJ
  6
CONTINUOUS
 62
     1
  5
1D4
 10
751.41405
 20
183.884501
 30
0.0
 40
76.231508
 50
114.673151
 51
155.922443
  0
ARC
  8
OBJ
  6
CONTINUOUS
 62
     1
  5
1D5
 10
738.074971
 20
200.498674
 30
0.0
 40
55.807327
 50
94.339613
 51
109.341315
  0
LINE
  8
OBJ
  6
CONTINUOUS
 62
     1
  5
1D6
 10
733.852134
 20
256.146005
 30
0.0
 11
733.852135
 21
262.34197
 31
0.0
  0
ARC
  8
OBJ
  6
CONTINUOUS
 62
     1
  5
1D7
 10
737.848197
 20
203.237382
 30
0.0
 40
59.239521
 50
93.867882
 51
109.341291
  0
ARC
  8
OBJ
  6
CONTINUOUS
 62
     1
  5
1D8
 10
751.999328
 20
185.603776
 30
0.0
 40
80.914195
 50
114.66848
 51
155.917282
  0
ARC
  8
OBJ
  6
CONTINUOUS
 62
     1
  5
1D9
 10
773.752072
 20
162.809789
 30
0.0
 40
110.719719
 50
149.729795
 51
178.14094
  0
ARC
  8
OBJ
  6
CONTINUOUS
 62
     1
  5
1DA
 10
816.653645
 20
148.80596
 30
0.0
 40
154.56781
 50
173.463393
 51
177.063292
  0
LINE
  8
OBJ
  6
CONTINUOUS
 62
     1
  5
1DB
 10
886.399755
 20
136.48549
 30
0.0
 11
1104.665985
 21
178.638505
 31
0.0
  0
LINE
  8
OBJ
  6
CONTINUOUS
 62
     1
  5
1DC
 10
1104.665985
 20
178.638505
 30
0.0
 11
1104.083655
 21
180.811515
 31
0.0
  0
LINE
  8
OBJ
  6
CONTINUOUS
 62
     1
  5
1DD
 10
1104.083655
 20
180.811515
 30
0.0
 11
889.380585
 21
139.995116
 31
0.0
  0
ARC
  8
OBJ
  6
CONTINUOUS
 62
     1
  5
1DE
 10
465.5229
 20
199.589842
 30
0.0
 40
428.026715
 50
-8.003369
 51
3.022608
  0
ARC
  8
OBJ
  6
CONTINUOUS
 62
     1
  5
1DF
 10
891.740815
 20
221.75851
 30
0.0
 40
1.277935
 50
18.296066
 51
162.731716
  0
ARC
  8
OBJ
  6
CONTINUOUS
 62
     1
  5
1E0
 10
463.078367
 20
199.776752
 30
0.0
 40
428.026613
 50
-8.50337
 51
2.994628
  0
LINE
  8
OBJ
  6
CONTINUOUS
 62
     1
  5
1E1
 10
1228.62608
 20
221.536015
 30
0.0
 11
1244.122596
 21
216.290883
 31
0.0
  0
ARC
  8
OBJ
  6
CONTINUOUS
 62
     1
  5
1E2
 10
1245.72557
 20
221.026965
 30
0.0
 40
5.0
 50
-108.6989
 51
-8.721711
  0
LINE
  8
OBJ
  6
CONTINUOUS
 62
     1
  5
1E3
 10
1250.667753
 20
220.268788
 30
0.0
 11
1258.050036
 21
268.38896
 31
0.0
  0
ARC
  8
OBJ
  6
CONTINUOUS
 62
     1
  5
1E4
 10
1255.579533
 20
268.768784
 30
0.0
 40
2.49953
 50
-8.740422
 51
96.444361
  0
LINE
  8
OBJ
  6
CONTINUOUS
 62
     1
  5
1E5
 10
1255.29899
 20
271.25252
 30
0.0
 11
1235.455605
 21
269.016465
 31
0.0
  0
LINE
  8
OBJ
  6
CONTINUOUS
 62
     1
  5
1E6
 10
1235.455605
 20
269.016465
 30
0.0
 11
1228.62608
 21
221.536015
 31
0.0
  0
LINE
  8
OBJ
  6
CONTINUOUS
 62
     1
  5
1E7
 10
52.494424
 20
268.356088
 30
0.0
 11
56.8306
 21
263.152965
 31
0.0
  0
LINE
  8
OBJ
  6
CONTINUOUS
 62
     1
  5
1E8
 10
56.8306
 20
263.152965
 30
0.0
 11
139.827045
 21
325.623415
 31
0.0
  0
LINE
  8
OBJ
  6
CONTINUOUS
 62
     1
  5
1E9
 10
139.827045
 20
325.623415
 30
0.0
 11
124.060565
 21
338.415025
 31
0.0
  0
LINE
  8
OBJ
  6
CONTINUOUS
 62
     1
  5
1EA
 10
124.060565
 20
338.415025
 30
0.0
 11
53.014515
 21
275.294485
 31
0.0
  0
ARC
  8
OBJ
  6
CONTINUOUS
 62
     1
  5
1EB
 10
56.33538
 20
271.556867
 30
0.0
 40
4.999793
 50
131.621016
 51
-140.194579
  0
LINE
  8
OBJ
  6
CONTINUOUS
 62
     1
  5
1EC
 10
1161.374005
 20
379.26803
 30
0.0
 11
1175.54344
 21
330.748465
 31
0.0
  0
ARC
  8
OBJ
  6
CONTINUOUS
 62
     1
  5
1ED
 10
1180.342988
 20
332.150721
 30
0.0
 40
5.000198
 50
-163.713528
 51
-98.97152
  0
LINE
  8
OBJ
  6
CONTINUOUS
 62
     1
  5
1EE
 10
1179.563239
 20
327.211695
 30
0.0
 11
1193.771495
 21
324.96805
 31
0.0
  0
ARC
  8
OBJ
  6
CONTINUOUS
 62
     1
  5
1EF
 10
1196.756895
 20
338.347096
 30
0.0
 40
13.708081
 50
-102.578905
 51
-5.91549
  0
ARC
  8
OBJ
  6
CONTINUOUS
 62
     1
  5
1F0
 10
1090.495655
 20
345.902466
 30
0.0
 40
120.231262
 50
-4.27771
 51
19.202779
  0
ARC
  8
OBJ
  6
CONTINUOUS
 62
     1
  5
1F1
 10
1199.31549
 20
383.803485
 30
0.0
 40
5.0
 50
19.20251
 51
104.335406
  0
LINE
  8
OBJ
  6
CONTINUOUS
 62
     1
  5
1F2
 10
1198.077501
 20
388.6478
 30
0.0
 11
1161.374005
 21
379.26803
 31
0.0
  0
ARC
  8
OBJ
  6
CONTINUOUS
 62
     1
  5
1F3
 10
367.911603
 20
382.474327
 30
0.0
 40
326.661732
 50
-105.963792
 51
-95.314187
  0
ARC
  8
OBJ
  6
CONTINUOUS
 62
     1
  5
1F4
 10
324.16423
 20
82.070605
 30
0.0
 40
28.280332
 50
-61.503019
 51
36.05389
  0
ARC
  8
OBJ
  6
CONTINUOUS
 62
     1
  5
1F5
 10
436.999733
 20
754.215578
 30
0.0
 40
661.646511
 50
-103.401567
 51
-97.815396
  0
ARC
  8
OBJ
  6
CONTINUOUS
 62
     1
  5
1F6
 10
299.333909
 20
87.054967
 30
0.0
 40
28.280574
 50
123.689411
 51
-138.754814
  0
LINE
  8
OBJ
  6
CONTINUOUS
 62
     1
  5
1F7
 10
836.985495
 20
360.06051
 30
0.0
 11
882.386915
 21
355.14293
 31
0.0
  0
LINE
  8
OBJ
  6
CONTINUOUS
 62
     1
  5
1F8
 10
882.386915
 20
355.14293
 30
0.0
 11
902.31357
 21
384.091985
 31
0.0
  0
ARC
  8
OBJ
  6
CONTINUOUS
 62
     1
  5
1F9
 10
918.902099
 20
372.673516
 30
0.0
 40
20.138538
 50
92.789325
 51
145.458994
  0
ARC
  8
OBJ
  6
CONTINUOUS
 62
     1
  5
1FA
 10
924.509612
 20
257.580072
 30
0.0
 40
135.368505
 50
73.410686
 51
92.789325
  0
ARC
  8
OBJ
  6
CONTINUOUS
 62
     1
  5
1FB
 10
493.461647
 20
359.391988
 30
0.0
 40
470.526181
 50
3.402048
 51
18.860523
  0
ARC
  8
OBJ
  6
CONTINUOUS
 62
     1
  5
1FC
 10
1040.484765
 20
-338.24311
 30
0.0
 40
855.811413
 50
96.828913
 51
96.98913
  0
LINE
  8
OBJ
  6
CONTINUOUS
 62
     1
  5
1FD
 10
936.34874
 20
511.208985
 30
0.0
 11
840.06398
 21
363.60753
 31
0.0
  0
LINE
  8
OBJ
  6
CONTINUOUS
 62
     1
  5
1FE
 10
840.06398
 20
363.60753
 30
0.0
 11
836.985495
 21
360.06051
 31
0.0
  0
LINE
  8
OBJ
  6
CONTINUOUS
 62
     1
  5
1FF
 10
1096.290651
 20
512.97305
 30
0.0
 11
1143.75965
 21
389.382485
 31
0.0
  0
LINE
  8
OBJ
  6
CONTINUOUS
 62
     1
  5
200
 10
1143.75965
 20
389.382485
 30
0.0
 11
1222.500605
 21
405.12147
 31
0.0
  0
ARC
  8
OBJ
  6
CONTINUOUS
 62
     1
  5
201
 10
1218.580568
 20
424.733525
 30
0.0
 40
19.999985
 50
-78.696736
 51
58.787703
  0
ARC
  8
OBJ
  6
CONTINUOUS
 62
     1
  5
202
 10
299.239147
 20
-1092.547176
 30
0.0
 40
1794.071395
 50
58.787746
 51
63.013926
  0
ARC
  8
OBJ
  6
CONTINUOUS
 62
     1
  5
203
 10
1067.962787
 20
417.069285
 30
0.0
 40
99.999999
 50
63.012779
 51
73.544018
  0
ARC
  8
OBJ
  6
CONTINUOUS
 62
     1
  5
204
 10
444.018433
 20
762.682629
 30
0.0
 40
711.852313
 50
-125.108313
 51
-107.680029
  0
ARC
  8
OBJ
  6
CONTINUOUS
 62
     1
  5
205
 10
187.306076
 20
115.398136
 30
0.0
 40
50.986721
 50
-37.367586
 51
11.888298
  0
ARC
  8
OBJ
  6
CONTINUOUS
 62
     1
  5
206
 10
486.018939
 20
902.681132
 30
0.0
 40
815.657821
 50
-122.666375
 51
-107.761418
  0
ARC
  8
OBJ
  6
CONTINUOUS
 62
     1
  5
207
 10
102.663555
 20
178.666965
 30
0.0
 40
68.069005
 50
146.700607
 51
178.5914
  0
LINE
  8
OBJ
  6
CONTINUOUS
 62
     1
  5
208
 10
262.614335
 20
161.533505
 30
0.0
 11
318.741283
 21
145.489005
 31
0.0
  0
ARC
  8
OBJ
  6
CONTINUOUS
 62
     1
  5
209
 10
351.583805
 20
255.506935
 30
0.0
 40
114.8154
 50
-106.621402
 51
-82.748202
  0
ARC
  8
OBJ
  6
CONTINUOUS
 62
     1
  5
20A
 10
362.921355
 20
166.409988
 30
0.0
 40
25.0
 50
-82.748533
 51
-51.953103
  0
LINE
  8
OBJ
  6
CONTINUOUS
 62
     1
  5
20B
 10
378.329012
 20
146.722323
 30
0.0
 11
465.80297
 21
215.18048
 31
0.0
  0
LINE
  8
OBJ
  6
CONTINUOUS
 62
     1
  5
20C
 10
465.80297
 20
215.18048
 30
0.0
 11
376.279275
 21
249.716045
 31
0.0
  0
LINE
  8
OBJ
  6
CONTINUOUS
 62
     1
  5
20D
 10
376.279275
 20
249.716045
 30
0.0
 11
262.614335
 21
161.533505
 31
0.0
  0
LINE
  8
OBJ
  6
CONTINUOUS
 62
     1
  5
20E
 10
1103.864315
 20
527.327065
 30
0.0
 11
1110.064763
 21
525.633489
 31
0.0
  0
ARC
  8
OBJ
  6
CONTINUOUS
 62
     1
  5
20F
 10
945.73905
 20
-147.438161
 30
0.0
 40
692.840809
 50
59.895377
 51
76.280032
  0
LINE
  8
OBJ
  6
CONTINUOUS
 62
     1
  5
210
 10
1293.25452
 20
451.94601
 30
0.0
 11
1412.58905
 21
438.012026
 31
0.0
  0
ARC
  8
OBJ
  6
CONTINUOUS
 62
     1
  5
211
 10
1413.748943
 20
447.944511
 30
0.0
 40
9.999981
 50
-96.660704
 51
-33.366952
  0
LINE
  8
OBJ
  6
CONTINUOUS
 62
     1
  5
212
 10
1422.10058
 20
442.44453
 30
0.0
 11
1427.453305
 21
450.573213
 31
0.0
  0
ARC
  8
OBJ
  6
CONTINUOUS
 62
     1
  5
213
 10
1410.74953
 20
461.572462
 30
0.0
 40
19.99999
 50
-33.364457
 51
0.000052
  0
LINE
  8
OBJ
  6
CONTINUOUS
 62
     1
  5
214
 10
1430.74952
 20
461.57248
 30
0.0
 11
1430.74952
 21
511.63701
 31
0.0
  0
LINE
  8
OBJ
  6
CONTINUOUS
 62
     1
  5
215
 10
1430.74952
 20
511.63701
 30
0.0
 11
1117.777466
 21
543.376961
 31
0.0
  0
ARC
  8
OBJ
  6
CONTINUOUS
 62
     1
  5
216
 10
1116.769091
 20
533.427417
 30
0.0
 40
10.000512
 50
84.2129
 51
159.777756
  0
LINE
  8
OBJ
  6
CONTINUOUS
 62
     1
  5
217
 10
1107.385022
 20
536.884219
 30
0.0
 11
1103.864315
 21
527.327065
 31
0.0
  0
ARC
  8
OBJ
  6
CONTINUOUS
 62
     1
  5
218
 10
498.12258
 20
360.789995
 30
0.0
 40
470.52621
 50
3.019143
 51
18.7549
  0
ARC
  8
OBJ
  6
CONTINUOUS
 62
     1
  5
219
 10
926.641493
 20
278.254845
 30
0.0
 40
115.009708
 50
68.588642
 51
68.926123
  0
ARC
  8
OBJ
  6
CONTINUOUS
 62
     1
  5
21A
 10
964.975563
 20
376.017473
 30
0.0
 40
10.000031
 50
-4.289649
 51
68.583078
  0
LINE
  8
OBJ
  6
CONTINUOUS
 62
     1
  5
21B
 10
974.94758
 20
375.269485
 30
0.0
 11
973.45288
 21
355.34047
 31
0.0
  0
LINE
  8
OBJ
  6
CONTINUOUS
 62
     1
  5
21C
 10
973.45288
 20
355.34047
 30
0.0
 11
1138.55999
 21
388.34294
 31
0.0
  0
LINE
  8
OBJ
  6
CONTINUOUS
 62
     1
  5
21D
 10
1138.55999
 20
388.34294
 30
0.0
 11
1090.680405
 21
514.45455
 31
0.0
  0
ARC
  8
OBJ
  6
CONTINUOUS
 62
     1
  5
21E
 10
1067.966382
 20
417.068446
 30
0.0
 40
99.9999
 50
76.871223
 51
87.917501
  0
ARC
  8
OBJ
  6
CONTINUOUS
 62
     1
  5
21F
 10
1040.484765
 20
-338.24311
 30
0.0
 40
855.811243
 50
87.916389
 51
96.495896
  0
ARC
  8
OBJ
  6
CONTINUOUS
 62
     1
  5
220
 10
798.030112
 20
1002.720531
 30
0.0
 40
636.525248
 50
-116.427035
 51
-88.121225
  0
LINE
  8
OBJ
  6
CONTINUOUS
 62
     1
  5
221
 10
818.898545
 20
366.53746
 30
0.0
 11
910.992245
 21
500.60898
 31
0.0
  0
ARC
  8
OBJ
  6
CONTINUOUS
 62
     1
  5
222
 10
902.749857
 20
506.271329
 30
0.0
 40
9.999958
 50
-34.488255
 51
82.49164
  0
LINE
  8
OBJ
  6
CONTINUOUS
 62
     1
  5
223
 10
904.05656
 20
516.185545
 30
0.0
 11
721.81605
 21
540.21
 31
0.0
  0
ARC
  8
OBJ
  6
CONTINUOUS
 62
     1
  5
224
 10
717.894301
 20
510.467613
 30
0.0
 40
29.999828
 50
82.488469
 51
113.6018
  0
LINE
  8
OBJ
  6
CONTINUOUS
 62
     1
  5
225
 10
705.883035
 20
537.95796
 30
0.0
 11
514.739604
 21
432.710988
 31
0.0
  0
ARC
  8
OBJ
  6
CONTINUOUS
 62
     1
  5
226
 10
87.116993
 20
118.216891
 30
0.0
 40
94.236509
 50
135.704142
 51
153.633428
  0
ARC
  8
OBJ
  6
CONTINUOUS
 62
     1
  5
227
 10
-1.862405
 20
199.02746
 30
0.0
 40
26.23983
 50
-34.863311
 51
6.334129
  0
ARC
  8
OBJ
  6
CONTINUOUS
 62
     1
  5
228
 10
36.3671
 20
206.652592
 30
0.0
 40
13.038164
 50
129.011031
 51
-158.728024
  0
ARC
  8
OBJ
  6
CONTINUOUS
 62
     1
  5
229
 10
25.633555
 20
220.14699
 30
0.0
 40
4.206585
 50
-53.088196
 51
4.980326
  0
ARC
  8
OBJ
  6
CONTINUOUS
 62
     1
  5
22A
 10
-33.841405
 20
219.748985
 30
0.0
 40
63.670238
 50
0.686802
 51
14.255881
  0
ARC
  8
OBJ
  6
CONTINUOUS
 62
     1
  5
22B
 10
62.009545
 20
243.95695
 30
0.0
 40
35.190605
 50
145.957798
 51
-165.973797
  0
ARC
  8
OBJ
  6
CONTINUOUS
 62
     1
  5
22C
 10
389.026484
 20
-40.107866
 30
0.0
 40
468.11841
 50
109.761588
 51
139.540864
  0
ARC
  8
OBJ
  6
CONTINUOUS
 62
     1
  5
22D
 10
440.139233
 20
-83.64
 30
0.0
 40
527.42602
 50
89.970068
 51
113.390621
  0
LINE
  8
OBJ
  6
CONTINUOUS
 62
     1
  5
22E
 10
440.414769
 20
443.785948
 30
0.0
 11
464.735959
 21
445.365985
 31
0.0
  0
ARC
  8
OBJ
  6
CONTINUOUS
 62
     1
  5
22F
 10
475.750918
 20
268.181977
 30
0.0
 40
177.52606
 50
85.341411
 51
93.557316
  0
ARC
  8
OBJ
  6
CONTINUOUS
 62
     1
  5
230
 10
540.938874
 20
458.730935
 30
0.0
 40
52.56205
 50
159.329975
 51
-164.993994
  0
ARC
  8
OBJ
  6
CONTINUOUS
 62
     1
  5
231
 10
505.869017
 20
469.024073
 30
0.0
 40
16.349055
 50
118.772562
 51
149.651487
  0
ARC
  8
OBJ
  6
CONTINUOUS
 62
     1
  5
232
 10
506.471876
 20
470.102369
 30
0.0
 40
15.72898
 50
-1.984394
 51
122.590918
  0
ARC
  8
OBJ
  6
CONTINUOUS
 62
     1
  5
233
 10
532.732582
 20
471.01603
 30
0.0
 40
10.641555
 50
-172.123432
 51
-59.916037
  0
ARC
  8
OBJ
  6
CONTINUOUS
 62
     1
  5
234
 10
1257.190906
 20
-635.852644
 30
0.0
 40
1312.249306
 50
116.11276
 51
123.230509
  0
ARC
  8
OBJ
  6
CONTINUOUS
 62
     1
  5
235
 10
781.406543
 20
273.471472
 30
0.0
 40
287.598375
 50
87.159069
 51
110.727507
  0
ARC
  8
OBJ
  6
CONTINUOUS
 62
     1
  5
236
 10
735.014138
 20
-1811.644318
 30
0.0
 40
2373.135758
 50
82.284347
 51
88.535617
  0
ARC
  8
OBJ
  6
CONTINUOUS
 62
     1
  5
237
 10
1090.717144
 20
530.83206
 30
0.0
 40
38.210822
 50
132.818867
 51
166.107692
  0
ARC
  8
OBJ
  6
CONTINUOUS
 62
     1
  5
238
 10
1072.913685
 20
550.74206
 30
0.0
 40
11.51575
 50
82.543853
 51
135.175599
  0
LINE
  8
OBJ
  6
CONTINUOUS
 62
     1
  5
239
 10
1074.408053
 20
562.160438
 30
0.0
 11
1451.48469
 21
527.35698
 31
0.0
  0
ARC
  8
OBJ
  6
CONTINUOUS
 62
     1
  5
23A
 10
1451.994412
 20
520.033426
 30
0.0
 40
7.341271
 50
25.929449
 51
93.981385
  0
LINE
  8
OBJ
  6
CONTINUOUS
 62
     1
  5
23B
 10
1458.59666
 20
523.2435
 30
0.0
 11
1493.853105
 21
412.78803
 31
0.0
  0
ARC
  8
OBJ
  6
CONTINUOUS
 62
     1
  5
23C
 10
1470.037091
 20
405.185566
 30
0.0
 40
25.0
 50
-0.531144
 51
17.70394
  0
LINE
  8
OBJ
  6
CONTINUOUS
 62
     1
  5
23D
 10
1495.036017
 20
404.953814
 30
0.0
 11
1493.64442
 21
255.153515
 31
0.0
  0
LINE
  8
OBJ
  6
CONTINUOUS
 62
     1
  5
23E
 10
1493.64442
 20
255.153515
 30
0.0
 11
1446.277835
 21
229.290485
 31
0.0
  0
ARC
  8
OBJ
  6
CONTINUOUS
 62
     1
  5
23F
 10
1181.53702
 20
250.29347
 30
0.0
 40
265.572635
 50
-4.536011
 51
5.044358
  0
LINE
  8
OBJ
  6
CONTINUOUS
 62
     1
  5
240
 10
1446.081072
 20
273.644465
 30
0.0
 11
1443.346031
 21
273.420176
 31
0.0
  0
ARC
  8
OBJ
  6
CONTINUOUS
 62
     1
  5
241
 10
1258.299606
 20
263.982854
 30
0.0
 40
185.286919
 50
-13.365373
 51
2.919541
  0
ARC
  8
OBJ
  6
CONTINUOUS
 62
     1
  5
242
 10
1330.484565
 20
242.48447
 30
0.0
 40
110.1687
 50
-57.072505
 51
-11.165003
  0
ARC
  8
OBJ
  6
CONTINUOUS
 62
     1
  5
243
 10
1365.779339
 20
178.417005
 30
0.0
 40
37.569348
 50
-94.561483
 51
-49.115644
  0
ARC
  8
OBJ
  6
CONTINUOUS
 62
     1
  5
244
 10
1356.77899
 20
224.064841
 30
0.0
 40
83.315416
 50
-107.653622
 51
-85.861621
  0
LINE
  8
OBJ
  6
CONTINUOUS
 62
     1
  5
245
 10
1331.512605
 20
144.672975
 30
0.0
 11
1281.548556
 21
167.669536
 31
0.0
  0
ARC
  8
OBJ
  6
CONTINUOUS
 62
     1
  5
246
 10
1288.607035
 20
187.305975
 30
0.0
 40
20.866525
 50
-172.908792
 51
-109.77139
  0
ARC
  8
OBJ
  6
CONTINUOUS
 62
     1
  5
247
 10
1534.720759
 20
162.376388
 30
0.0
 40
267.75537
 50
170.188138
 51
175.211072
  0
LINE
  8
OBJ
  6
CONTINUOUS
 62
     1
  5
248
 10
1270.881943
 20
208.00552
 30
0.0
 11
1268.835538
 21
208.375587
 31
0.0
  0
ARC
  8
OBJ
  6
CONTINUOUS
 62
     1
  5
249
 10
1539.712601
 20
158.037647
 30
0.0
 40
275.514594
 50
169.472632
 51
176.311858
  0
ARC
  8
OBJ
  6
CONTINUOUS
 62
     1
  5
24A
 10
1249.68354
 20
182.43
 30
0.0
 40
16.49375
 50
-84.224216
 51
-23.851981
  0
ARC
  8
OBJ
  6
CONTINUOUS
 62
     1
  5
24B
 10
1767.693361
 20
-3398.319789
 30
0.0
 40
3601.546236
 50
98.242841
 51
104.800896
  0
LINE
  8
OBJ
  6
CONTINUOUS
 62
     1
  5
24C
 10
847.63922
 20
83.724965
 30
0.0
 11
851.789024
 21
105.494251
 31
0.0
  0
ARC
  8
OBJ
  6
CONTINUOUS
 62
     1
  5
24D
 10
548.050364
 20
160.365077
 30
0.0
 40
308.655117
 50
-10.240123
 51
-7.552713
  0
LINE
  8
OBJ
  6
CONTINUOUS
 62
     1
  5
24E
 10
854.0277
 20
119.79598
 30
0.0
 11
852.154759
 21
120.043986
 31
0.0
  0
ARC
  8
OBJ
  6
CONTINUOUS
 62
     1
  5
24F
 10
594.684375
 20
158.661821
 30
0.0
 40
260.35041
 50
-11.697988
 51
-8.530173
  0
LINE
  8
OBJ
  6
CONTINUOUS
 62
     1
  5
250
 10
849.62729
 20
105.87502
 30
0.0
 11
845.277998
 21
83.123442
 31
0.0
  0
ARC
  8
OBJ
  6
CONTINUOUS
 62
     1
  5
251
 10
1906.016616
 20
-4077.913652
 30
0.0
 40
4294.111796
 50
104.301339
 51
104.336607
  0
LINE
  8
OBJ
  6
CONTINUOUS
 62
     1
  5
252
 10
842.716908
 20
82.469725
 30
0.0
 11
820.288355
 21
88.960051
 31
0.0
  0
ARC
  8
OBJ
  6
CONTINUOUS
 62
     1
  5
253
 10
714.014172
 20
117.109038
 30
0.0
 40
109.938926
 50
-112.954938
 51
-14.83534
  0
LINE
  8
OBJ
  6
CONTINUOUS
 62
     1
  5
254
 10
671.137215
 20
15.87597
 30
0.0
 11
620.814912
 21
33.016628
 31
0.0
  0
ARC
  8
OBJ
  6
CONTINUOUS
 62
     1
  5
255
 10
628.875552
 20
56.681508
 30
0.0
 40
25.000009
 50
-146.765461
 51
-108.809671
  0
ARC
  8
OBJ
  6
CONTINUOUS
 62
     1
  5
256
 10
695.931305
 20
100.619465
 30
0.0
 40
105.168695
 50
-162.619993
 51
-146.765394
  0
ARC
  8
OBJ
  6
CONTINUOUS
 62
     1
  5
257
 10
619.422759
 20
76.672398
 30
0.0
 40
25.0
 50
174.92191
 51
-162.620119
  0
ARC
  8
OBJ
  6
CONTINUOUS
 62
     1
  5
258
 10
897.681262
 20
51.947637
 30
0.0
 40
304.354808
 50
169.698474
 51
174.922266
  0
LINE
  8
OBJ
  6
CONTINUOUS
 62
     1
  5
259
 10
598.23257
 20
106.374925
 30
0.0
 11
595.86819
 21
106.955013
 31
0.0
  0
ARC
  8
OBJ
  6
CONTINUOUS
 62
     1
  5
25A
 10
936.366619
 20
40.283402
 30
0.0
 40
346.964384
 50
168.921313
 51
175.458282
  0
LINE
  8
OBJ
  6
CONTINUOUS
 62
     1
  5
25B
 10
590.491723
 20
67.757758
 30
0.0
 11
588.596705
 21
20.300542
 31
0.0
  0
ARC
  8
OBJ
  6
CONTINUOUS
 62
     1
  5
25C
 10
409.955545
 20
796.1555
 30
0.0
 40
796.1555
 50
-96.44259
 51
-77.033593
  0
ARC
  8
OBJ
  6
CONTINUOUS
 62
     1
  5
25D
 10
536.107378
 20
1005.907917
 30
0.0
 40
1023.81408
 50
-109.322305
 51
-102.150148
  0
ARC
  8
OBJ
  6
CONTINUOUS
 62
     1
  5
25E
 10
369.372679
 20
627.38398
 30
0.0
 40
612.283913
 50
-126.487102
 51
-106.317455
  0
ARC
  8
OBJ
  6
CONTINUOUS
 62
     1
  5
25F
 10
22.197593
 20
149.488076
 30
0.0
 40
22.197593
 50
151.533323
 51
-139.640682
  0
ENDSEC
  0
EOF
